<?xml version='1.0' encoding='utf-8'?>
<svg xmlns="http://www.w3.org/2000/svg" version="1.1" viewBox="0 0 1024 1024"> <defs> <filter id="b" x="-.0014669" y="-.0027783" width="1.0029" height="1.0056" color-interpolation-filters="sRGB"> <feGaussianBlur stdDeviation="0.076284574"/> </filter> <filter id="a" x="-.0014812" y="-.0027284" width="1.003" height="1.0055" color-interpolation-filters="sRGB"> <feGaussianBlur stdDeviation="0.077688664"/> </filter> </defs> <g fill="#f00"> <path d="m501.92 103.49 414.19 233.1-415.27 235.77-387.07-262.38z" fill-rule="evenodd" opacity=".37716"/> <path d="m328.17 304.41-0.20016 89.737c15.541 20.239 36.869 25.338 61.147 25.766 35.556-0.80674 54.783-7.2214 68.418-29.688l0.63718-85.713" fill-opacity=".8902"/> <path d="m538.03 187.08-0.15199 88.039c27.265 35.459 125.36 34.451 125.17-16.949l0.66637-70.939m0.13354-0.11235c0 18.871-28.964 34.169-63.037 34.169s-62.845-15.49-62.845-34.361 28.772-33.978 62.845-33.978 63.037 15.298 63.037 34.169z"/> <path d="m663.85 187.12c0 18.871-28.964 34.169-63.037 34.169s-62.845-15.49-62.845-34.361 28.772-33.978 62.845-33.978 63.037 15.298 63.037 34.169z" filter="url(#a)"/> <path d="m403.75 118.51-0.19176 84.661c14.889 19.095 35.453 23.01 58.581 24.309 40.223-1.1449 55.892-18.838 65.678-38.499l0.47939-70.375" opacity=".88"/> <path d="m459.38 387.54-0.20213 84.661c15.695 19.095 37.37 23.01 61.75 24.309 42.399-1.1449 57.861-18.742 68.176-38.403l0.12181-67.786" opacity=".76"/> <path d="m211.47 225.84 0.0749 86.852c15.244 19.619 36.162 24.562 59.975 24.977 34.874-0.78202 53.733-7.0002 67.106-28.779l0.62496-83.087" fill-opacity=".94902" opacity=".99654"/> <path d="m679.64 262.71-0.0465 90.913c13.238 12.151 27.227 24.012 71.593 24.136 17.947-0.33265 30.993-5.4482 39.846-10.628 17.94-12.272 14.303-18.466 17.103-34.389l0.47798-68.916m0.32199 0.12339c1e-5 19.695-29.571 34.894-64.393 34.894s-64.777-16.35-64.777-36.045 29.955-35.278 64.777-35.278 64.393 16.733 64.393 36.428z" fill="#f00"/> <path transform="matrix(1.0291 0 0 1.0722 -20.591 -18.659)" d="m806.49 263.05c0 18.871-28.964 34.169-63.037 34.169s-62.845-15.49-62.845-34.361 28.772-33.978 62.845-33.978 63.037 15.298 63.037 34.169z" filter="url(#a)"/> <path d="m114.06 310.24 386.82 262.12-0.12597 377.67-374.82-275.97z" fill-rule="evenodd" opacity=".55017"/> <path d="m915.8 336.59-414.94 235.7-0.12597 376.91 411.3-264.61z" fill-rule="evenodd" opacity=".55017"/> <ellipse cx="524.27" cy="390.92" rx="65.288" ry="37.017" fill-rule="evenodd" style="paint-order:stroke fill markers"/> <ellipse cx="393.54" cy="302.76" rx="65.7" ry="35.525" fill-rule="evenodd" style="paint-order:stroke fill markers"/> <ellipse cx="275.32" cy="227.05" rx="62.994" ry="34.915" fill-rule="evenodd" style="paint-order:stroke fill markers"/> <path transform="matrix(1.0005 0 0 1.045 -.082854 -4.8176)" d="m465.98 84.609c-33.805-8.4e-5 -62.455 14.752-62.455 32.949-6e-5 18.197 28.651 32.949 62.455 32.949 33.804-5e-4 62.358-14.752 62.358-32.949 6e-5 -18.197-28.554-32.949-62.358-32.949z" filter="url(#b)" opacity=".88"/> </g> </svg>