<?xml version='1.0' encoding='utf-8'?>
<svg xmlns="http://www.w3.org/2000/svg" version="1.1" viewBox="0 0 320 320"> <g transform="translate(-212.05 -366.18)"> <rect x="212.05" y="366.18" width="320" height="320" fill="#fff"/> <path d="m212.05 366.18v3.3223l0.80859-0.82032 1.8867 1.8887 1.8867 1.8906-4.582 4.5879v2.6172l0.98242-0.98438 13.559 13.746-1.8711 1.875-1.873 1.875-6.7793-6.873-4.0176-4.0723v4.2695l0.80859-0.82032 1.8867 1.8887 1.8867 1.8906-4.582 4.5879v2.6172l0.98242-0.98438 13.559 13.746-1.8711 1.875-1.873 1.875-6.7793-6.873-4.0176-4.0723v4.2695l0.80859-0.82032 1.8867 1.8887 1.8867 1.8906-4.582 4.5879v2.6172l0.98242-0.98438 13.559 13.746-1.8711 1.875-1.873 1.875-6.7793-6.873-4.0176-4.0723v4.2695l0.80859-0.82032 1.8867 1.8887 1.8867 1.8906-4.582 4.5879v2.6172l0.98242-0.98438 13.559 13.746-1.8711 1.875-1.873 1.875-6.7793-6.873-4.0176-4.0723v4.2695l0.80859-0.82032 1.8867 1.8887 1.8867 1.8906-4.582 4.5879v2.6172l0.98242-0.98438 13.559 13.746-1.8711 1.875-1.873 1.875-6.7793-6.873-4.0176-4.0723v4.2695l0.80859-0.82032 1.8867 1.8887 1.8867 1.8906-4.582 4.5879v2.6172l0.98242-0.98438 13.559 13.746-1.8711 1.875-1.873 1.875-6.7793-6.873-4.0176-4.0723v4.2695l0.80859-0.82032 1.8867 1.8887 1.8867 1.8906-4.582 4.5879v2.6172l0.98242-0.98438 13.559 13.746-1.8711 1.875-1.873 1.875-6.7793-6.873-4.0176-4.0723v4.2695l0.80859-0.82032 1.8867 1.8887 1.8867 1.8906-4.582 4.5879v2.6172l0.98242-0.98438 13.559 13.746-1.8711 1.875-1.873 1.875-6.7793-6.873-4.0176-4.0723v4.2695l0.80859-0.82032 1.8867 1.8887 1.8867 1.8906-4.582 4.5879v2.6172l0.98242-0.98438 13.559 13.746-1.8711 1.875-1.873 1.875-6.7793-6.873-4.0176-4.0723v4.2695l0.80859-0.82032 1.8867 1.8887 1.8867 1.8906-4.582 4.5879v2.6172l0.98242-0.98438 13.559 13.746-1.8711 1.875-1.873 1.875-6.7793-6.873-4.0176-4.0723v4.2695l0.80859-0.82032 1.8867 1.8887 1.8867 1.8906-4.582 4.5879v2.6172l0.98242-0.98438 13.559 13.746-1.8711 1.875-1.873 1.875-6.7793-6.873-4.0176-4.0723v4.2695l0.80859-0.82032 1.8867 1.8887 1.8867 1.8906-4.582 4.5879v2.6172l0.98242-0.98438 13.559 13.746-1.8711 1.875-1.873 1.875-6.7793-6.873-4.0176-4.0723v4.2695l0.80859-0.82032 1.8867 1.8887 1.8867 1.8906-4.582 4.5879v2.6172l0.98242-0.98438 13.559 13.746-1.8711 1.875-1.873 1.875-6.7793-6.873-4.0176-4.0723v4.2695l0.80859-0.82032 1.8867 1.8887 1.8867 1.8906-4.582 4.5879v2.6172l0.98242-0.98438 13.559 13.746-1.8711 1.875-1.873 1.875-6.7793-6.873-4.0176-4.0723v4.2695l0.80859-0.82032 1.8867 1.8887 1.8867 1.8906-4.582 4.5879v2.6172l0.98242-0.98438 13.559 13.746-1.8711 1.875-1.873 1.875-6.7793-6.873-4.0176-4.0723v4.2695l0.80859-0.82032 1.8867 1.8887 1.8867 1.8906-4.582 4.5879v2.6172l0.98242-0.98438 6.7793 6.873 0.61719 0.625h2.1875l-1.543-1.8594-1.6738-2.0195 6.7168-6.8105 6.7188-6.8086 1.8867 1.8887 1.8867 1.8906-13.703 13.719h10.055l-3.6973-3.748 3.746-3.75 6.7793 6.873 0.61718 0.625h2.1875l-1.543-1.8594-1.6738-2.0195 6.7168-6.8105 6.7168-6.8086 1.8887 1.8887 1.8867 1.8906-13.703 13.719h10.055l-3.6973-3.748 3.746-3.75 6.7793 6.873 0.61719 0.625h2.1855l-1.543-1.8594-1.6719-2.0195 6.7168-6.8105 6.7168-6.8086 1.8867 1.8887 1.8867 1.8906-6.9297 6.9394-6.7734 6.7793h10.057l-3.6973-3.748 1.8711-1.875 1.873-1.875 6.7793 6.873 0.61719 0.625h2.1875l-1.543-1.8594-1.6738-2.0195 6.7168-6.8105 6.7188-6.8086 1.8867 1.8887 1.8867 1.8906-6.9297 6.9394-6.7734 6.7793h10.055l-3.6973-3.748 3.746-3.75 6.7793 6.873 0.61719 0.625h2.1875l-1.543-1.8594-1.6738-2.0195 6.7168-6.8105 6.7168-6.8086 1.8887 1.8887 1.8867 1.8906-13.703 13.719h10.055l-3.6973-3.748 3.746-3.75 6.7793 6.873 0.61719 0.625h2.1856l-1.541-1.8594-1.6738-2.0195 6.7168-6.8105 6.7168-6.8086 1.8867 1.8887 1.8887 1.8906-6.9316 6.9394-6.7734 6.7793h10.057l-3.6973-3.748 1.8711-1.875 1.873-1.875 6.7793 6.873 0.61719 0.625h2.1875l-1.543-1.8594-1.6738-2.0195 13.436-13.619 1.8867 1.8887 1.8867 1.8906-6.9297 6.9394-6.7734 6.7793h10.055l-3.6973-3.748 3.746-3.75 6.7793 6.873 0.61719 0.625h2.1875l-1.543-1.8594-1.6738-2.0195 6.7168-6.8105 6.7168-6.8086 1.8887 1.8887 1.8867 1.8906-13.703 13.719h10.055l-3.6973-3.748 3.746-3.75 6.7793 6.873 0.61719 0.625h2.1875l-1.543-1.8594-1.6738-2.0195 6.7168-6.8105 6.7168-6.8086 1.8867 1.8887 1.8887 1.8906-13.703 13.719h10.055l-3.6973-3.748 1.873-1.875 1.8711-1.875 6.7812 6.873 0.61719 0.625h2.1855l-1.543-1.8594-1.6738-2.0195 13.436-13.619 1.8867 1.8887 1.8867 1.8906-6.9297 6.9394-6.7734 6.7793h10.055l-3.6973-3.748 3.746-3.75 6.7793 6.873 0.61719 0.625h2.1875l-1.543-1.8594-1.6738-2.0195 6.7168-6.8105 6.7188-6.8086 1.8867 1.8887 1.8867 1.8906-13.703 13.719h10.055l-3.6973-3.748 3.746-3.75 6.7793 6.873 0.61719 0.625h2.1875l-1.543-1.8594-1.6738-2.0195 6.7168-6.8105 6.7168-6.8086 1.8887 1.8887 1.8867 1.8906-13.703 13.719h10.055l-3.6973-3.748 3.746-3.75 6.7793 6.873 0.61719 0.625h2.1856l-1.543-1.8594-1.6719-2.0195 6.7168-6.8105 6.7168-6.8086 1.8867 1.8887 1.8867 1.8906-6.9297 6.9394-6.7734 6.7793h10.057l-3.6973-3.748 1.8711-1.875 1.873-1.875 6.7793 6.873 0.61719 0.625h2.1875l-1.543-1.8594-1.6738-2.0195 6.7168-6.8105 6.7188-6.8086 1.8867 1.8887 1.8867 1.8906-6.9297 6.9394-6.7734 6.7793h10.055l-3.6973-3.748 3.746-3.75 6.7793 6.873 0.61718 0.625h2.1875l-1.543-1.8594-1.6738-2.0195 6.7168-6.8105 6.7168-6.8086 1.8887 1.8887 1.8867 1.8906-13.703 13.719h10.055l-3.6973-3.748 3.746-3.75 6.7793 6.873 0.61719 0.625h2.1855l-1.541-1.8594-1.6738-2.0195 6.7168-6.8105 6.293-6.3789v-3.4902l-3.1465-3.1895 1.873-1.875 1.2734-1.2754v-2.6172l-2.7324 2.7363-6.9316 6.9375-1.6719-2.0176-1.6738-2.0195 6.7168-6.8105 6.293-6.3789v-3.4902l-3.1465-3.1895 1.873-1.875 1.2734-1.2754v-2.6172l-2.7324 2.7363-6.9316 6.9375-1.6719-2.0176-1.6738-2.0195 6.7168-6.8105 6.293-6.3789v-3.4902l-3.1465-3.1895 1.873-1.875 1.2734-1.2754v-2.6172l-2.7324 2.7363-6.9316 6.9375-1.6719-2.0176-1.6738-2.0195 6.7168-6.8105 6.293-6.3789v-3.4902l-3.1465-3.1895 1.873-1.875 1.2734-1.2754v-2.6172l-2.7324 2.7363-6.9316 6.9375-1.6719-2.0176-1.6738-2.0195 6.7168-6.8105 6.293-6.3789v-3.4902l-3.1465-3.1895 1.873-1.875 1.2734-1.2754v-2.6172l-2.7324 2.7363-6.9316 6.9375-1.6719-2.0176-1.6738-2.0195 6.7168-6.8105 6.293-6.3789v-3.4902l-3.1465-3.1895 1.873-1.875 1.2734-1.2754v-2.6172l-2.7324 2.7363-6.9316 6.9375-1.6719-2.0176-1.6738-2.0195 6.7168-6.8105 6.293-6.3789v-3.4902l-3.1465-3.1895 1.873-1.875 1.2734-1.2754v-2.6172l-2.7324 2.7363-6.9316 6.9375-1.6719-2.0176-1.6738-2.0195 6.7168-6.8105 6.293-6.3789v-3.4902l-3.1465-3.1895 1.873-1.875 1.2734-1.2754v-2.6172l-2.7324 2.7363-6.9316 6.9375-1.6719-2.0176-1.6738-2.0195 6.7168-6.8105 6.293-6.3789v-3.4902l-3.1465-3.1895 1.873-1.875 1.2734-1.2754v-2.6172l-2.7324 2.7363-6.9316 6.9375-1.6719-2.0176-1.6738-2.0195 6.7168-6.8105 6.293-6.3789v-3.4902l-3.1465-3.1895 1.873-1.875 1.2734-1.2754v-2.6172l-2.7324 2.7363-6.9316 6.9375-1.6719-2.0176-1.6738-2.0195 6.7168-6.8105 6.293-6.3789v-3.4902l-3.1465-3.1895 1.873-1.875 1.2734-1.2754v-2.6172l-2.7324 2.7363-6.9316 6.9375-1.6719-2.0176-1.6738-2.0195 6.7168-6.8105 6.293-6.3789v-3.4902l-3.1465-3.1895 1.873-1.875 1.2734-1.2754v-2.6172l-2.7324 2.7363-6.9316 6.9375-1.6719-2.0176-1.6738-2.0195 6.7168-6.8105 6.293-6.3789v-3.4902l-3.1465-3.1895 1.873-1.875 1.2734-1.2754v-2.6172l-2.7324 2.7363-6.9316 6.9375-1.6719-2.0176-1.6738-2.0195 6.7168-6.8105 6.293-6.3789v-3.4902l-3.1465-3.1895 1.873-1.875 1.2734-1.2754v-2.6172l-2.7324 2.7363-6.9316 6.9375-1.6719-2.0176-1.6738-2.0195 6.7168-6.8105 6.293-6.3789v-3.4902l-3.1465-3.1895 1.873-1.875 1.2734-1.2754v-2.6172l-2.7324 2.7363-6.9316 6.9375-1.6719-2.0176-1.6738-2.0195 6.7168-6.8105 6.293-6.3789v-2.9316h-9.5059l-0.15821 0.1582-0.13086-0.1582h-2.1855l6.1621 6.248-3.746 3.75-6.7793-6.873-3.082-3.125h-10.055l-0.15821 0.1582-0.13086-0.1582h-2.1875l6.1621 6.248-3.746 3.75-6.7793-6.873-3.082-3.125h-10.055l-0.1582 0.1582-0.13086-0.1582h-2.1875l6.1621 6.248-1.8711 1.875-1.873 1.875-6.7793-6.873-3.082-3.125h-10.057l-0.1582 0.1582-0.13086-0.1582h-2.1856l6.1621 6.248-3.746 3.75-6.7793-6.873-3.082-3.125h-10.055l-0.1582 0.1582-0.13086-0.1582h-2.1875l6.1621 6.248-3.746 3.75-6.7793-6.873-3.082-3.125h-10.055l-0.1582 0.1582-0.13086-0.1582h-2.1875l6.1621 6.248-1.8711 1.875-1.873 1.875-6.7793-6.873-3.084-3.125h-10.055l-0.15821 0.1582-0.13086-0.1582h-2.1855l6.1621 6.248-3.746 3.75-6.7793-6.873-3.082-3.125h-10.055l-0.15821 0.1582-0.13085-0.1582h-2.1875l6.1621 6.248-3.746 3.75-6.7793-6.873-3.082-3.125h-10.055l-0.15821 0.1582-0.13086-0.1582h-2.1875l6.1621 6.248-1.873 1.875-1.8711 1.875-6.7812-6.873-3.082-3.125h-10.055l-0.1582 0.1582-0.13086-0.1582h-2.1875l6.1641 6.248-3.746 3.75-6.7793-6.873-3.082-3.125h-10.057l-0.1582 0.1582-0.13086-0.1582h-2.1856l6.1621 6.248-3.746 3.75-6.7793-6.873-3.082-3.125h-10.055l-0.1582 0.1582-0.13086-0.1582h-2.1875l6.1621 6.248-3.746 3.75-6.7793-6.873-3.082-3.125h-10.055l-0.1582 0.1582-0.13086-0.1582h-2.1875l6.1621 6.248-1.8711 1.875-1.873 1.875-6.7793-6.873-3.082-3.125h-10.057l-0.15821 0.1582-0.13086-0.1582h-2.1855l6.1621 6.248-3.746 3.75-6.7793-6.873-3.082-3.125h-10.055l-0.15821 0.1582-0.13086-0.1582h-2.1875l6.1621 6.248-3.746 3.75-6.7793-6.873-3.082-3.125h-10.055l-0.1582 0.1582-0.13086-0.1582h-2.1875l6.1621 6.248-1.8711 1.875-1.873 1.875-6.7793-6.873-3.084-3.125h-0.93359zm20.785 2.502 1.8867 1.8887 1.8867 1.8906-13.861 13.877-1.6738-2.0176-1.6738-2.0195 6.7168-6.8105 6.7188-6.8086zm19.975 0 1.8887 1.8887 1.8867 1.8906-13.861 13.877-1.6738-2.0176-1.6738-2.0195 6.7168-6.8105 6.7168-6.8086zm19.977 0 1.8867 1.8887 1.8867 1.8906-6.9297 6.9394-6.9316 6.9375-1.6738-2.0176-1.6719-2.0195 6.7168-6.8105 6.7168-6.8086zm19.977 0 1.8867 1.8887 1.8867 1.8906-6.9297 6.9394-6.9316 6.9375-1.6738-2.0176-1.6738-2.0195 6.7168-6.8105 6.7188-6.8086zm19.975 0 1.8887 1.8887 1.8867 1.8906-13.861 13.877-1.6738-2.0176-1.6738-2.0195 6.7168-6.8105 6.7168-6.8086zm19.977 0 1.8867 1.8887 1.8887 1.8906-6.9316 6.9394-6.9316 6.9375-1.6719-2.0176-1.6738-2.0195 6.7168-6.8105 6.7168-6.8086zm19.977 0 1.8867 1.8887 1.8867 1.8906-6.9297 6.9394-6.9316 6.9375-1.6738-2.0176-1.6738-2.0195 13.436-13.619zm19.975 0 1.8887 1.8887 1.8867 1.8906-13.861 13.877-1.6738-2.0176-1.6738-2.0195 6.7168-6.8105 6.7168-6.8086zm19.977 0 1.8867 1.8887 1.8887 1.8906-13.861 13.877-1.6738-2.0176-1.6738-2.0195 6.7168-6.8105 6.7168-6.8086zm19.977 0 1.8867 1.8887 1.8867 1.8906-6.9297 6.9394-6.9316 6.9375-1.6738-2.0176-1.6738-2.0195 13.436-13.619zm19.977 0 1.8867 1.8887 1.8867 1.8906-13.861 13.877-1.6738-2.0176-1.6738-2.0195 6.7168-6.8105 6.7188-6.8086zm19.975 0 1.8887 1.8887 1.8867 1.8906-13.861 13.877-1.6738-2.0176-1.6738-2.0195 6.7168-6.8105 6.7168-6.8086zm19.977 0 1.8867 1.8887 1.8867 1.8906-6.9297 6.9394-6.9316 6.9375-1.6738-2.0176-1.6719-2.0195 6.7168-6.8105 6.7168-6.8086zm19.977 0 1.8867 1.8887 1.8867 1.8906-6.9297 6.9394-6.9316 6.9375-1.6738-2.0176-1.6738-2.0195 6.7168-6.8105 6.7188-6.8086zm19.975 0 1.8887 1.8887 1.8867 1.8906-13.861 13.877-1.6738-2.0176-1.6738-2.0195 6.7168-6.8105 6.7168-6.8086zm-279.49 10 13.559 13.746-3.746 3.75-13.559-13.746 3.746-3.75zm19.977 0 13.559 13.746-3.746 3.75-13.559-13.746 3.746-3.75zm19.975 0 13.559 13.746-1.8711 1.875-1.873 1.875-13.559-13.746 1.8711-1.875 1.873-1.875zm19.977 0 13.559 13.746-3.746 3.75-13.559-13.746 3.746-3.75zm19.977 0 13.559 13.746-3.746 3.75-13.559-13.746 3.746-3.75zm19.975 0 6.7793 6.873 6.7812 6.873-3.746 3.75-13.559-13.746 1.8711-1.875 1.873-1.875zm19.977 0 13.559 13.746-1.873 1.875-1.8711 1.875-6.7812-6.873-6.7793-6.873 3.746-3.75zm19.977 0 13.559 13.746-3.746 3.75-13.559-13.746 3.746-3.75zm19.975 0 6.7812 6.873 6.7793 6.873-3.746 3.75-13.559-13.746 1.873-1.875 1.8711-1.875zm19.977 0 13.559 13.746-1.8711 1.875-1.873 1.875-6.7793-6.873-6.7812-6.873 3.746-3.75zm19.977 0 13.559 13.746-3.746 3.75-13.559-13.746 3.746-3.75zm19.977 0 13.559 13.746-3.746 3.75-13.559-13.746 3.746-3.75zm19.975 0 13.559 13.746-1.8711 1.875-1.873 1.875-13.559-13.746 1.8711-1.875 1.873-1.875zm19.977 0 13.559 13.746-3.746 3.75-13.559-13.746 3.746-3.75zm19.977 0 13.559 13.746-3.746 3.75-13.559-13.746 3.746-3.75zm-279.84 10 1.8867 1.8887 1.8867 1.8906-13.861 13.877-1.6738-2.0176-1.6738-2.0195 6.7168-6.8105 6.7188-6.8086zm19.975 0 1.8887 1.8887 1.8867 1.8906-13.861 13.877-1.6738-2.0176-1.6738-2.0195 6.7168-6.8105 6.7168-6.8086zm19.977 0 1.8867 1.8887 1.8867 1.8906-6.9297 6.9394-6.9316 6.9375-1.6738-2.0176-1.6719-2.0195 6.7168-6.8105 6.7168-6.8086zm19.977 0 1.8867 1.8887 1.8867 1.8906-6.9297 6.9394-6.9316 6.9375-1.6738-2.0176-1.6738-2.0195 6.7168-6.8105 6.7188-6.8086zm19.975 0 1.8887 1.8887 1.8867 1.8906-13.861 13.877-1.6738-2.0176-1.6738-2.0195 6.7168-6.8105 6.7168-6.8086zm19.977 0 1.8867 1.8887 1.8887 1.8906-6.9316 6.9394-6.9316 6.9375-1.6719-2.0176-1.6738-2.0195 6.7168-6.8105 6.7168-6.8086zm19.977 0 1.8867 1.8887 1.8867 1.8906-6.9297 6.9394-6.9316 6.9375-1.6738-2.0176-1.6738-2.0195 13.436-13.619zm19.975 0 1.8887 1.8887 1.8867 1.8906-13.861 13.877-1.6738-2.0176-1.6738-2.0195 6.7168-6.8105 6.7168-6.8086zm19.977 0 1.8867 1.8887 1.8887 1.8906-13.861 13.877-1.6738-2.0176-1.6738-2.0195 6.7168-6.8105 6.7168-6.8086zm19.977 0 1.8867 1.8887 1.8867 1.8906-6.9297 6.9394-6.9316 6.9375-1.6738-2.0176-1.6738-2.0195 13.436-13.619zm19.977 0 1.8867 1.8887 1.8867 1.8906-13.861 13.877-1.6738-2.0176-1.6738-2.0195 6.7168-6.8105 6.7188-6.8086zm19.975 0 1.8887 1.8887 1.8867 1.8906-13.861 13.877-1.6738-2.0176-1.6738-2.0195 6.7168-6.8105 6.7168-6.8086zm19.977 0 1.8867 1.8887 1.8867 1.8906-6.9297 6.9394-6.9316 6.9375-1.6738-2.0176-1.6719-2.0195 6.7168-6.8105 6.7168-6.8086zm19.977 0 1.8867 1.8887 1.8867 1.8906-6.9297 6.9394-6.9316 6.9375-1.6738-2.0176-1.6738-2.0195 6.7168-6.8105 6.7188-6.8086zm19.975 0 1.8887 1.8887 1.8867 1.8906-13.861 13.877-1.6738-2.0176-1.6738-2.0195 6.7168-6.8105 6.7168-6.8086zm-279.49 10 13.559 13.746-3.746 3.75-13.559-13.746 3.746-3.75zm19.977 0 13.559 13.746-3.746 3.75-13.559-13.746 3.746-3.75zm19.975 0 13.559 13.746-1.8711 1.875-1.873 1.875-13.559-13.746 1.8711-1.875 1.873-1.875zm19.977 0 13.559 13.746-3.746 3.75-13.559-13.746 3.746-3.75zm19.977 0 13.559 13.746-3.746 3.75-13.559-13.746 3.746-3.75zm19.975 0 6.7793 6.873 6.7812 6.873-3.746 3.75-13.559-13.746 1.8711-1.875 1.873-1.875zm19.977 0 13.559 13.746-1.873 1.875-1.8711 1.875-6.7812-6.873-6.7793-6.873 3.746-3.75zm19.977 0 13.559 13.746-3.746 3.75-13.559-13.746 3.746-3.75zm19.975 0 6.7812 6.873 6.7793 6.873-3.746 3.75-13.559-13.746 1.873-1.875 1.8711-1.875zm19.977 0 13.559 13.746-1.8711 1.875-1.873 1.875-6.7793-6.873-6.7812-6.873 3.746-3.75zm19.977 0 13.559 13.746-3.746 3.75-13.559-13.746 3.746-3.75zm19.977 0 13.559 13.746-3.746 3.75-13.559-13.746 3.746-3.75zm19.975 0 13.559 13.746-1.8711 1.875-1.873 1.875-13.559-13.746 1.8711-1.875 1.873-1.875zm19.977 0 13.559 13.746-3.746 3.75-13.559-13.746 3.746-3.75zm19.977 0 13.559 13.746-3.746 3.75-13.559-13.746 3.746-3.75zm-279.84 10 1.8867 1.8887 1.8867 1.8906-13.861 13.877-1.6738-2.0176-1.6738-2.0195 6.7168-6.8105 6.7188-6.8086zm19.975 0 1.8887 1.8887 1.8867 1.8906-13.861 13.877-1.6738-2.0176-1.6738-2.0195 6.7168-6.8105 6.7168-6.8086zm19.977 0 1.8867 1.8887 1.8867 1.8906-6.9297 6.9394-6.9316 6.9375-1.6738-2.0176-1.6719-2.0195 6.7168-6.8105 6.7168-6.8086zm19.977 0 1.8867 1.8887 1.8867 1.8906-6.9297 6.9394-6.9316 6.9375-1.6738-2.0176-1.6738-2.0195 6.7168-6.8105 6.7188-6.8086zm19.975 0 1.8887 1.8887 1.8867 1.8906-13.861 13.877-1.6738-2.0176-1.6738-2.0195 6.7168-6.8105 6.7168-6.8086zm19.977 0 1.8867 1.8887 1.8887 1.8906-6.9316 6.9394-6.9316 6.9375-1.6719-2.0176-1.6738-2.0195 6.7168-6.8105 6.7168-6.8086zm19.977 0 1.8867 1.8887 1.8867 1.8906-6.9297 6.9394-6.9316 6.9375-1.6738-2.0176-1.6738-2.0195 13.436-13.619zm19.975 0 1.8887 1.8887 1.8867 1.8906-13.861 13.877-1.6738-2.0176-1.6738-2.0195 6.7168-6.8105 6.7168-6.8086zm19.977 0 1.8867 1.8887 1.8887 1.8906-13.861 13.877-1.6738-2.0176-1.6738-2.0195 6.7168-6.8105 6.7168-6.8086zm19.977 0 1.8867 1.8887 1.8867 1.8906-6.9297 6.9394-6.9316 6.9375-1.6738-2.0176-1.6738-2.0195 13.436-13.619zm19.977 0 1.8867 1.8887 1.8867 1.8906-13.861 13.877-1.6738-2.0176-1.6738-2.0195 6.7168-6.8105 6.7188-6.8086zm19.975 0 1.8887 1.8887 1.8867 1.8906-13.861 13.877-1.6738-2.0176-1.6738-2.0195 6.7168-6.8105 6.7168-6.8086zm19.977 0 1.8867 1.8887 1.8867 1.8906-6.9297 6.9394-6.9316 6.9375-1.6738-2.0176-1.6719-2.0195 6.7168-6.8105 6.7168-6.8086zm19.977 0 1.8867 1.8887 1.8867 1.8906-6.9297 6.9394-6.9316 6.9375-1.6738-2.0176-1.6738-2.0195 6.7168-6.8105 6.7188-6.8086zm19.975 0 1.8887 1.8887 1.8867 1.8906-13.861 13.877-1.6738-2.0176-1.6738-2.0195 6.7168-6.8105 6.7168-6.8086zm-279.49 10 13.559 13.746-3.746 3.75-13.559-13.746 3.746-3.75zm19.977 0 13.559 13.746-3.746 3.75-13.559-13.746 3.746-3.75zm19.975 0 13.559 13.746-1.8711 1.875-1.873 1.875-13.559-13.746 1.8711-1.875 1.873-1.875zm19.977 0 13.559 13.746-3.746 3.75-13.559-13.746 3.746-3.75zm19.977 0 13.559 13.746-3.746 3.75-13.559-13.746 3.746-3.75zm19.975 0 6.7793 6.873 6.7812 6.873-3.746 3.75-13.559-13.746 1.8711-1.875 1.873-1.875zm19.977 0 13.559 13.746-1.873 1.875-1.8711 1.875-6.7812-6.873-6.7793-6.873 3.746-3.75zm19.977 0 13.559 13.746-3.746 3.75-13.559-13.746 3.746-3.75zm19.975 0 6.7812 6.873 6.7793 6.873-3.746 3.75-13.559-13.746 1.873-1.875 1.8711-1.875zm19.977 0 13.559 13.746-1.8711 1.875-1.873 1.875-6.7793-6.873-6.7812-6.873 3.746-3.75zm19.977 0 13.559 13.746-3.746 3.75-13.559-13.746 3.746-3.75zm19.977 0 13.559 13.746-3.746 3.75-13.559-13.746 3.746-3.75zm19.975 0 13.559 13.746-1.8711 1.875-1.873 1.875-13.559-13.746 1.8711-1.875 1.873-1.875zm19.977 0 13.559 13.746-3.746 3.75-13.559-13.746 3.746-3.75zm19.977 0 13.559 13.746-3.746 3.75-13.559-13.746 3.746-3.75zm-279.84 10 1.8867 1.8887 1.8867 1.8906-13.861 13.877-1.6738-2.0176-1.6738-2.0195 6.7168-6.8105 6.7188-6.8086zm19.975 0 1.8887 1.8887 1.8867 1.8906-13.861 13.877-1.6738-2.0176-1.6738-2.0195 6.7168-6.8105 6.7168-6.8086zm19.977 0 1.8867 1.8887 1.8867 1.8906-6.9297 6.9394-6.9316 6.9375-1.6738-2.0176-1.6719-2.0195 6.7168-6.8105 6.7168-6.8086zm19.977 0 1.8867 1.8887 1.8867 1.8906-6.9297 6.9394-6.9316 6.9375-1.6738-2.0176-1.6738-2.0195 6.7168-6.8105 6.7188-6.8086zm19.975 0 1.8887 1.8887 1.8867 1.8906-13.861 13.877-1.6738-2.0176-1.6738-2.0195 6.7168-6.8105 6.7168-6.8086zm19.977 0 1.8867 1.8887 1.8887 1.8906-6.9316 6.9394-6.9316 6.9375-1.6719-2.0176-1.6738-2.0195 6.7168-6.8105 6.7168-6.8086zm19.977 0 1.8867 1.8887 1.8867 1.8906-6.9297 6.9394-6.9316 6.9375-1.6738-2.0176-1.6738-2.0195 13.436-13.619zm19.975 0 1.8887 1.8887 1.8867 1.8906-13.861 13.877-1.6738-2.0176-1.6738-2.0195 6.7168-6.8105 6.7168-6.8086zm19.977 0 1.8867 1.8887 1.8887 1.8906-13.861 13.877-1.6738-2.0176-1.6738-2.0195 6.7168-6.8105 6.7168-6.8086zm19.977 0 1.8867 1.8887 1.8867 1.8906-6.9297 6.9394-6.9316 6.9375-1.6738-2.0176-1.6738-2.0195 13.436-13.619zm19.977 0 1.8867 1.8887 1.8867 1.8906-13.861 13.877-1.6738-2.0176-1.6738-2.0195 6.7168-6.8105 6.7188-6.8086zm19.975 0 1.8887 1.8887 1.8867 1.8906-13.861 13.877-1.6738-2.0176-1.6738-2.0195 6.7168-6.8105 6.7168-6.8086zm19.977 0 1.8867 1.8887 1.8867 1.8906-6.9297 6.9394-6.9316 6.9375-1.6738-2.0176-1.6719-2.0195 6.7168-6.8105 6.7168-6.8086zm19.977 0 1.8867 1.8887 1.8867 1.8906-6.9297 6.9394-6.9316 6.9375-1.6738-2.0176-1.6738-2.0195 6.7168-6.8105 6.7188-6.8086zm19.975 0 1.8887 1.8887 1.8867 1.8906-13.861 13.877-1.6738-2.0176-1.6738-2.0195 6.7168-6.8105 6.7168-6.8086zm-279.49 10 13.559 13.746-3.746 3.75-13.559-13.746 3.746-3.75zm19.977 0 13.559 13.746-3.746 3.75-13.559-13.746 3.746-3.75zm19.975 0 13.559 13.746-1.8711 1.875-1.873 1.875-13.559-13.746 1.8711-1.875 1.873-1.875zm19.977 0 13.559 13.746-3.746 3.75-13.559-13.746 3.746-3.75zm19.977 0 13.559 13.746-3.746 3.75-13.559-13.746 3.746-3.75zm19.975 0 6.7793 6.873 6.7812 6.873-3.746 3.75-13.559-13.746 1.8711-1.875 1.873-1.875zm19.977 0 13.559 13.746-1.873 1.875-1.8711 1.875-6.7812-6.873-6.7793-6.873 3.746-3.75zm19.977 0 13.559 13.746-3.746 3.75-13.559-13.746 3.746-3.75zm19.975 0 6.7812 6.873 6.7793 6.873-3.746 3.75-13.559-13.746 1.873-1.875 1.8711-1.875zm19.977 0 13.559 13.746-1.8711 1.875-1.873 1.875-6.7793-6.873-6.7812-6.873 3.746-3.75zm19.977 0 13.559 13.746-3.746 3.75-13.559-13.746 3.746-3.75zm19.977 0 13.559 13.746-3.746 3.75-13.559-13.746 3.746-3.75zm19.975 0 13.559 13.746-1.8711 1.875-1.873 1.875-13.559-13.746 1.8711-1.875 1.873-1.875zm19.977 0 13.559 13.746-3.746 3.75-13.559-13.746 3.746-3.75zm19.977 0 13.559 13.746-3.746 3.75-13.559-13.746 3.746-3.75zm-279.84 10 1.8867 1.8887 1.8867 1.8906-13.861 13.877-1.6738-2.0176-1.6738-2.0195 6.7168-6.8105 6.7188-6.8086zm19.975 0 1.8887 1.8887 1.8867 1.8906-13.861 13.877-1.6738-2.0176-1.6738-2.0195 6.7168-6.8105 6.7168-6.8086zm19.977 0 1.8867 1.8887 1.8867 1.8906-6.9297 6.9394-6.9316 6.9375-1.6738-2.0176-1.6719-2.0195 6.7168-6.8105 6.7168-6.8086zm19.977 0 1.8867 1.8887 1.8867 1.8906-6.9297 6.9394-6.9316 6.9375-1.6738-2.0176-1.6738-2.0195 6.7168-6.8105 6.7188-6.8086zm19.975 0 1.8887 1.8887 1.8867 1.8906-13.861 13.877-1.6738-2.0176-1.6738-2.0195 6.7168-6.8105 6.7168-6.8086zm19.977 0 1.8867 1.8887 1.8887 1.8906-6.9316 6.9394-6.9316 6.9375-1.6719-2.0176-1.6738-2.0195 6.7168-6.8105 6.7168-6.8086zm19.977 0 1.8867 1.8887 1.8867 1.8906-6.9297 6.9394-6.9316 6.9375-1.6738-2.0176-1.6738-2.0195 13.436-13.619zm19.975 0 1.8887 1.8887 1.8867 1.8906-13.861 13.877-1.6738-2.0176-1.6738-2.0195 6.7168-6.8105 6.7168-6.8086zm19.977 0 1.8867 1.8887 1.8887 1.8906-13.861 13.877-1.6738-2.0176-1.6738-2.0195 6.7168-6.8105 6.7168-6.8086zm19.977 0 1.8867 1.8887 1.8867 1.8906-6.9297 6.9394-6.9316 6.9375-1.6738-2.0176-1.6738-2.0195 13.436-13.619zm19.977 0 1.8867 1.8887 1.8867 1.8906-13.861 13.877-1.6738-2.0176-1.6738-2.0195 6.7168-6.8105 6.7188-6.8086zm19.975 0 1.8887 1.8887 1.8867 1.8906-13.861 13.877-1.6738-2.0176-1.6738-2.0195 6.7168-6.8105 6.7168-6.8086zm19.977 0 1.8867 1.8887 1.8867 1.8906-6.9297 6.9394-6.9316 6.9375-1.6738-2.0176-1.6719-2.0195 6.7168-6.8105 6.7168-6.8086zm19.977 0 1.8867 1.8887 1.8867 1.8906-6.9297 6.9394-6.9316 6.9375-1.6738-2.0176-1.6738-2.0195 6.7168-6.8105 6.7188-6.8086zm19.975 0 1.8887 1.8887 1.8867 1.8906-13.861 13.877-1.6738-2.0176-1.6738-2.0195 6.7168-6.8105 6.7168-6.8086zm-279.49 10 13.559 13.746-3.746 3.75-13.559-13.746 3.746-3.75zm19.977 0 13.559 13.746-3.746 3.75-13.559-13.746 3.746-3.75zm19.975 0 13.559 13.746-1.8711 1.875-1.873 1.875-13.559-13.746 1.8711-1.875 1.873-1.875zm19.977 0 13.559 13.746-3.746 3.75-13.559-13.746 3.746-3.75zm19.977 0 13.559 13.746-3.746 3.75-13.559-13.746 3.746-3.75zm19.975 0 6.7793 6.873 6.7812 6.873-3.746 3.75-13.559-13.746 1.8711-1.875 1.873-1.875zm19.977 0 13.559 13.746-1.873 1.875-1.8711 1.875-6.7812-6.873-6.7793-6.873 3.746-3.75zm19.977 0 13.559 13.746-3.746 3.75-13.559-13.746 3.746-3.75zm19.975 0 6.7812 6.873 6.7793 6.873-3.746 3.75-13.559-13.746 1.873-1.875 1.8711-1.875zm19.977 0 13.559 13.746-1.8711 1.875-1.873 1.875-6.7793-6.873-6.7812-6.873 3.746-3.75zm19.977 0 13.559 13.746-3.746 3.75-13.559-13.746 3.746-3.75zm19.977 0 13.559 13.746-3.746 3.75-13.559-13.746 3.746-3.75zm19.975 0 13.559 13.746-1.8711 1.875-1.873 1.875-13.559-13.746 1.8711-1.875 1.873-1.875zm19.977 0 13.559 13.746-3.746 3.75-13.559-13.746 3.746-3.75zm19.977 0 13.559 13.746-3.746 3.75-13.559-13.746 3.746-3.75zm-279.84 10 1.8867 1.8887 1.8867 1.8906-13.861 13.877-1.6738-2.0176-1.6738-2.0195 6.7168-6.8105 6.7188-6.8086zm19.975 0 1.8887 1.8887 1.8867 1.8906-13.861 13.877-1.6738-2.0176-1.6738-2.0195 6.7168-6.8105 6.7168-6.8086zm19.977 0 1.8867 1.8887 1.8867 1.8906-6.9297 6.9394-6.9316 6.9375-1.6738-2.0176-1.6719-2.0195 6.7168-6.8105 6.7168-6.8086zm19.977 0 1.8867 1.8887 1.8867 1.8906-6.9297 6.9394-6.9316 6.9375-1.6738-2.0176-1.6738-2.0195 6.7168-6.8105 6.7188-6.8086zm19.975 0 1.8887 1.8887 1.8867 1.8906-13.861 13.877-1.6738-2.0176-1.6738-2.0195 6.7168-6.8105 6.7168-6.8086zm19.977 0 1.8867 1.8887 1.8887 1.8906-6.9316 6.9394-6.9316 6.9375-1.6719-2.0176-1.6738-2.0195 6.7168-6.8105 6.7168-6.8086zm19.977 0 1.8867 1.8887 1.8867 1.8906-6.9297 6.9394-6.9316 6.9375-1.6738-2.0176-1.6738-2.0195 13.436-13.619zm19.975 0 1.8887 1.8887 1.8867 1.8906-13.861 13.877-1.6738-2.0176-1.6738-2.0195 6.7168-6.8105 6.7168-6.8086zm19.977 0 1.8867 1.8887 1.8887 1.8906-13.861 13.877-1.6738-2.0176-1.6738-2.0195 6.7168-6.8105 6.7168-6.8086zm19.977 0 1.8867 1.8887 1.8867 1.8906-6.9297 6.9394-6.9316 6.9375-1.6738-2.0176-1.6738-2.0195 13.436-13.619zm19.977 0 1.8867 1.8887 1.8867 1.8906-13.861 13.877-1.6738-2.0176-1.6738-2.0195 6.7168-6.8105 6.7188-6.8086zm19.975 0 1.8887 1.8887 1.8867 1.8906-13.861 13.877-1.6738-2.0176-1.6738-2.0195 6.7168-6.8105 6.7168-6.8086zm19.977 0 1.8867 1.8887 1.8867 1.8906-6.9297 6.9394-6.9316 6.9375-1.6738-2.0176-1.6719-2.0195 6.7168-6.8105 6.7168-6.8086zm19.977 0 1.8867 1.8887 1.8867 1.8906-6.9297 6.9394-6.9316 6.9375-1.6738-2.0176-1.6738-2.0195 6.7168-6.8105 6.7188-6.8086zm19.975 0 1.8887 1.8887 1.8867 1.8906-13.861 13.877-1.6738-2.0176-1.6738-2.0195 6.7168-6.8105 6.7168-6.8086zm-279.49 10 13.559 13.746-3.746 3.75-13.559-13.746 3.746-3.75zm19.977 0 13.559 13.746-3.746 3.75-13.559-13.746 3.746-3.75zm19.975 0 13.559 13.746-1.8711 1.875-1.873 1.875-13.559-13.746 1.8711-1.875 1.873-1.875zm19.977 0 13.559 13.746-3.746 3.75-13.559-13.746 3.746-3.75zm19.977 0 13.559 13.746-3.746 3.75-13.559-13.746 3.746-3.75zm19.975 0 6.7793 6.873 6.7812 6.873-3.746 3.75-13.559-13.746 1.8711-1.875 1.873-1.875zm19.977 0 13.559 13.746-1.873 1.875-1.8711 1.875-6.7812-6.873-6.7793-6.873 3.746-3.75zm19.977 0 13.559 13.746-3.746 3.75-13.559-13.746 3.746-3.75zm19.975 0 6.7812 6.873 6.7793 6.873-3.746 3.75-13.559-13.746 1.873-1.875 1.8711-1.875zm19.977 0 13.559 13.746-1.8711 1.875-1.873 1.875-6.7793-6.873-6.7812-6.873 3.746-3.75zm19.977 0 13.559 13.746-3.746 3.75-13.559-13.746 3.746-3.75zm19.977 0 13.559 13.746-3.746 3.75-13.559-13.746 3.746-3.75zm19.975 0 13.559 13.746-1.8711 1.875-1.873 1.875-13.559-13.746 1.8711-1.875 1.873-1.875zm19.977 0 13.559 13.746-3.746 3.75-13.559-13.746 3.746-3.75zm19.977 0 13.559 13.746-3.746 3.75-13.559-13.746 3.746-3.75zm-279.84 10 1.8867 1.8887 1.8867 1.8906-13.861 13.877-1.6738-2.0176-1.6738-2.0195 6.7168-6.8105 6.7188-6.8086zm19.975 0 1.8887 1.8887 1.8867 1.8906-13.861 13.877-1.6738-2.0176-1.6738-2.0195 6.7168-6.8105 6.7168-6.8086zm19.977 0 1.8867 1.8887 1.8867 1.8906-6.9297 6.9394-6.9316 6.9375-1.6738-2.0176-1.6719-2.0195 6.7168-6.8105 6.7168-6.8086zm19.977 0 1.8867 1.8887 1.8867 1.8906-6.9297 6.9394-6.9316 6.9375-1.6738-2.0176-1.6738-2.0195 6.7168-6.8105 6.7188-6.8086zm19.975 0 1.8887 1.8887 1.8867 1.8906-13.861 13.877-1.6738-2.0176-1.6738-2.0195 6.7168-6.8105 6.7168-6.8086zm19.977 0 1.8867 1.8887 1.8887 1.8906-6.9316 6.9394-6.9316 6.9375-1.6719-2.0176-1.6738-2.0195 6.7168-6.8105 6.7168-6.8086zm19.977 0 1.8867 1.8887 1.8867 1.8906-6.9297 6.9394-6.9316 6.9375-1.6738-2.0176-1.6738-2.0195 13.436-13.619zm19.975 0 1.8887 1.8887 1.8867 1.8906-13.861 13.877-1.6738-2.0176-1.6738-2.0195 6.7168-6.8105 6.7168-6.8086zm19.977 0 1.8867 1.8887 1.8887 1.8906-13.861 13.877-1.6738-2.0176-1.6738-2.0195 6.7168-6.8105 6.7168-6.8086zm19.977 0 1.8867 1.8887 1.8867 1.8906-6.9297 6.9394-6.9316 6.9375-1.6738-2.0176-1.6738-2.0195 13.436-13.619zm19.977 0 1.8867 1.8887 1.8867 1.8906-13.861 13.877-1.6738-2.0176-1.6738-2.0195 6.7168-6.8105 6.7188-6.8086zm19.975 0 1.8887 1.8887 1.8867 1.8906-13.861 13.877-1.6738-2.0176-1.6738-2.0195 6.7168-6.8105 6.7168-6.8086zm19.977 0 1.8867 1.8887 1.8867 1.8906-6.9297 6.9394-6.9316 6.9375-1.6738-2.0176-1.6719-2.0195 6.7168-6.8105 6.7168-6.8086zm19.977 0 1.8867 1.8887 1.8867 1.8906-6.9297 6.9394-6.9316 6.9375-1.6738-2.0176-1.6738-2.0195 6.7168-6.8105 6.7188-6.8086zm19.975 0 1.8887 1.8887 1.8867 1.8906-13.861 13.877-1.6738-2.0176-1.6738-2.0195 6.7168-6.8105 6.7168-6.8086zm-279.49 10 13.559 13.746-3.746 3.75-13.559-13.746 3.746-3.75zm19.977 0 13.559 13.746-3.746 3.75-13.559-13.746 3.746-3.75zm19.975 0 13.559 13.746-1.8711 1.875-1.873 1.875-13.559-13.746 1.8711-1.875 1.873-1.875zm19.977 0 13.559 13.746-3.746 3.75-13.559-13.746 3.746-3.75zm19.977 0 13.559 13.746-3.746 3.75-13.559-13.746 3.746-3.75zm19.975 0 6.7793 6.873 6.7812 6.873-3.746 3.75-13.559-13.746 1.8711-1.875 1.873-1.875zm19.977 0 13.559 13.746-1.873 1.875-1.8711 1.875-6.7812-6.873-6.7793-6.873 3.746-3.75zm19.977 0 13.559 13.746-3.746 3.75-13.559-13.746 3.746-3.75zm19.975 0 6.7812 6.873 6.7793 6.873-3.746 3.75-13.559-13.746 1.873-1.875 1.8711-1.875zm19.977 0 13.559 13.746-1.8711 1.875-1.873 1.875-6.7793-6.873-6.7812-6.873 3.746-3.75zm19.977 0 13.559 13.746-3.746 3.75-13.559-13.746 3.746-3.75zm19.977 0 13.559 13.746-3.746 3.75-13.559-13.746 3.746-3.75zm19.975 0 13.559 13.746-1.8711 1.875-1.873 1.875-13.559-13.746 1.8711-1.875 1.873-1.875zm19.977 0 13.559 13.746-3.746 3.75-13.559-13.746 3.746-3.75zm19.977 0 13.559 13.746-3.746 3.75-13.559-13.746 3.746-3.75zm-279.84 10 1.8867 1.8887 1.8867 1.8906-13.861 13.877-1.6738-2.0176-1.6738-2.0195 6.7168-6.8105 6.7188-6.8086zm19.975 0 1.8887 1.8887 1.8867 1.8906-13.861 13.877-1.6738-2.0176-1.6738-2.0195 6.7168-6.8105 6.7168-6.8086zm19.977 0 1.8867 1.8887 1.8867 1.8906-6.9297 6.9394-6.9316 6.9375-1.6738-2.0176-1.6719-2.0195 6.7168-6.8105 6.7168-6.8086zm19.977 0 1.8867 1.8887 1.8867 1.8906-6.9297 6.9394-6.9316 6.9375-1.6738-2.0176-1.6738-2.0195 6.7168-6.8105 6.7188-6.8086zm19.975 0 1.8887 1.8887 1.8867 1.8906-13.861 13.877-1.6738-2.0176-1.6738-2.0195 6.7168-6.8105 6.7168-6.8086zm19.977 0 1.8867 1.8887 1.8887 1.8906-6.9316 6.9394-6.9316 6.9375-1.6719-2.0176-1.6738-2.0195 6.7168-6.8105 6.7168-6.8086zm19.977 0 1.8867 1.8887 1.8867 1.8906-6.9297 6.9394-6.9316 6.9375-1.6738-2.0176-1.6738-2.0195 13.436-13.619zm19.975 0 1.8887 1.8887 1.8867 1.8906-13.861 13.877-1.6738-2.0176-1.6738-2.0195 6.7168-6.8105 6.7168-6.8086zm19.977 0 1.8867 1.8887 1.8887 1.8906-13.861 13.877-1.6738-2.0176-1.6738-2.0195 6.7168-6.8105 6.7168-6.8086zm19.977 0 1.8867 1.8887 1.8867 1.8906-6.9297 6.9394-6.9316 6.9375-1.6738-2.0176-1.6738-2.0195 13.436-13.619zm19.977 0 1.8867 1.8887 1.8867 1.8906-13.861 13.877-1.6738-2.0176-1.6738-2.0195 6.7168-6.8105 6.7188-6.8086zm19.975 0 1.8887 1.8887 1.8867 1.8906-13.861 13.877-1.6738-2.0176-1.6738-2.0195 6.7168-6.8105 6.7168-6.8086zm19.977 0 1.8867 1.8887 1.8867 1.8906-6.9297 6.9394-6.9316 6.9375-1.6738-2.0176-1.6719-2.0195 6.7168-6.8105 6.7168-6.8086zm19.977 0 1.8867 1.8887 1.8867 1.8906-6.9297 6.9394-6.9316 6.9375-1.6738-2.0176-1.6738-2.0195 6.7168-6.8105 6.7188-6.8086zm19.975 0 1.8887 1.8887 1.8867 1.8906-13.861 13.877-1.6738-2.0176-1.6738-2.0195 6.7168-6.8105 6.7168-6.8086zm-279.49 10 13.559 13.746-3.746 3.75-13.559-13.746 3.746-3.75zm19.977 0 13.559 13.746-3.746 3.75-13.559-13.746 3.746-3.75zm19.975 0 13.559 13.746-1.8711 1.875-1.873 1.875-13.559-13.746 1.8711-1.875 1.873-1.875zm19.977 0 13.559 13.746-3.746 3.75-13.559-13.746 3.746-3.75zm19.977 0 13.559 13.746-3.746 3.75-13.559-13.746 3.746-3.75zm19.975 0 6.7793 6.873 6.7812 6.873-3.746 3.75-13.559-13.746 1.8711-1.875 1.873-1.875zm19.977 0 13.559 13.746-1.873 1.875-1.8711 1.875-6.7812-6.873-6.7793-6.873 3.746-3.75zm19.977 0 13.559 13.746-3.746 3.75-13.559-13.746 3.746-3.75zm19.975 0 6.7812 6.873 6.7793 6.873-3.746 3.75-13.559-13.746 1.873-1.875 1.8711-1.875zm19.977 0 13.559 13.746-1.8711 1.875-1.873 1.875-6.7793-6.873-6.7812-6.873 3.746-3.75zm19.977 0 13.559 13.746-3.746 3.75-13.559-13.746 3.746-3.75zm19.977 0 13.559 13.746-3.746 3.75-13.559-13.746 3.746-3.75zm19.975 0 13.559 13.746-1.8711 1.875-1.873 1.875-13.559-13.746 1.8711-1.875 1.873-1.875zm19.977 0 13.559 13.746-3.746 3.75-13.559-13.746 3.746-3.75zm19.977 0 13.559 13.746-3.746 3.75-13.559-13.746 3.746-3.75zm-279.84 10 1.8867 1.8887 1.8867 1.8906-13.861 13.877-1.6738-2.0176-1.6738-2.0195 6.7168-6.8105 6.7188-6.8086zm19.975 0 1.8887 1.8887 1.8867 1.8906-13.861 13.877-1.6738-2.0176-1.6738-2.0195 6.7168-6.8105 6.7168-6.8086zm19.977 0 1.8867 1.8887 1.8867 1.8906-6.9297 6.9394-6.9316 6.9375-1.6738-2.0176-1.6719-2.0195 6.7168-6.8105 6.7168-6.8086zm19.977 0 1.8867 1.8887 1.8867 1.8906-6.9297 6.9394-6.9316 6.9375-1.6738-2.0176-1.6738-2.0195 6.7168-6.8105 6.7188-6.8086zm19.975 0 1.8887 1.8887 1.8867 1.8906-13.861 13.877-1.6738-2.0176-1.6738-2.0195 6.7168-6.8105 6.7168-6.8086zm19.977 0 1.8867 1.8887 1.8887 1.8906-6.9316 6.9394-6.9316 6.9375-1.6719-2.0176-1.6738-2.0195 6.7168-6.8105 6.7168-6.8086zm19.977 0 1.8867 1.8887 1.8867 1.8906-6.9297 6.9394-6.9316 6.9375-1.6738-2.0176-1.6738-2.0195 13.436-13.619zm19.975 0 1.8887 1.8887 1.8867 1.8906-13.861 13.877-1.6738-2.0176-1.6738-2.0195 6.7168-6.8105 6.7168-6.8086zm19.977 0 1.8867 1.8887 1.8887 1.8906-13.861 13.877-1.6738-2.0176-1.6738-2.0195 6.7168-6.8105 6.7168-6.8086zm19.977 0 1.8867 1.8887 1.8867 1.8906-6.9297 6.9394-6.9316 6.9375-1.6738-2.0176-1.6738-2.0195 13.436-13.619zm19.977 0 1.8867 1.8887 1.8867 1.8906-13.861 13.877-1.6738-2.0176-1.6738-2.0195 6.7168-6.8105 6.7188-6.8086zm19.975 0 1.8887 1.8887 1.8867 1.8906-13.861 13.877-1.6738-2.0176-1.6738-2.0195 6.7168-6.8105 6.7168-6.8086zm19.977 0 1.8867 1.8887 1.8867 1.8906-6.9297 6.9394-6.9316 6.9375-1.6738-2.0176-1.6719-2.0195 6.7168-6.8105 6.7168-6.8086zm19.977 0 1.8867 1.8887 1.8867 1.8906-6.9297 6.9394-6.9316 6.9375-1.6738-2.0176-1.6738-2.0195 6.7168-6.8105 6.7188-6.8086zm19.975 0 1.8887 1.8887 1.8867 1.8906-13.861 13.877-1.6738-2.0176-1.6738-2.0195 6.7168-6.8105 6.7168-6.8086zm-279.49 10 13.559 13.746-3.746 3.75-13.559-13.746 3.746-3.75zm19.977 0 13.559 13.746-3.746 3.75-13.559-13.746 3.746-3.75zm19.975 0 13.559 13.746-1.8711 1.875-1.873 1.875-13.559-13.746 1.8711-1.875 1.873-1.875zm19.977 0 13.559 13.746-3.746 3.75-13.559-13.746 3.746-3.75zm19.977 0 13.559 13.746-3.746 3.75-13.559-13.746 3.746-3.75zm19.975 0 6.7793 6.873 6.7812 6.873-3.746 3.75-13.559-13.746 1.8711-1.875 1.873-1.875zm19.977 0 13.559 13.746-1.873 1.875-1.8711 1.875-6.7812-6.873-6.7793-6.873 3.746-3.75zm19.977 0 13.559 13.746-3.746 3.75-13.559-13.746 3.746-3.75zm19.975 0 6.7812 6.873 6.7793 6.873-3.746 3.75-13.559-13.746 1.873-1.875 1.8711-1.875zm19.977 0 13.559 13.746-1.8711 1.875-1.873 1.875-6.7793-6.873-6.7812-6.873 3.746-3.75zm19.977 0 13.559 13.746-3.746 3.75-13.559-13.746 3.746-3.75zm19.977 0 13.559 13.746-3.746 3.75-13.559-13.746 3.746-3.75zm19.975 0 13.559 13.746-1.8711 1.875-1.873 1.875-13.559-13.746 1.8711-1.875 1.873-1.875zm19.977 0 13.559 13.746-3.746 3.75-13.559-13.746 3.746-3.75zm19.977 0 13.559 13.746-3.746 3.75-13.559-13.746 3.746-3.75zm-279.84 10 1.8867 1.8887 1.8867 1.8906-13.861 13.877-1.6738-2.0176-1.6738-2.0195 6.7168-6.8105 6.7188-6.8086zm19.975 0 1.8887 1.8887 1.8867 1.8906-13.861 13.877-1.6738-2.0176-1.6738-2.0195 6.7168-6.8105 6.7168-6.8086zm19.977 0 1.8867 1.8887 1.8867 1.8906-6.9297 6.9394-6.9316 6.9375-1.6738-2.0176-1.6719-2.0195 6.7168-6.8105 6.7168-6.8086zm19.977 0 1.8867 1.8887 1.8867 1.8906-6.9297 6.9394-6.9316 6.9375-1.6738-2.0176-1.6738-2.0195 6.7168-6.8105 6.7188-6.8086zm19.975 0 1.8887 1.8887 1.8867 1.8906-13.861 13.877-1.6738-2.0176-1.6738-2.0195 6.7168-6.8105 6.7168-6.8086zm19.977 0 1.8867 1.8887 1.8887 1.8906-6.9316 6.9394-6.9316 6.9375-1.6719-2.0176-1.6738-2.0195 6.7168-6.8105 6.7168-6.8086zm19.977 0 1.8867 1.8887 1.8867 1.8906-6.9297 6.9394-6.9316 6.9375-1.6738-2.0176-1.6738-2.0195 13.436-13.619zm19.975 0 1.8887 1.8887 1.8867 1.8906-13.861 13.877-1.6738-2.0176-1.6738-2.0195 6.7168-6.8105 6.7168-6.8086zm19.977 0 1.8867 1.8887 1.8887 1.8906-13.861 13.877-1.6738-2.0176-1.6738-2.0195 6.7168-6.8105 6.7168-6.8086zm19.977 0 1.8867 1.8887 1.8867 1.8906-6.9297 6.9394-6.9316 6.9375-1.6738-2.0176-1.6738-2.0195 13.436-13.619zm19.977 0 1.8867 1.8887 1.8867 1.8906-13.861 13.877-1.6738-2.0176-1.6738-2.0195 6.7168-6.8105 6.7188-6.8086zm19.975 0 1.8887 1.8887 1.8867 1.8906-13.861 13.877-1.6738-2.0176-1.6738-2.0195 6.7168-6.8105 6.7168-6.8086zm19.977 0 1.8867 1.8887 1.8867 1.8906-6.9297 6.9394-6.9316 6.9375-1.6738-2.0176-1.6719-2.0195 6.7168-6.8105 6.7168-6.8086zm19.977 0 1.8867 1.8887 1.8867 1.8906-6.9297 6.9394-6.9316 6.9375-1.6738-2.0176-1.6738-2.0195 6.7168-6.8105 6.7188-6.8086zm19.975 0 1.8887 1.8887 1.8867 1.8906-13.861 13.877-1.6738-2.0176-1.6738-2.0195 6.7168-6.8105 6.7168-6.8086zm-279.49 10 13.559 13.746-3.746 3.75-13.559-13.746 3.746-3.75zm19.977 0 13.559 13.746-3.746 3.75-13.559-13.746 3.746-3.75zm19.975 0 13.559 13.746-1.8711 1.875-1.873 1.875-13.559-13.746 1.8711-1.875 1.873-1.875zm19.977 0 13.559 13.746-3.746 3.75-13.559-13.746 3.746-3.75zm19.977 0 13.559 13.746-3.746 3.75-13.559-13.746 3.746-3.75zm19.975 0 6.7793 6.873 6.7812 6.873-3.746 3.75-13.559-13.746 1.8711-1.875 1.873-1.875zm19.977 0 13.559 13.746-1.873 1.875-1.8711 1.875-6.7812-6.873-6.7793-6.873 3.746-3.75zm19.977 0 13.559 13.746-3.746 3.75-13.559-13.746 3.746-3.75zm19.975 0 6.7812 6.873 6.7793 6.873-3.746 3.75-13.559-13.746 1.873-1.875 1.8711-1.875zm19.977 0 13.559 13.746-1.8711 1.875-1.873 1.875-6.7793-6.873-6.7812-6.873 3.746-3.75zm19.977 0 13.559 13.746-3.746 3.75-13.559-13.746 3.746-3.75zm19.977 0 13.559 13.746-3.746 3.75-13.559-13.746 3.746-3.75zm19.975 0 13.559 13.746-1.8711 1.875-1.873 1.875-13.559-13.746 1.8711-1.875 1.873-1.875zm19.977 0 13.559 13.746-3.746 3.75-13.559-13.746 3.746-3.75zm19.977 0 13.559 13.746-3.746 3.75-13.559-13.746 3.746-3.75zm-279.84 10 1.8867 1.8887 1.8867 1.8906-13.861 13.877-1.6738-2.0176-1.6738-2.0195 6.7168-6.8105 6.7188-6.8086zm19.975 0 1.8887 1.8887 1.8867 1.8906-13.861 13.877-1.6738-2.0176-1.6738-2.0195 6.7168-6.8105 6.7168-6.8086zm19.977 0 1.8867 1.8887 1.8867 1.8906-6.9297 6.9394-6.9316 6.9375-1.6738-2.0176-1.6719-2.0195 6.7168-6.8105 6.7168-6.8086zm19.977 0 1.8867 1.8887 1.8867 1.8906-6.9297 6.9394-6.9316 6.9375-1.6738-2.0176-1.6738-2.0195 6.7168-6.8105 6.7188-6.8086zm19.975 0 1.8887 1.8887 1.8867 1.8906-13.861 13.877-1.6738-2.0176-1.6738-2.0195 6.7168-6.8105 6.7168-6.8086zm19.977 0 1.8867 1.8887 1.8887 1.8906-6.9316 6.9394-6.9316 6.9375-1.6719-2.0176-1.6738-2.0195 6.7168-6.8105 6.7168-6.8086zm19.977 0 1.8867 1.8887 1.8867 1.8906-6.9297 6.9394-6.9316 6.9375-1.6738-2.0176-1.6738-2.0195 13.436-13.619zm19.975 0 1.8887 1.8887 1.8867 1.8906-13.861 13.877-1.6738-2.0176-1.6738-2.0195 6.7168-6.8105 6.7168-6.8086zm19.977 0 1.8867 1.8887 1.8887 1.8906-13.861 13.877-1.6738-2.0176-1.6738-2.0195 6.7168-6.8105 6.7168-6.8086zm19.977 0 1.8867 1.8887 1.8867 1.8906-6.9297 6.9394-6.9316 6.9375-1.6738-2.0176-1.6738-2.0195 13.436-13.619zm19.977 0 1.8867 1.8887 1.8867 1.8906-13.861 13.877-1.6738-2.0176-1.6738-2.0195 6.7168-6.8105 6.7188-6.8086zm19.975 0 1.8887 1.8887 1.8867 1.8906-13.861 13.877-1.6738-2.0176-1.6738-2.0195 6.7168-6.8105 6.7168-6.8086zm19.977 0 1.8867 1.8887 1.8867 1.8906-6.9297 6.9394-6.9316 6.9375-1.6738-2.0176-1.6719-2.0195 6.7168-6.8105 6.7168-6.8086zm19.977 0 1.8867 1.8887 1.8867 1.8906-6.9297 6.9394-6.9316 6.9375-1.6738-2.0176-1.6738-2.0195 6.7168-6.8105 6.7188-6.8086zm19.975 0 1.8887 1.8887 1.8867 1.8906-13.861 13.877-1.6738-2.0176-1.6738-2.0195 6.7168-6.8105 6.7168-6.8086zm-279.49 10 13.559 13.746-3.746 3.75-13.559-13.746 3.746-3.75zm19.977 0 13.559 13.746-3.746 3.75-13.559-13.746 3.746-3.75zm19.975 0 13.559 13.746-1.8711 1.875-1.873 1.875-13.559-13.746 1.8711-1.875 1.873-1.875zm19.977 0 13.559 13.746-3.746 3.75-13.559-13.746 3.746-3.75zm19.977 0 13.559 13.746-3.746 3.75-13.559-13.746 3.746-3.75zm19.975 0 6.7793 6.873 6.7812 6.873-3.746 3.75-13.559-13.746 1.8711-1.875 1.873-1.875zm19.977 0 13.559 13.746-1.873 1.875-1.8711 1.875-6.7812-6.873-6.7793-6.873 3.746-3.75zm19.977 0 13.559 13.746-3.746 3.75-13.559-13.746 3.746-3.75zm19.975 0 6.7812 6.873 6.7793 6.873-3.746 3.75-13.559-13.746 1.873-1.875 1.8711-1.875zm19.977 0 13.559 13.746-1.8711 1.875-1.873 1.875-6.7793-6.873-6.7812-6.873 3.746-3.75zm19.977 0 13.559 13.746-3.746 3.75-13.559-13.746 3.746-3.75zm19.977 0 13.559 13.746-3.746 3.75-13.559-13.746 3.746-3.75zm19.975 0 13.559 13.746-1.8711 1.875-1.873 1.875-13.559-13.746 1.8711-1.875 1.873-1.875zm19.977 0 13.559 13.746-3.746 3.75-13.559-13.746 3.746-3.75zm19.977 0 13.559 13.746-3.746 3.75-13.559-13.746 3.746-3.75zm-279.84 10 1.8867 1.8887 1.8867 1.8906-13.861 13.877-1.6738-2.0176-1.6738-2.0195 6.7168-6.8105 6.7188-6.8086zm19.975 0 1.8887 1.8887 1.8867 1.8906-13.861 13.877-1.6738-2.0176-1.6738-2.0195 6.7168-6.8105 6.7168-6.8086zm19.977 0 1.8867 1.8887 1.8867 1.8906-6.9297 6.9394-6.9316 6.9375-1.6738-2.0176-1.6719-2.0195 6.7168-6.8105 6.7168-6.8086zm19.977 0 1.8867 1.8887 1.8867 1.8906-6.9297 6.9394-6.9316 6.9375-1.6738-2.0176-1.6738-2.0195 6.7168-6.8105 6.7188-6.8086zm19.975 0 1.8887 1.8887 1.8867 1.8906-13.861 13.877-1.6738-2.0176-1.6738-2.0195 6.7168-6.8105 6.7168-6.8086zm19.977 0 1.8867 1.8887 1.8887 1.8906-6.9316 6.9394-6.9316 6.9375-1.6719-2.0176-1.6738-2.0195 6.7168-6.8105 6.7168-6.8086zm19.977 0 1.8867 1.8887 1.8867 1.8906-6.9297 6.9394-6.9316 6.9375-1.6738-2.0176-1.6738-2.0195 13.436-13.619zm19.975 0 1.8887 1.8887 1.8867 1.8906-13.861 13.877-1.6738-2.0176-1.6738-2.0195 6.7168-6.8105 6.7168-6.8086zm19.977 0 1.8867 1.8887 1.8887 1.8906-13.861 13.877-1.6738-2.0176-1.6738-2.0195 6.7168-6.8105 6.7168-6.8086zm19.977 0 1.8867 1.8887 1.8867 1.8906-6.9297 6.9394-6.9316 6.9375-1.6738-2.0176-1.6738-2.0195 13.436-13.619zm19.977 0 1.8867 1.8887 1.8867 1.8906-13.861 13.877-1.6738-2.0176-1.6738-2.0195 6.7168-6.8105 6.7188-6.8086zm19.975 0 1.8887 1.8887 1.8867 1.8906-13.861 13.877-1.6738-2.0176-1.6738-2.0195 6.7168-6.8105 6.7168-6.8086zm19.977 0 1.8867 1.8887 1.8867 1.8906-6.9297 6.9394-6.9316 6.9375-1.6738-2.0176-1.6719-2.0195 6.7168-6.8105 6.7168-6.8086zm19.977 0 1.8867 1.8887 1.8867 1.8906-6.9297 6.9394-6.9316 6.9375-1.6738-2.0176-1.6738-2.0195 6.7168-6.8105 6.7188-6.8086zm19.975 0 1.8887 1.8887 1.8867 1.8906-13.861 13.877-1.6738-2.0176-1.6738-2.0195 6.7168-6.8105 6.7168-6.8086zm-279.49 10 13.559 13.746-3.746 3.75-13.559-13.746 3.746-3.75zm19.977 0 13.559 13.746-3.746 3.75-13.559-13.746 3.746-3.75zm19.975 0 13.559 13.746-1.8711 1.875-1.873 1.875-13.559-13.746 1.8711-1.875 1.873-1.875zm19.977 0 13.559 13.746-3.746 3.75-13.559-13.746 3.746-3.75zm19.977 0 13.559 13.746-3.746 3.75-13.559-13.746 3.746-3.75zm19.975 0 6.7793 6.873 6.7812 6.873-3.746 3.75-13.559-13.746 1.8711-1.875 1.873-1.875zm19.977 0 13.559 13.746-1.873 1.875-1.8711 1.875-6.7812-6.873-6.7793-6.873 3.746-3.75zm19.977 0 13.559 13.746-3.746 3.75-13.559-13.746 3.746-3.75zm19.975 0 6.7812 6.873 6.7793 6.873-3.746 3.75-13.559-13.746 1.873-1.875 1.8711-1.875zm19.977 0 13.559 13.746-1.8711 1.875-1.873 1.875-6.7793-6.873-6.7812-6.873 3.746-3.75zm19.977 0 13.559 13.746-3.746 3.75-13.559-13.746 3.746-3.75zm19.977 0 13.559 13.746-3.746 3.75-13.559-13.746 3.746-3.75zm19.975 0 13.559 13.746-1.8711 1.875-1.873 1.875-13.559-13.746 1.8711-1.875 1.873-1.875zm19.977 0 13.559 13.746-3.746 3.75-13.559-13.746 3.746-3.75zm19.977 0 13.559 13.746-3.746 3.75-13.559-13.746 3.746-3.75zm-279.84 10 1.8867 1.8887 1.8867 1.8906-13.861 13.877-1.6738-2.0176-1.6738-2.0195 6.7168-6.8105 6.7188-6.8086zm19.975 0 1.8887 1.8887 1.8867 1.8906-13.861 13.877-1.6738-2.0176-1.6738-2.0195 6.7168-6.8105 6.7168-6.8086zm19.977 0 1.8867 1.8887 1.8867 1.8906-6.9297 6.9394-6.9316 6.9375-1.6738-2.0176-1.6719-2.0195 6.7168-6.8105 6.7168-6.8086zm19.977 0 1.8867 1.8887 1.8867 1.8906-6.9297 6.9394-6.9316 6.9375-1.6738-2.0176-1.6738-2.0195 6.7168-6.8105 6.7188-6.8086zm19.975 0 1.8887 1.8887 1.8867 1.8906-13.861 13.877-1.6738-2.0176-1.6738-2.0195 6.7168-6.8105 6.7168-6.8086zm19.977 0 1.8867 1.8887 1.8887 1.8906-6.9316 6.9394-6.9316 6.9375-1.6719-2.0176-1.6738-2.0195 6.7168-6.8105 6.7168-6.8086zm19.977 0 1.8867 1.8887 1.8867 1.8906-6.9297 6.9394-6.9316 6.9375-1.6738-2.0176-1.6738-2.0195 13.436-13.619zm19.975 0 1.8887 1.8887 1.8867 1.8906-13.861 13.877-1.6738-2.0176-1.6738-2.0195 6.7168-6.8105 6.7168-6.8086zm19.977 0 1.8867 1.8887 1.8887 1.8906-13.861 13.877-1.6738-2.0176-1.6738-2.0195 6.7168-6.8105 6.7168-6.8086zm19.977 0 1.8867 1.8887 1.8867 1.8906-6.9297 6.9394-6.9316 6.9375-1.6738-2.0176-1.6738-2.0195 13.436-13.619zm19.977 0 1.8867 1.8887 1.8867 1.8906-13.861 13.877-1.6738-2.0176-1.6738-2.0195 6.7168-6.8105 6.7188-6.8086zm19.975 0 1.8887 1.8887 1.8867 1.8906-13.861 13.877-1.6738-2.0176-1.6738-2.0195 6.7168-6.8105 6.7168-6.8086zm19.977 0 1.8867 1.8887 1.8867 1.8906-6.9297 6.9394-6.9316 6.9375-1.6738-2.0176-1.6719-2.0195 6.7168-6.8105 6.7168-6.8086zm19.977 0 1.8867 1.8887 1.8867 1.8906-6.9297 6.9394-6.9316 6.9375-1.6738-2.0176-1.6738-2.0195 6.7168-6.8105 6.7188-6.8086zm19.975 0 1.8887 1.8887 1.8867 1.8906-13.861 13.877-1.6738-2.0176-1.6738-2.0195 6.7168-6.8105 6.7168-6.8086zm-279.49 10 13.559 13.746-3.746 3.75-13.559-13.746 3.746-3.75zm19.977 0 13.559 13.746-3.746 3.75-13.559-13.746 3.746-3.75zm19.975 0 13.559 13.746-1.8711 1.875-1.873 1.875-13.559-13.746 1.8711-1.875 1.873-1.875zm19.977 0 13.559 13.746-3.746 3.75-13.559-13.746 3.746-3.75zm19.977 0 13.559 13.746-3.746 3.75-13.559-13.746 3.746-3.75zm19.975 0 6.7793 6.873 6.7812 6.873-3.746 3.75-13.559-13.746 1.8711-1.875 1.873-1.875zm19.977 0 13.559 13.746-1.873 1.875-1.8711 1.875-6.7812-6.873-6.7793-6.873 3.746-3.75zm19.977 0 13.559 13.746-3.746 3.75-13.559-13.746 3.746-3.75zm19.975 0 6.7812 6.873 6.7793 6.873-3.746 3.75-13.559-13.746 1.873-1.875 1.8711-1.875zm19.977 0 13.559 13.746-1.8711 1.875-1.873 1.875-6.7793-6.873-6.7812-6.873 3.746-3.75zm19.977 0 13.559 13.746-3.746 3.75-13.559-13.746 3.746-3.75zm19.977 0 13.559 13.746-3.746 3.75-13.559-13.746 3.746-3.75zm19.975 0 13.559 13.746-1.8711 1.875-1.873 1.875-13.559-13.746 1.8711-1.875 1.873-1.875zm19.977 0 13.559 13.746-3.746 3.75-13.559-13.746 3.746-3.75zm19.977 0 13.559 13.746-3.746 3.75-13.559-13.746 3.746-3.75zm-279.84 10 1.8867 1.8887 1.8867 1.8906-13.861 13.877-1.6738-2.0176-1.6738-2.0195 6.7168-6.8105 6.7188-6.8086zm19.975 0 1.8887 1.8887 1.8867 1.8906-13.861 13.877-1.6738-2.0176-1.6738-2.0195 6.7168-6.8105 6.7168-6.8086zm19.977 0 1.8867 1.8887 1.8867 1.8906-6.9297 6.9394-6.9316 6.9375-1.6738-2.0176-1.6719-2.0195 6.7168-6.8105 6.7168-6.8086zm19.977 0 1.8867 1.8887 1.8867 1.8906-6.9297 6.9394-6.9316 6.9375-1.6738-2.0176-1.6738-2.0195 6.7168-6.8105 6.7188-6.8086zm19.975 0 1.8887 1.8887 1.8867 1.8906-13.861 13.877-1.6738-2.0176-1.6738-2.0195 6.7168-6.8105 6.7168-6.8086zm19.977 0 1.8867 1.8887 1.8887 1.8906-6.9316 6.9394-6.9316 6.9375-1.6719-2.0176-1.6738-2.0195 6.7168-6.8105 6.7168-6.8086zm19.977 0 1.8867 1.8887 1.8867 1.8906-6.9297 6.9394-6.9316 6.9375-1.6738-2.0176-1.6738-2.0195 13.436-13.619zm19.975 0 1.8887 1.8887 1.8867 1.8906-13.861 13.877-1.6738-2.0176-1.6738-2.0195 6.7168-6.8105 6.7168-6.8086zm19.977 0 1.8867 1.8887 1.8887 1.8906-13.861 13.877-1.6738-2.0176-1.6738-2.0195 6.7168-6.8105 6.7168-6.8086zm19.977 0 1.8867 1.8887 1.8867 1.8906-6.9297 6.9394-6.9316 6.9375-1.6738-2.0176-1.6738-2.0195 13.436-13.619zm19.977 0 1.8867 1.8887 1.8867 1.8906-13.861 13.877-1.6738-2.0176-1.6738-2.0195 6.7168-6.8105 6.7188-6.8086zm19.975 0 1.8887 1.8887 1.8867 1.8906-13.861 13.877-1.6738-2.0176-1.6738-2.0195 6.7168-6.8105 6.7168-6.8086zm19.977 0 1.8867 1.8887 1.8867 1.8906-6.9297 6.9394-6.9316 6.9375-1.6738-2.0176-1.6719-2.0195 6.7168-6.8105 6.7168-6.8086zm19.977 0 1.8867 1.8887 1.8867 1.8906-6.9297 6.9394-6.9316 6.9375-1.6738-2.0176-1.6738-2.0195 6.7168-6.8105 6.7188-6.8086zm19.975 0 1.8887 1.8887 1.8867 1.8906-13.861 13.877-1.6738-2.0176-1.6738-2.0195 6.7168-6.8105 6.7168-6.8086zm-279.49 10 13.559 13.746-3.746 3.75-13.559-13.746 3.746-3.75zm19.977 0 13.559 13.746-3.746 3.75-13.559-13.746 3.746-3.75zm19.975 0 13.559 13.746-1.8711 1.875-1.873 1.875-13.559-13.746 1.8711-1.875 1.873-1.875zm19.977 0 13.559 13.746-3.746 3.75-13.559-13.746 3.746-3.75zm19.977 0 13.559 13.746-3.746 3.75-13.559-13.746 3.746-3.75zm19.975 0 6.7793 6.873 6.7812 6.873-3.746 3.75-13.559-13.746 1.8711-1.875 1.873-1.875zm19.977 0 13.559 13.746-1.873 1.875-1.8711 1.875-6.7812-6.873-6.7793-6.873 3.746-3.75zm19.977 0 13.559 13.746-3.746 3.75-13.559-13.746 3.746-3.75zm19.975 0 6.7812 6.873 6.7793 6.873-3.746 3.75-13.559-13.746 1.873-1.875 1.8711-1.875zm19.977 0 13.559 13.746-1.8711 1.875-1.873 1.875-6.7793-6.873-6.7812-6.873 3.746-3.75zm19.977 0 13.559 13.746-3.746 3.75-13.559-13.746 3.746-3.75zm19.977 0 13.559 13.746-3.746 3.75-13.559-13.746 3.746-3.75zm19.975 0 13.559 13.746-1.8711 1.875-1.873 1.875-13.559-13.746 1.8711-1.875 1.873-1.875zm19.977 0 13.559 13.746-3.746 3.75-13.559-13.746 3.746-3.75zm19.977 0 13.559 13.746-3.746 3.75-13.559-13.746 3.746-3.75zm-279.84 10 1.8867 1.8887 1.8867 1.8906-13.861 13.877-1.6738-2.0176-1.6738-2.0195 6.7168-6.8105 6.7188-6.8086zm19.975 0 1.8887 1.8887 1.8867 1.8906-13.861 13.877-1.6738-2.0176-1.6738-2.0195 6.7168-6.8105 6.7168-6.8086zm19.977 0 1.8867 1.8887 1.8867 1.8906-6.9297 6.9394-6.9316 6.9375-1.6738-2.0176-1.6719-2.0195 6.7168-6.8105 6.7168-6.8086zm19.977 0 1.8867 1.8887 1.8867 1.8906-6.9297 6.9394-6.9316 6.9375-1.6738-2.0176-1.6738-2.0195 6.7168-6.8105 6.7188-6.8086zm19.975 0 1.8887 1.8887 1.8867 1.8906-13.861 13.877-1.6738-2.0176-1.6738-2.0195 6.7168-6.8105 6.7168-6.8086zm19.977 0 1.8867 1.8887 1.8887 1.8906-6.9316 6.9394-6.9316 6.9375-1.6719-2.0176-1.6738-2.0195 6.7168-6.8105 6.7168-6.8086zm19.977 0 1.8867 1.8887 1.8867 1.8906-6.9297 6.9394-6.9316 6.9375-1.6738-2.0176-1.6738-2.0195 13.436-13.619zm19.975 0 1.8887 1.8887 1.8867 1.8906-13.861 13.877-1.6738-2.0176-1.6738-2.0195 6.7168-6.8105 6.7168-6.8086zm19.977 0 1.8867 1.8887 1.8887 1.8906-13.861 13.877-1.6738-2.0176-1.6738-2.0195 6.7168-6.8105 6.7168-6.8086zm19.977 0 1.8867 1.8887 1.8867 1.8906-6.9297 6.9394-6.9316 6.9375-1.6738-2.0176-1.6738-2.0195 13.436-13.619zm19.977 0 1.8867 1.8887 1.8867 1.8906-13.861 13.877-1.6738-2.0176-1.6738-2.0195 6.7168-6.8105 6.7188-6.8086zm19.975 0 1.8887 1.8887 1.8867 1.8906-13.861 13.877-1.6738-2.0176-1.6738-2.0195 6.7168-6.8105 6.7168-6.8086zm19.977 0 1.8867 1.8887 1.8867 1.8906-6.9297 6.9394-6.9316 6.9375-1.6738-2.0176-1.6719-2.0195 6.7168-6.8105 6.7168-6.8086zm19.977 0 1.8867 1.8887 1.8867 1.8906-6.9297 6.9394-6.9316 6.9375-1.6738-2.0176-1.6738-2.0195 6.7168-6.8105 6.7188-6.8086zm19.975 0 1.8887 1.8887 1.8867 1.8906-13.861 13.877-1.6738-2.0176-1.6738-2.0195 6.7168-6.8105 6.7168-6.8086zm-279.49 10 13.559 13.746-3.746 3.75-13.559-13.746 3.746-3.75zm19.977 0 13.559 13.746-3.746 3.75-13.559-13.746 3.746-3.75zm19.975 0 13.559 13.746-1.8711 1.875-1.873 1.875-13.559-13.746 1.8711-1.875 1.873-1.875zm19.977 0 13.559 13.746-3.746 3.75-13.559-13.746 3.746-3.75zm19.977 0 13.559 13.746-3.746 3.75-13.559-13.746 3.746-3.75zm19.975 0 6.7793 6.873 6.7812 6.873-3.746 3.75-13.559-13.746 1.8711-1.875 1.873-1.875zm19.977 0 13.559 13.746-1.873 1.875-1.8711 1.875-6.7812-6.873-6.7793-6.873 3.746-3.75zm19.977 0 13.559 13.746-3.746 3.75-13.559-13.746 3.746-3.75zm19.975 0 6.7812 6.873 6.7793 6.873-3.746 3.75-13.559-13.746 1.873-1.875 1.8711-1.875zm19.977 0 13.559 13.746-1.8711 1.875-1.873 1.875-6.7793-6.873-6.7812-6.873 3.746-3.75zm19.977 0 13.559 13.746-3.746 3.75-13.559-13.746 3.746-3.75zm19.977 0 13.559 13.746-3.746 3.75-13.559-13.746 3.746-3.75zm19.975 0 13.559 13.746-1.8711 1.875-1.873 1.875-13.559-13.746 1.8711-1.875 1.873-1.875zm19.977 0 13.559 13.746-3.746 3.75-13.559-13.746 3.746-3.75zm19.977 0 13.559 13.746-3.746 3.75-13.559-13.746 3.746-3.75zm19.377 17.982-2.7324 2.7363-6.7734 6.7793h9.5059v-0.55859l-3.1465-3.1895 1.873-1.875 1.2734-1.2754v-2.6172zm-320 8.5684v0.94726h0.93359l-0.93359-0.94726z"/> </g> </svg>