<?xml version='1.0' encoding='utf-8'?>
<svg xmlns="http://www.w3.org/2000/svg" data-name="Layer 1" viewBox="0 0 4e3 4e3"> <defs> <style>.cls-1{fill:#f36339;}.cls-2{fill:#2c586e;}.cls-3{fill:#4f9bb8;}.cls-4{fill:#feb21f;}</style> </defs> <path class="cls-1" d="m2782.6 357.36c80.76-4.43 595-15.32 643.76 8.54 17.34 8.49 22.91 18.47 28.8 36.17 27 81.07 24.06 443.27 13.71 539.37-3.27 30.36-10.73 61.86-26.21 88.48-13.2 22.71-28.18 35.25-54.49 40.85-108.08 23-201.22-91.25-283-147-106.51 89-203.82 192.91-301.38 291.59l-438.36 444.35c-78.87 79.69-157.33 170.85-244.9 240.9-22 17.57-43.83 30.57-71.91 35.44-119.07 20.7-312.91-252-416.27-323.58l-9.6-6.58c-74.47 58.81-140.62 133.39-207.5 200.84l-338.53 340.74c-66.42 68.78-174.71 209.58-273.71 225.45-34.89 5.59-70.14-9.56-98-29.63-29.78-21.45-52.41-54.38-56.27-91.42-4.33-41.48 12-67.65 36.26-99.62 93.09-122.51 290.08-299.08 406.09-415 134.5-134.36 310.55-330.47 452.13-443.88 20.07-16.08 40.33-26.17 66.12-28.66 117.56-11.36 314.65 253.52 411.86 328.17 2.48 1.91 5 3.75 7.53 5.63 103.64-122.54 220.12-234.46 333.11-348.23 99.12-99.8 195.45-202.22 294.19-302.36 70.41-71.41 153.13-142.56 215.88-220.28 8.21-10.18 12.74-18.94 14.79-32 5.15-32.64-114.26-118.64-140.05-152.52-21.3-27.93-38.66-62.68-32.51-98.73 7.3-42.86 34.41-63.89 68.46-87.03z"/> <path class="cls-2" d="M3418,3434.14a70.68,70.68,0,0,0,7.18,3.84c98.1,38.62,248.59-54.43,313.36,70.31,8.44,16.26,14.26,35.31,10.17,53.75-6,26.95-31.44,46.45-54.91,57.95-37.16,18.21-79.73,24.79-120.7,26.33-148.68,5.6-300-.58-448.89-.61l-946.57,0-1117,.32c-200.28.23-401.8,5.14-602-.06-32.79-.85-67.46-2.34-98.36-14.25-33.41-12.88-69.83-38.91-83.18-73.43-14.19-36.69-20-80.58-21.74-119.64-5.88-131.67-1-265.42-.95-397.31l.39-769.08c-.13-566.82-11-1135.59.43-1702.2.58-29-2.05-64.43,9.43-91.43,9.76-22.94,29.67-39.58,53.28-46.89,26.58-8.23,56.26-.28,78.43,15.27,38.24,26.83,54.39,71.69,60.26,116.32,11.77,89.42,1.14,191.21,1,282v620.95c.46,657.65,11.62,1317.41.26,1974.85,126.09,3.17,256.37,9.35,382.09,0,33.46.74,66.85,1.53,100.32,1.06,201.2,0,403.28-4,604.36.81q161.85,1.86,323.69-1.23c202.33-.78,407.15-7.65,609.29.19l127.41.59,209-1C2890,3441.38,3383.49,3452.55,3418,3434.14Z"/> <path class="cls-3" d="m3263.6 1422.6c43.44 4.5 103.91 3.65 136.08 37.56 15.08 15.9 15.93 39.52 17.31 60.3 14.25 214.12 2.12 436.37 2 651.59l-1 1262.1c-34.46 18.41-528 7.24-603.87 7.37l-1.22-1399.2c-0.26-99.62-14.69-482.43 3.71-548.12 5.13-18.31 25.73-40.68 37.42-55.6a11.73 11.73 0 0 0 2-0.07c132.19-27.11 272.81-8.52 407.57-15.97z"/> <path class="cls-1" d="m1868.4 3441.7c-4.41-289.28-1.43-579-1.52-868.35 0-96.79-13-285 4.44-370.59 3.63-17.72 12.56-31.12 29.34-39.21 34.65-16.67 470.92-15.91 520.39 0.74 34.54 11.63 42.64 37.55 56.79 68.12-5.23 402.34-6.28 807.15-0.15 1209.5-202.14-7.84-406.96-0.92-609.29-0.19z"/> <path class="cls-4" d="m940.3 3442.2-1.66-511c-0.36-91.84-7.22-189.54 1.71-280.8 3-31 9.33-73.86 30.19-98.56 40.37-47.8 351.16-33 423.2-29.93 35.53 1.53 94.68 6.93 120.16 35.32 20 22.33 26.18 57.58 30.14 86.34 12.2 88.75 4.71 187.42 4.55 277.25q0.54 261.07-3.93 522.14c-201.08-4.74-403.16-0.75-604.36-0.76z"/> </svg>