<?xml version='1.0' encoding='utf-8'?>
<svg xmlns="http://www.w3.org/2000/svg" viewBox="0 0 801.45 702.59"> <path d="m17.562 699.47c-11.38-5.165-15.824-11.378-17.244-24.11-1.0889-9.7651-0.26893-11.754 17.029-41.304 4.7862-8.176 9.424-16.117 10.306-17.647 3.9007-6.7628 13.006-22.316 14.776-25.241 1.0683-1.7646 2.4683-4.2913 3.111-5.6149s5.0026-8.7484 9.6885-16.5 8.5198-14.337 8.5198-14.634c0-1.0092 37.885-66.99 45.681-79.56 1.9156-3.0882 3.9669-6.6978 4.5586-8.0213s1.7859-3.4893 2.6539-4.8128c4.3083-6.5697 16.089-27.005 16.089-27.908 0-0.56754 1.8406-3.9476 4.0901-7.5111s12.321-20.833 22.38-38.376 20.131-34.813 22.38-38.376 4.0902-6.8291 4.0902-7.2568c0-0.63976 13.722-24.177 19.225-32.976 0.82769-1.3235 4.9525-8.5427 9.1662-16.043s8.5452-15.08 9.6255-16.845 2.4902-4.2914 3.1331-5.6149 4.2808-7.5512 8.0842-13.839 6.9153-11.918 6.9153-12.51 2.3959-4.8325 5.3242-9.4224 7.5017-12.316 10.163-17.169c10.029-18.287 20.642-36.115 21.807-36.631 0.66424-0.29412 1.2077-1.247 1.2077-2.1176s3.2486-6.9344 7.2192-13.475 7.2192-12.24 7.2192-12.665 3.9705-7.321 8.8234-15.324 8.8234-14.819 8.8234-15.146 3.6985-6.9796 8.2188-14.783 12.606-21.768 17.969-31.033 15.019-25.707 21.46-36.539 11.71-20.084 11.71-20.561 1.9567-3.4326 4.3483-6.5681c6.7172-8.8067 15.048-13.336 24.528-13.336 12.91 0 22.805 7.7084 31.919 24.866 1.8747 3.5294 4.1065 7.4999 4.9596 8.8234 2.8831 4.4732 18.655 31.265 19.832 33.689 0.64273 1.3235 2.0427 3.8502 3.111 5.6149s4.4691 7.54 7.5573 12.834 6.474 11.069 7.524 12.834 3.0022 5.3742 4.3382 8.0213 4.6184 8.4223 7.2942 12.834 5.3692 9.1042 5.9854 10.428c0.98075 2.1067 10.777 18.937 14.94 25.668 1.783 2.8827 12.443 21.406 19.388 33.689 2.7438 4.8529 7.0896 12.263 9.6573 16.468s4.6686 8.0702 4.6686 8.5908 2.1657 4.1554 4.8128 8.0776 4.8128 7.5584 4.8128 8.0806 2.8877 5.5217 6.4171 11.11 6.417 10.62 6.417 11.18 3.5345 6.8953 7.8545 14.077 9.2626 15.584 10.984 18.672c6.4557 11.584 21.876 38.155 29.457 50.757 4.3198 7.1813 7.8542 13.484 7.8542 14.006s2.41 4.7533 5.3555 9.4027 8.1074 13.507 11.471 19.683 7.6969 13.757 9.63 16.845 5.3288 8.8635 7.5461 12.834 9.6717 16.965 16.565 28.877 13.796 24.037 15.339 26.945 3.5186 6.1566 4.3905 7.2192 3.3254 5.1805 5.4522 9.1511c3.8462 7.1807 26.368 46.162 31.977 55.347 1.6165 2.647 3.434 5.8956 4.039 7.2192s2.6546 4.9331 4.5549 8.0213 6.233 10.668 9.6282 16.845 7.1675 13.035 8.3829 15.24 3.4327 5.9644 4.9273 8.3524c3.1104 4.9694 18.044 30.642 24.07 41.38 2.2284 3.9704 6.8622 11.816 10.297 17.434 12.756 20.863 8.7985 39.677-10.155 48.277-6.9878 3.1705-10.746 3.2017-383.26 3.2017-369.39 0-376.32-0.05638-383.08-3.124z"/> <path d="m717.65 641.05c0.47737-1.244-1.9445-6.8388-5.3819-12.433-5.4772-8.9137-14.334-24.22-24.862-42.967-1.7627-3.1388-7.3237-12.565-12.358-20.947-9.2798-15.452-11.821-19.894-26.154-45.721-4.4071-7.9411-9.2539-16.243-10.771-18.449s-7.0149-11.591-12.218-20.855-10.341-18.289-11.418-20.053-2.4803-4.2914-3.1194-5.6149-3.7824-6.7379-6.9851-12.032-6.3131-10.708-6.912-12.032-1.7949-3.4893-2.6577-4.8128c-3.5038-5.3747-14.876-24.863-30.893-52.94-9.3118-16.323-18.449-32.205-20.305-35.294s-3.8783-6.6978-4.494-8.0213-4.9534-8.7485-9.6393-16.5-8.5199-14.417-8.5199-14.811-2.7665-5.2422-6.1478-10.772-8.0541-13.474-10.384-17.654c-8.5261-15.294-43.555-76.096-49.227-85.448-3.2112-5.294-6.3427-10.708-6.9589-12.032s-3.2894-6.016-5.9405-10.428c-9.6855-16.118-25.24-43.293-32.653-57.052-4.3476-8.0682-8.093-11.884-10.316-10.509-0.79722 0.49272-5.3404 7.5935-10.096 15.78s-9.5209 16.328-10.59 18.092-2.4692 4.2914-3.1119 5.6149-4.8659 8.5426-9.3849 16.043-8.7092 14.719-9.3117 16.043-1.8015 3.4893-2.6643 4.8128c-3.4712 5.3245-14.494 24.163-14.494 24.771 0 0.35756-8.1471 14.603-18.105 31.656s-22.636 38.947-28.174 48.653-10.726 18.73-11.528 20.053c-7.8693 12.978-14.384 24.268-14.384 24.926 0 0.44317-1.71 3.5146-3.8 6.8254s-13.739 23.33-25.887 44.486-23.426 40.632-25.063 43.279-3.4767 5.8956-4.0888 7.2192-3.8669 6.9311-7.233 12.461-6.12 10.417-6.12 10.861-1.7196 3.5297-3.8213 6.859c-3.6613 5.7999-43.665 75.15-51.995 90.138-2.2067 3.9705-7.6181 13.355-12.025 20.855s-13.071 22.299-19.253 32.887-14.409 24.614-18.283 31.17-6.677 12.872-6.2298 14.037c1.2579 3.2782 632.7 3.1356 633.96-0.14304z" fill="#ffd63f"/> <path d="m385.61 530.3c-4.9113 0-8.8611 3.9498-8.8611 8.8611s3.9498 8.8612 8.8611 8.8612h0.04763c-2.7014 6.1766-4.5712 13.947-1.5006 21.534 8.2905 20.484 27.236 24.011 49.582 24.011h22.439c1.8303 3.6826 3.3632 7.5 3.4301 11.565 0.40393 25.178-8.6471 28.303-16.102 33.348h-3.1205c-2.6311 0-4.7522 2.1211-4.7522 4.7524s2.1211 4.7521 4.7522 4.7521h58.026c0.86239 0 1.6744-0.23258 2.3701-0.6312h4.5139v-117.05h-119.68z"/> <path d="m506.69 452.61h1.9344c3.3134 0 5.9809 2.6675 5.9809 5.9809v183.41c0 3.3133-2.6675 5.9806-5.9809 5.9806h-1.9344c-3.3134 0-5.9809-2.6673-5.9809-5.9806v-183.41c0-3.3134 2.6675-5.9809 5.9809-5.9809z"/> <path d="m337.4 511.09c11.243 0 20.294 7.6082 20.294 17.059v102.35c0 9.4507-9.0511 17.059-20.294 17.059s-20.294-7.6082-20.294-17.059v-102.35c0-9.4506 9.051-17.059 20.294-17.059z"/> <path d="m322.16 514.25c0-9.8006 7.89-17.691 17.691-17.691h106.14c9.8006 0 17.691 7.89 17.691 17.691s-7.89 17.691-17.691 17.691h-106.14c-9.8006 0-17.691-7.89-17.691-17.691z"/> <path d="m462.51 339.03c17.917 0 32.341 13.664 32.341 30.636v131.64c0 16.972-14.424 30.636-32.341 30.636s-32.342-13.664-32.342-30.636v-131.64c0-16.972 14.424-30.636 32.342-30.636z"/> <path d="m474.57 284.05c0 26.97-21.889 48.86-48.86 48.86s-48.86-21.889-48.86-48.86 21.889-48.86 48.86-48.86 48.86 21.889 48.86 48.86z"/> <path d="m261.88 368.87c-3.6063 0.9663-5.7432 4.6451-4.7769 8.2514l26.598 99.266c0.7618 2.843 3.2215 4.7594 5.991 4.9725 0.53904 5.7754 3.2947 10.146 6.6391 10.146l102.77 0.00455c3.7335 0 6.7512-5.4417 6.7512-12.209s-3.0173-12.216-6.7508-12.216l-102.77-0.0045c-0.38179 0-0.75533 0.0592-1.1194 0.16871l-25.085-93.619c-0.96628-3.6064-4.641-5.7279-8.2473-4.7616z"/> <path d="m464.31 346.6c7.1932 6.8352 7.2174 18.407 0.05437 25.945l-107.16 90.964c-7.1631 7.5382-18.721 8.104-25.914 1.2687s-7.2174-18.407-0.05431-25.945l107.16-90.964c7.1631-7.5382 18.721-8.104 25.914-1.2687z"/> <path d="m333.83 526.21c9.7365-5.6214 21.379-3.558 26.104 4.6264l51.176 88.64c4.7254 8.1846 0.69105 19.299-9.0455 24.92s-21.379 3.558-26.104-4.6266l-51.176-88.64c-4.7253-8.1844-0.69094-19.299 9.0456-24.92z"/> </svg>