<?xml version='1.0' encoding='utf-8'?>
<svg xmlns="http://www.w3.org/2000/svg" viewBox="0 0 298.42 354.51"> <g transform="matrix(.75091 0 0 .75162 -95.061 -95.949)" stroke="#000"> <path d="m441.44 334.28c68.955 59.445 91.392 147.02 50.648 198.11l5.4379 4.5474 0.33017-0.39483c46.153-55.191 24.195-149.61-49-211.14l-7.4162 8.8684z" fill="#999" stroke-width="4"/> <path transform="matrix(.97442 0 0 .61623 469.07 127.91)" d="m45.714 366.65a34.286 142.86 0 1 1-68.571 0 34.286 142.86 0 1 1 68.571 0z" fill="#ececec" stroke-width="5.162"/> <path transform="matrix(.4439 0 0 .61623 422.39 124.97)" d="m165.71 366.65a85.714 171.43 0 1 1-171.43 0 85.714 171.43 0 1 1 171.43 0z" fill="#b3b3b3" stroke-width="7.648"/> <path transform="matrix(1.2669 0 0 .99929 -34.198 .2597)" d="m398 356.87a9.0914 60.104 0 1 1-18.183 0 9.0914 60.104 0 1 1 18.183 0z" fill="#666" stroke-width="3.555"/> <path transform="matrix(.42877 0 0 .61744 161.01 129.99)" d="m165.71 366.65a85.714 171.43 0 1 1-171.43 0 85.714 171.43 0 1 1 171.43 0z" fill="#b3b3b3" stroke-width="6.9685"/> <path transform="matrix(.80697 0 0 .61623 165.1 130.18)" d="m36.199 365.42c0 78.898-5.8348 144.09-24.77 144.09s-54.743-65.188-54.743-144.09 35.808-141.63 54.743-141.63 24.77 62.731 24.77 141.63z" fill="#e6e6e6" stroke-width="5.6723"/> <path d="m320.93 129.57c-106.29 0-192.44 87.634-192.44 195.72 0 6.7663 1.465 16.226 2.124 22.815 3.745 9.0753 18.398 8.2188 19.267 0.25276-1.7397-106.53 57.42-194.47 174.48-206.02 77.857-7.6766 140.93 53.994 165.96 125.82 0.66295 0.77543 5.195 6.2862 5.8342 7.1787l0.0378 0.0312c2.1069 2.5509 4.0746 6.1535 5.8787 10.564 0.11074 0.27054 0.23201 0.5045 0.34135 0.7814 0.0788 0.18429 0.14931 0.37625 0.22756 0.5626 5.2325 12.46 8.9878 29.517 10.43 48.884 0.20317-3.5963 0.30343-7.2278 0.30343-10.877 7e-5 -108.09-86.154-195.72-192.44-195.72l3e-5 -2e-5z" fill="#666" stroke-width="3.7988"/> <path transform="matrix(1.0049 -.74751 .69568 .74235 -216.76 306.09)" d="m294.29 598.08a41.429 25.714 0 1 1-82.857 0 41.429 25.714 0 1 1 82.857 0z" fill="#333" stroke-width="3.555"/> </g> </svg>