<?xml version='1.0' encoding='utf-8'?>
<svg xmlns:xlink="http://www.w3.org/1999/xlink" xmlns="http://www.w3.org/2000/svg" viewBox="0 0 1600 1200"> <defs> <filter id="b" x="-.21" y="-.15" width="1.49" height="1.31" color-interpolation-filters="sRGB"> <feGaussianBlur stdDeviation="17.172463"/> </filter> </defs> <g id="a"> <path d="m-121.16 163.45v-229.86l199.06-114.93 199.06 114.93-1e-4 229.86-199.06 114.93-199.06-114.93z" fill="#f8f070" opacity=".99" stroke="#000" stroke-width="20"/> <path d="m213.49 51.532c0 82.205-62.498 148.84-139.59 148.84-77.096 0-139.59-66.64-139.59-148.84 0-82.205 62.498-148.84 139.59-148.84 77.096 0 139.59 66.64 139.59 148.84z" fill="#e8cc48" filter="url(#b)" opacity=".99"/> </g> <use width="744.09448" height="1052.3622" fill="#0000e8" stroke="#0000e8" xlink:href="#a"/> <use x="199.060272" y="344.782562" width="744.09448" height="1052.3622" fill="#0000e8" stroke="#0000e8" xlink:href="#a"/> <path d="m276.96 163.45v-229.86l199.06-114.93 199.06 114.93-1e-4 229.86-199.06 114.93-199.06-114.93z" fill="#f8f070" opacity=".99" stroke="#000" stroke-width="20"/> <path d="m611.62 51.532c0 82.205-62.498 148.84-139.59 148.84-77.096 0-139.59-66.64-139.59-148.84 0-82.205 62.498-148.84 139.59-148.84 77.096 0 139.59 66.64 139.59 148.84z" fill="#e8cc48" filter="url(#b)" opacity=".99"/> <use x="398.120575" y="0.000019" width="744.09448" height="1052.3622" fill="#0000e8" stroke="#0000e8" xlink:href="#a"/> <use x="597.180847" y="344.782562" width="744.09448" height="1052.3622" fill="#0000e8" stroke="#0000e8" xlink:href="#a"/> <use x="-0.00004" y="689.565063" width="744.09448" height="1052.3622" fill="#0000e8" stroke="#0000e8" xlink:href="#a"/> <use x="398.120544" y="689.565125" width="744.09448" height="1052.3622" fill="#0000e8" stroke="#0000e8" xlink:href="#a"/> <path d="m675.08 163.45v-229.86l199.06-114.93 199.06 114.93-1e-4 229.86-199.06 114.93-199.06-114.93z" fill="#f8f070" opacity=".99" stroke="#000" stroke-width="20"/> <path d="m1009.7 51.532c0 82.205-62.498 148.84-139.59 148.84-77.096 0-139.59-66.64-139.59-148.84 0-82.205 62.498-148.84 139.59-148.84 77.096 0 139.59 66.64 139.59 148.84z" fill="#e8cc48" filter="url(#b)" opacity=".99"/> <use x="796.24115" y="0.000038" width="744.09448" height="1052.3622" fill="#0000e8" stroke="#0000e8" xlink:href="#a"/> <use x="995.301453" y="344.782593" width="744.09448" height="1052.3622" fill="#0000e8" stroke="#0000e8" xlink:href="#a"/> <path d="m1073.2 163.45v-229.86l199.06-114.93 199.06 114.93v229.86l-199.06 114.93-199.06-114.93z" fill="#f8f070" opacity=".99" stroke="#000" stroke-width="20"/> <path d="m1407.9 51.532c0 82.205-62.498 148.84-139.59 148.84-77.096 0-139.59-66.64-139.59-148.84 0-82.205 62.498-148.84 139.59-148.84 77.096 0 139.59 66.64 139.59 148.84z" fill="#e8cc48" filter="url(#b)" opacity=".99"/> <use x="1194.361694" y="0.000057" width="744.09448" height="1052.3622" fill="#0000e8" stroke="#0000e8" xlink:href="#a"/> <use x="1393.421997" y="344.782623" width="744.09448" height="1052.3622" fill="#0000e8" stroke="#0000e8" xlink:href="#a"/> <use x="796.24115" y="689.565125" width="744.09448" height="1052.3622" fill="#0000e8" stroke="#0000e8" xlink:href="#a"/> <use x="1194.361694" y="689.565125" width="744.09448" height="1052.3622" fill="#0000e8" stroke="#0000e8" xlink:href="#a"/> <path d="m-320.22 1197.8v-229.86l199.06-114.93 199.06 114.93v229.86l-199.06 114.93-199.06-114.93z" fill="#f8f070" opacity=".99" stroke="#000" stroke-width="20"/> <path d="m14.435 1085.9c0 82.205-62.498 148.84-139.59 148.84-77.096 0-139.59-66.64-139.59-148.84 0-82.205 62.499-148.84 139.59-148.84 77.096 0 139.59 66.64 139.59 148.84z" fill="#e8cc48" filter="url(#b)" opacity=".99"/> <use x="-199.060349" y="1034.347656" width="744.09448" height="1052.3622" fill="#0000e8" stroke="#0000e8" xlink:href="#a"/> <path d="m77.9 1197.8v-229.86l199.06-114.93 199.06 114.93-1e-4 229.86-199.06 114.93-199.06-114.93z" fill="#f8f070" opacity=".99" stroke="#000" stroke-width="20"/> <path d="m412.56 1085.9c0 82.205-62.499 148.84-139.59 148.84-77.096 0-139.59-66.64-139.59-148.84 0-82.205 62.498-148.84 139.59-148.84 77.096 0 139.59 66.64 139.59 148.84z" fill="#e8cc48" filter="url(#b)" opacity=".99"/> <use x="199.060226" y="1034.347656" width="744.09448" height="1052.3622" fill="#0000e8" stroke="#0000e8" xlink:href="#a"/> <path d="m476.02 1197.8v-229.86l199.06-114.93 199.06 114.93-1e-4 229.86-199.06 114.93-199.06-114.93z" fill="#f8f070" opacity=".99" stroke="#000" stroke-width="20"/> <path d="m810.68 1085.9c0 82.205-62.498 148.84-139.59 148.84-77.096 0-139.59-66.64-139.59-148.84 0-82.205 62.498-148.84 139.59-148.84 77.096 0 139.59 66.64 139.59 148.84z" fill="#e8cc48" filter="url(#b)" opacity=".99"/> <use x="597.180786" y="1034.347656" width="744.09448" height="1052.3622" fill="#0000e8" stroke="#0000e8" xlink:href="#a"/> <path d="m874.14 1197.8v-229.86l199.06-114.93 199.06 114.93v229.86l-199.06 114.93-199.06-114.93z" fill="#f8f070" opacity=".99" stroke="#000" stroke-width="20"/> <path d="m1208.8 1085.9c0 82.205-62.498 148.84-139.59 148.84-77.096 0-139.59-66.64-139.59-148.84 0-82.205 62.498-148.84 139.59-148.84 77.096 0 139.59 66.64 139.59 148.84z" fill="#e8cc48" filter="url(#b)" opacity=".99"/> <use x="995.301331" y="1034.347656" width="744.09448" height="1052.3622" fill="#0000e8" stroke="#0000e8" xlink:href="#a"/> <use x="-199.060364" y="344.782501" width="744.09448" height="1052.3622" fill="#0000e8" stroke="#0000e8" xlink:href="#a"/> <use x="-398.120605" y="689.565063" width="744.09448" height="1052.3622" fill="#0000e8" stroke="#0000e8" xlink:href="#a"/> <use x="-0.000081" y="1379.130127" width="744.09448" height="1052.3622" fill="#0000e8" stroke="#0000e8" xlink:href="#a"/> <use x="398.120514" y="1379.130127" width="744.09448" height="1052.3622" fill="#0000e8" stroke="#0000e8" xlink:href="#a"/> <use x="796.241089" y="1379.130249" width="744.09448" height="1052.3622" fill="#0000e8" stroke="#0000e8" xlink:href="#a"/> <use x="1194.361694" y="1379.130249" width="744.09448" height="1052.3622" fill="#0000e8" stroke="#0000e8" xlink:href="#a"/> <path d="m77.9 1887.4v-229.86l199.06-114.93 199.06 114.93-1e-4 229.86-199.06 114.93-199.06-114.93z" fill="#f8f070" opacity=".99" stroke="#000" stroke-width="20"/> <path d="m412.56 1775.4c0 82.205-62.499 148.84-139.59 148.84-77.096 0-139.59-66.64-139.59-148.84 0-82.205 62.498-148.84 139.59-148.84 77.096 0 139.59 66.64 139.59 148.84z" fill="#e8cc48" filter="url(#b)" opacity=".99"/> <use x="199.060196" y="1723.912598" width="744.09448" height="1052.3622" fill="#0000e8" stroke="#0000e8" xlink:href="#a"/> <path d="m476.02 1887.4v-229.86l199.06-114.93 199.06 114.93-1e-4 229.86-199.06 114.93-199.06-114.93z" fill="#f8f070" opacity=".99" stroke="#000" stroke-width="20"/> <path d="m810.68 1775.4c0 82.205-62.498 148.84-139.59 148.84-77.096 0-139.59-66.64-139.59-148.84 0-82.205 62.498-148.84 139.59-148.84 77.096 0 139.59 66.64 139.59 148.84z" fill="#e8cc48" filter="url(#b)" opacity=".99"/> <use x="597.180786" y="1723.912598" width="744.09448" height="1052.3622" fill="#0000e8" stroke="#0000e8" xlink:href="#a"/> <path d="m874.14 1887.4v-229.86l199.06-114.93 199.06 114.93v229.86l-199.06 114.93-199.06-114.93z" fill="#f8f070" opacity=".99" stroke="#000" stroke-width="20"/> <path d="m1208.8 1775.4c0 82.205-62.498 148.84-139.59 148.84-77.096 0-139.59-66.64-139.59-148.84 0-82.205 62.498-148.84 139.59-148.84 77.096 0 139.59 66.64 139.59 148.84z" fill="#e8cc48" filter="url(#b)" opacity=".99"/> <use x="995.301331" y="1723.91272" width="744.09448" height="1052.3622" fill="#0000e8" stroke="#0000e8" xlink:href="#a"/> <use x="199.060318" y="-344.782532" width="744.09448" height="1052.3622" fill="#0000e8" stroke="#0000e8" xlink:href="#a"/> <use x="597.180908" y="-344.782501" width="744.09448" height="1052.3622" fill="#0000e8" stroke="#0000e8" xlink:href="#a"/> <use x="995.301453" y="-344.782501" width="744.09448" height="1052.3622" fill="#0000e8" stroke="#0000e8" xlink:href="#a"/> <use x="1393.421997" y="-344.782471" width="744.09448" height="1052.3622" fill="#0000e8" stroke="#0000e8" xlink:href="#a"/> <use x="1393.421997" y="1723.912842" width="744.09448" height="1052.3622" fill="#0000e8" stroke="#0000e8" xlink:href="#a"/> <path d="m1471.3 1542.6v-229.86l199.06-114.93 199.06 114.93v229.86l-199.06 114.93-199.06-114.93z" fill="#f8f070" opacity=".99" stroke="#000" stroke-width="20"/> <path d="m1806 1430.7c0 82.205-62.498 148.84-139.59 148.84-77.096 0-139.59-66.64-139.59-148.84 0-82.205 62.498-148.84 139.59-148.84 77.096 0 139.59 66.64 139.59 148.84z" fill="#e8cc48" filter="url(#b)" opacity=".99"/> <use x="1592.4823" y="1379.130249" width="744.09448" height="1052.3622" fill="#0000e8" stroke="#0000e8" xlink:href="#a"/> <use x="1393.421997" y="1034.347656" width="744.09448" height="1052.3622" fill="#0000e8" stroke="#0000e8" xlink:href="#a"/> <use x="1791.542603" y="1034.347656" width="744.09448" height="1052.3622" fill="#0000e8" stroke="#0000e8" xlink:href="#a"/> <use x="1592.4823" y="689.565186" width="744.09448" height="1052.3622" fill="#0000e8" stroke="#0000e8" xlink:href="#a"/> <use x="1592.4823" y="0.000079" width="744.09448" height="1052.3622" fill="#0000e8" stroke="#0000e8" xlink:href="#a"/> <use x="1791.54248" y="344.782623" width="744.09448" height="1052.3622" fill="#0000e8" stroke="#0000e8" xlink:href="#a"/> <use x="1990.602783" y="689.565186" width="744.09448" height="1052.3622" fill="#0000e8" stroke="#0000e8" xlink:href="#a"/> </svg>