<?xml version='1.0' encoding='utf-8'?>
<svg xmlns="http://www.w3.org/2000/svg" viewBox="0 0 639.07 605.13"> <defs> <filter id="d"> <feGaussianBlur stdDeviation="2.72183"/> </filter> <linearGradient id="a" x1="511.14" x2="556.59" y1="384.65" y2="550.32" gradientUnits="userSpaceOnUse"> <stop stop-color="#fefe8d" offset="0"/> <stop stop-color="#fefe8d" stop-opacity="0" offset="1"/> </linearGradient> <linearGradient id="c" x1="527.3" x2="530.33" y1="374.55" y2="543.25" gradientUnits="userSpaceOnUse"> <stop stop-color="#fff" offset="0"/> <stop stop-color="#fff" stop-opacity="0" offset="1"/> </linearGradient> <linearGradient id="b" x1="474.77" x2="470.73" y1="259.39" y2="375.56" gradientUnits="userSpaceOnUse"> <stop stop-color="#ae8e00" offset="0"/> <stop stop-color="#ae8e00" stop-opacity="0" offset="1"/> </linearGradient> </defs> <g transform="matrix(2.1318 0 0 2.1318 -791.85 -759.62)"> <path transform="matrix(1.0313 0 0 1.0144 45.679 91.18)" d="m600.03 438.19-96.356 10.9-45.647 85.555-40.142-88.272-95.473-16.975 71.547-65.455-13.359-96.046 84.36 47.818 87.217-42.385-19.409 95.008z" filter="url(#d)"/> <path transform="translate(60.609 94.954)" d="m600.03 438.19-96.356 10.9-45.647 85.555-40.142-88.272-95.473-16.975 71.547-65.455-13.359-96.046 84.36 47.818 87.217-42.385-19.409 95.008z" fill="#ae8e00"/> <path d="m458.56 458.41c-13.485 17.608-32.896 30.917-48.438 46.656l-18.25 16.75c29.781 5.3036 59.564 10.595 89.344 15.906 12.552 27.594 25.123 55.179 37.656 82.781l42.781-80.188 90.469-10.281c-21.028-21.836-42.034-43.694-63.125-65.469 6.0498-29.667 12.123-59.33 18.156-89-27.247 13.223-54.531 26.374-81.719 39.719-26.326-15.054-52.781-29.882-79.125-44.906l12.25 88.031z" fill="#755d00"/> <path d="m458.56 458.41c-13.485 17.608-32.896 30.917-48.438 46.656l-18.25 16.75c29.781 5.3036 59.564 10.595 89.344 15.906 12.552 27.594 25.123 55.179 37.656 82.781l42.781-80.188 90.469-10.281c-21.028-21.836-42.034-43.694-63.125-65.469 6.0498-29.667 12.123-59.33 18.156-89-27.247 13.223-54.531 26.374-81.719 39.719-26.326-15.054-52.781-29.882-79.125-44.906l12.25 88.031z" fill="url(#a)"/> <path d="m458.56 458.41c-13.485 17.608-32.896 30.917-48.438 46.656l-18.25 16.75c29.781 5.3036 59.564 10.595 89.344 15.906 12.552 27.594 25.123 55.179 37.656 82.781l42.781-80.188 90.469-10.281c-21.028-21.836-42.034-43.694-63.125-65.469 6.0498-29.667 12.123-59.33 18.156-89-27.247 13.223-54.531 26.374-81.719 39.719-26.326-15.054-52.781-29.882-79.125-44.906l12.25 88.031z" fill="url(#a)"/> <path d="m450.44 378c3.6291 26.275 7.2949 52.544 10.969 78.812-6.113 15.059-20.785 23.4-31.75 34.438 57.357 25.942 125.27 25.9 183.53 2.7812-8.0969-11.266-22.194-17.901-26.719-31.625 5.3806-27.178 10.991-54.31 16.469-81.469-25.859 12.636-51.798 25.109-77.594 37.875-24.99-14.398-50.122-28.547-75.188-42.812l0.28125 2z" fill="url(#c)"/> <path transform="translate(60.609 94.954)" d="m600.03 438.19-96.356 10.9-45.647 85.555-40.142-88.272-95.473-16.975 71.547-65.455-13.359-96.046 84.36 47.818 87.217-42.385-19.409 95.008z" fill="url(#b)"/> </g> </svg>