<svg width="116" height="21" viewBox="0 0 116 21" fill="none" xmlns="http://www.w3.org/2000/svg">
<path d="M1.58604 14.0532C1.70368 14.1355 1.95072 14.2531 2.32716 14.4061C2.71537 14.5472 3.16827 14.6178 3.68588 14.6178C4.09762 14.6178 4.43288 14.5472 4.69169 14.4061C4.96226 14.2649 5.16224 14.0532 5.29164 13.7708C5.43281 13.4767 5.52692 13.1003 5.57397 12.6415C5.62103 12.171 5.64456 11.6063 5.64456 10.9475V4.47153H8.53846V10.8416C8.53846 11.7827 8.48552 12.6415 8.37965 13.4179C8.27377 14.1943 8.05614 14.8707 7.72675 15.4472C7.40913 16.0118 6.92681 16.4471 6.2798 16.753C5.63279 17.0471 4.76815 17.1941 3.68588 17.1941C3.13298 17.1941 2.63302 17.1294 2.18599 17C1.73897 16.8706 1.32724 16.6765 0.950794 16.4177L1.58604 14.0532ZM10.3441 13.665V7.73599H13.1674V13.0474C13.1674 13.612 13.2792 14.0473 13.5027 14.3531C13.7262 14.6472 14.0438 14.7943 14.4556 14.7943C14.7144 14.7943 14.9614 14.7531 15.1967 14.6708C15.432 14.5767 15.6614 14.4296 15.8849 14.2296C16.1084 14.0296 16.3084 13.7708 16.4848 13.4532V7.73599H19.3081V13.8591C19.3081 14.1414 19.3493 14.3414 19.4317 14.459C19.5258 14.5649 19.6846 14.6296 19.9081 14.6531V17C19.6493 17.0471 19.4199 17.0823 19.2199 17.1059C19.0317 17.1294 18.8611 17.1412 18.7082 17.1412C18.2141 17.1412 17.82 17.0412 17.5259 16.8412C17.2318 16.6294 17.0495 16.3353 16.9789 15.9589L16.926 15.3942C16.5025 16.006 15.9731 16.4589 15.3379 16.753C14.7144 17.0353 14.0144 17.1765 13.238 17.1765C12.2969 17.1765 11.5793 16.8765 11.0852 16.2765C10.5912 15.6766 10.3441 14.806 10.3441 13.665ZM20.9131 14.2296C20.9131 13.6179 21.0837 13.0826 21.4248 12.6239C21.766 12.1651 22.2365 11.8063 22.8365 11.5475C23.4364 11.2769 24.1246 11.1416 24.901 11.1416C25.2775 11.1416 25.648 11.1769 26.0127 11.2475C26.3774 11.3063 26.695 11.3945 26.9656 11.5122V11.1063C26.9656 10.6005 26.8126 10.2123 26.5068 9.94171C26.2009 9.67114 25.7362 9.53586 25.1128 9.53586C24.5952 9.53586 24.107 9.62409 23.6482 9.80054C23.2011 9.977 22.7247 10.2299 22.2189 10.5593L21.3719 8.75944C21.9836 8.35947 22.6188 8.0595 23.2776 7.85951C23.9481 7.65953 24.654 7.55953 25.3951 7.55953C26.7832 7.55953 27.8596 7.8948 28.6243 8.56534C29.4007 9.22412 29.7889 10.1829 29.7889 11.4416V13.8591C29.7889 14.1414 29.8301 14.3414 29.9124 14.459C30.0065 14.5649 30.1653 14.6296 30.3888 14.6531V17C30.1536 17.0471 29.93 17.0823 29.7183 17.1059C29.5183 17.1294 29.3419 17.1412 29.1889 17.1412C28.6596 17.1412 28.2537 17.0353 27.9714 16.8235C27.7008 16.6118 27.5302 16.3236 27.4596 15.9589L27.4067 15.5531C26.995 16.0824 26.5009 16.4883 25.9245 16.7706C25.3598 17.0412 24.7657 17.1765 24.1422 17.1765C23.5305 17.1765 22.9776 17.0471 22.4835 16.7883C22.0012 16.5294 21.6189 16.1765 21.3366 15.7295C21.0542 15.2825 20.9131 14.7825 20.9131 14.2296ZM26.5244 14.5825C26.6538 14.4767 26.7597 14.359 26.842 14.2296C26.9244 14.1002 26.9656 13.9767 26.9656 13.8591V13.0297C26.7303 12.9356 26.4656 12.865 26.1715 12.818C25.8892 12.7591 25.6245 12.7297 25.3774 12.7297C24.8598 12.7297 24.4305 12.8474 24.0893 13.0826C23.7482 13.3062 23.5776 13.6061 23.5776 13.9826C23.5776 14.1943 23.6364 14.3884 23.754 14.5649C23.8717 14.7413 24.0305 14.8825 24.2305 14.9884C24.4422 15.0943 24.6893 15.1472 24.9716 15.1472C25.2539 15.1472 25.5363 15.0943 25.8186 14.9884C26.1009 14.8825 26.3362 14.7472 26.5244 14.5825ZM40.7634 17H37.9401V11.7945C37.9401 11.1828 37.8225 10.7416 37.5872 10.4711C37.3637 10.1887 37.0637 10.0476 36.6873 10.0476C36.4285 10.0476 36.1638 10.1182 35.8932 10.2593C35.6226 10.4005 35.3756 10.5946 35.1521 10.8416C34.9403 11.0887 34.7756 11.371 34.658 11.6886V17H31.8347V7.73599H34.3757V9.28882C34.6109 8.92414 34.905 8.6124 35.258 8.35359C35.6109 8.09479 36.0167 7.90069 36.4755 7.77128C36.9343 7.63012 37.4343 7.55953 37.9754 7.55953C38.5753 7.55953 39.0577 7.67129 39.4223 7.8948C39.7988 8.10655 40.0811 8.38888 40.2693 8.7418C40.4693 9.09471 40.5987 9.47704 40.6575 9.88877C40.7281 10.2887 40.7634 10.6828 40.7634 11.071V17ZM52.6813 17V9.53586L49.9815 14.9707H48.3934L45.6936 9.53586V17H42.7997V4.47153H45.9406L49.1875 11.0181L52.4519 4.47153H55.5752V17H52.6813ZM57.0489 14.2296C57.0489 13.6179 57.2195 13.0826 57.5606 12.6239C57.9018 12.1651 58.3723 11.8063 58.9723 11.5475C59.5723 11.2769 60.2604 11.1416 61.0368 11.1416C61.4133 11.1416 61.7838 11.1769 62.1485 11.2475C62.5132 11.3063 62.8308 11.3945 63.1014 11.5122V11.1063C63.1014 10.6005 62.9485 10.2123 62.6426 9.94171C62.3367 9.67114 61.8721 9.53586 61.2486 9.53586C60.731 9.53586 60.2428 9.62409 59.784 9.80054C59.337 9.977 58.8605 10.2299 58.3547 10.5593L57.5077 8.75944C58.1194 8.35947 58.7547 8.0595 59.4134 7.85951C60.084 7.65953 60.7898 7.55953 61.5309 7.55953C62.9191 7.55953 63.9954 7.8948 64.7601 8.56534C65.5365 9.22412 65.9247 10.1829 65.9247 11.4416V13.8591C65.9247 14.1414 65.9659 14.3414 66.0482 14.459C66.1423 14.5649 66.3012 14.6296 66.5247 14.6531V17C66.2894 17.0471 66.0659 17.0823 65.8541 17.1059C65.6541 17.1294 65.4777 17.1412 65.3248 17.1412C64.7954 17.1412 64.3895 17.0353 64.1072 16.8235C63.8366 16.6118 63.6661 16.3236 63.5955 15.9589L63.5425 15.5531C63.1308 16.0824 62.6367 16.4883 62.0603 16.7706C61.4956 17.0412 60.9016 17.1765 60.2781 17.1765C59.6664 17.1765 59.1135 17.0471 58.6194 16.7883C58.1371 16.5294 57.7547 16.1765 57.4724 15.7295C57.1901 15.2825 57.0489 14.7825 57.0489 14.2296ZM62.6603 14.5825C62.7897 14.4767 62.8955 14.359 62.9779 14.2296C63.0602 14.1002 63.1014 13.9767 63.1014 13.8591V13.0297C62.8661 12.9356 62.6014 12.865 62.3073 12.818C62.025 12.7591 61.7603 12.7297 61.5133 12.7297C60.9957 12.7297 60.5663 12.8474 60.2251 13.0826C59.884 13.3062 59.7134 13.6061 59.7134 13.9826C59.7134 14.1943 59.7722 14.3884 59.8899 14.5649C60.0075 14.7413 60.1663 14.8825 60.3663 14.9884C60.5781 15.0943 60.8251 15.1472 61.1074 15.1472C61.3898 15.1472 61.6721 15.0943 61.9544 14.9884C62.2368 14.8825 62.472 14.7472 62.6603 14.5825Z" fill="white"/>
<path d="M73.6785 17V4.47153H78.9016C79.4545 4.47153 79.9604 4.58917 80.4192 4.82445C80.878 5.04796 81.2779 5.35382 81.6191 5.74202C81.9602 6.11847 82.2249 6.54785 82.4131 7.03016C82.6014 7.50072 82.6955 7.98303 82.6955 8.47711C82.6955 9.15941 82.5425 9.81231 82.2367 10.4358C81.9308 11.0475 81.5015 11.5475 80.9486 11.9357C80.3957 12.3121 79.7486 12.5003 79.0075 12.5003H75.2666V17H73.6785ZM75.2666 11.0887H78.9193C79.3546 11.0887 79.731 10.971 80.0486 10.7358C80.378 10.5005 80.6309 10.1829 80.8074 9.7829C80.9956 9.38293 81.0897 8.94767 81.0897 8.47711C81.0897 7.98303 80.9838 7.54189 80.7721 7.15368C80.5603 6.75371 80.2839 6.44197 79.9427 6.21846C79.6016 5.99495 79.2252 5.88319 78.8134 5.88319H75.2666V11.0887ZM83.5987 14.3355C83.5987 13.7473 83.7634 13.2415 84.0928 12.818C84.4339 12.3827 84.8986 12.0474 85.4868 11.8122C86.075 11.5769 86.7573 11.4592 87.5337 11.4592C87.9454 11.4592 88.3807 11.4945 88.8395 11.5651C89.2983 11.6239 89.7041 11.718 90.0571 11.8474V11.1769C90.0571 10.4711 89.8453 9.91818 89.4218 9.51821C88.9983 9.10648 88.3984 8.90061 87.6219 8.90061C87.1161 8.90061 86.6279 8.99472 86.1573 9.18294C85.6986 9.3594 85.2104 9.6182 84.6928 9.95935L84.1281 8.86532C84.728 8.45358 85.328 8.14773 85.928 7.94774C86.5279 7.73599 87.1514 7.63012 87.7984 7.63012C88.9748 7.63012 89.9041 7.9595 90.5864 8.61828C91.2687 9.26529 91.6099 10.1711 91.6099 11.3357V15.2354C91.6099 15.4236 91.6452 15.5648 91.7158 15.6589C91.7981 15.7413 91.9275 15.7883 92.104 15.8001V17C91.951 17.0235 91.8157 17.0412 91.6981 17.0529C91.5922 17.0647 91.504 17.0706 91.4334 17.0706C91.0687 17.0706 90.7923 16.9706 90.6041 16.7706C90.4276 16.5706 90.3276 16.3589 90.3041 16.1354L90.2688 15.5531C89.8688 16.0707 89.3453 16.4706 88.6983 16.753C88.0513 17.0353 87.4102 17.1765 86.7749 17.1765C86.1632 17.1765 85.6162 17.0529 85.1339 16.8059C84.6516 16.5471 84.2751 16.2059 84.0046 15.7824C83.734 15.3472 83.5987 14.8649 83.5987 14.3355ZM89.5983 14.9884C89.7394 14.8237 89.8512 14.659 89.9335 14.4943C90.0159 14.3178 90.0571 14.1708 90.0571 14.0532V12.9062C89.6924 12.765 89.3101 12.6592 88.9101 12.5886C88.5101 12.5062 88.116 12.465 87.7278 12.465C86.9396 12.465 86.2985 12.6239 85.8044 12.9415C85.3221 13.2473 85.081 13.6708 85.081 14.212C85.081 14.5061 85.1574 14.7943 85.3104 15.0766C85.475 15.3472 85.7103 15.5707 86.0162 15.7472C86.3338 15.9236 86.722 16.0118 87.1808 16.0118C87.6631 16.0118 88.1219 15.9177 88.5572 15.7295C88.9924 15.5295 89.3395 15.2825 89.5983 14.9884ZM98.963 9.14765C98.1866 9.15941 97.4985 9.3594 96.8985 9.74761C96.3103 10.124 95.8927 10.6475 95.6457 11.3181V17H94.0928V7.78893H95.5398V9.92406C95.8574 9.28882 96.275 8.77709 96.7926 8.38888C97.322 7.98891 97.8749 7.7654 98.4513 7.71835C98.569 7.71835 98.669 7.71835 98.7513 7.71835C98.8336 7.71835 98.9042 7.72423 98.963 7.73599V9.14765ZM100.503 17V7.78893H102.056V17H100.503ZM100.503 6.05965V4.11862H102.056V6.05965H100.503ZM107.729 17.1765C106.964 17.1765 106.246 17.0529 105.576 16.8059C104.905 16.5471 104.329 16.1648 103.847 15.6589L104.446 14.5649C104.976 15.059 105.505 15.4119 106.035 15.6236C106.564 15.8354 107.105 15.9413 107.658 15.9413C108.293 15.9413 108.811 15.8236 109.211 15.5883C109.611 15.3413 109.811 14.9825 109.811 14.512C109.811 14.1708 109.705 13.9179 109.493 13.7532C109.293 13.5885 109.005 13.4532 108.628 13.3473C108.252 13.2297 107.805 13.1003 107.287 12.9591C106.652 12.7709 106.117 12.5709 105.682 12.3592C105.246 12.1474 104.917 11.8827 104.693 11.5651C104.47 11.2475 104.358 10.8475 104.358 10.3652C104.358 9.77701 104.511 9.28293 104.817 8.88296C105.123 8.47123 105.54 8.15949 106.07 7.94774C106.611 7.73599 107.223 7.63012 107.905 7.63012C108.587 7.63012 109.205 7.73599 109.758 7.94774C110.311 8.15949 110.787 8.47123 111.187 8.88296L110.481 9.95935C110.117 9.58291 109.717 9.30646 109.281 9.13C108.846 8.94178 108.358 8.84767 107.817 8.84767C107.499 8.84767 107.187 8.88885 106.882 8.97119C106.576 9.04178 106.323 9.17706 106.123 9.37704C105.923 9.56527 105.823 9.83583 105.823 10.1887C105.823 10.4828 105.899 10.7181 106.052 10.8946C106.217 11.0593 106.452 11.2004 106.758 11.3181C107.076 11.4357 107.458 11.5651 107.905 11.7063C108.599 11.9063 109.199 12.1063 109.705 12.3062C110.222 12.5062 110.622 12.765 110.905 13.0826C111.187 13.4003 111.328 13.8414 111.328 14.4061C111.328 15.2766 110.999 15.9589 110.34 16.453C109.681 16.9353 108.811 17.1765 107.729 17.1765ZM113.186 17V7.78893H114.739V17H113.186ZM113.186 6.05965V4.11862H114.739V6.05965H113.186Z" fill="white"/>
</svg>
