<?xml version='1.0' encoding='utf-8'?>
<svg xmlns="http://www.w3.org/2000/svg" enable-background="new 0 0 3000 3000" version="1.1" viewBox="0 0 3e3 3e3"> <style type="text/css">.st0{fill:#662D91;}</style> <path class="st0" d="m2977.5 2005.2v10.3c-5.8 9.3-14.6 12.2-24.8 11-8-1-16-2.9-23.7-5.2-16.5-4.9-33.8-5.1-50.2-9.8-0.8-0.2-1.7-0.1-2.6-0.3-11.4-1.9-22.7-3.7-34.1-5.6-13.7-2.3-27.4-4.8-41.1-6.9-5.3-0.8-10.9 0-15.9-1.5-6.3-1.9-12.5-2.5-18.9-3-5.2-0.4-10.7-0.3-15.4-3.5-1.3-0.9-3.3-0.9-4.9-1-24.9-2.7-49.8-5.4-74.7-8.1-1.7-0.2-3.4-1.2-5-1.7 0.8-4.1 3.8-4.7 6-6.2 4.5-3 4.5-7.1-0.5-9.2-3.7-1.5-7.8-2.1-11.7-2.9-6.9-1.5-12.9 2-19.3 3.6-6.1 1.5-7.1 4.7-3.9 10.4 0.3 0.5 0.4 1.1 0.8 2.1-3.1 0-5.9-0.1-8.6 0-9.4 0.4-12.1 3.1-12 12.4 0 1.5 0.4 3.1-0.1 4.5-0.9 2.8-1.5 6-3.3 8.1-3 3.4-3.2 6.8-2.3 10.7 1.7 7.5 5.8 13.5 12.4 17.2 5.5 3.2 11.5 5.7 17.5 8 14.5 5.7 29.2 11 43.8 16.7 8.5 3.3 16 8.3 22.4 14.7 7.8 7.8 9 18.4 3 27.5-2.2 3.3-5.3 6.1-8.3 8.8-3 2.8-6.8 3.7-10.8 2.7-5.5-1.4-10.6-0.2-15.7 1.8-6.3 2.6-12.5 4.9-19.5 5.6-14.7 1.3-29.3 3.3-44 4.9-5.5 0.6-11.1 0.4-16.7 0.9-6.2 0.6-7.4 1.6-8.2 7.7-1 7.6-4.8 13-11.5 16.8-10.6 6.1-20.3 13.3-29 22.1-5 5.1-11.9 8.2-19.8 6.5-4-0.8-8-1.5-12-1.9-28-2.8-55.9-3.3-84-1.3-1.3 0.1-2.6 0-3.8-0.1-3.6-0.2-7.2-0.3-10.8-0.5-1.4-0.1-2.8-0.3-4.5-0.5 0.3-3.2 0.8-6 0.9-8.7 0.2-4.5-1-6.2-5.5-7.2-2.9-0.6-5.9-0.8-8.9-1.1-8.3-0.7-16.6-1.3-25-2.1-26.9-2.5-53.6-5.9-80.7-5.7-3.4 0-6.9-0.6-10.1-1.6-4.9-1.7-7.4-5.6-7.8-10.7-0.3-3.2 1.1-5.2 4.1-6.4 11.5-4.6 23-9.3 34.4-14.1 5.4-2.3 5.9-7.4 1.1-10.9-2.6-1.9-5.5-3.2-8.2-5-3.5-2.4-7.4-3.5-11.5-3.2-5.2 0.4-9.8-0.5-13.3-4.8-4.2 4.2-9.3 3.2-14.1 2.6-16.9-2.2-33.8-1.1-50.6 1-15.3 1.8-30.6 4.2-45.9 5.4-28 2.2-56 3.7-84 5.6-13.2 0.9-26.5 2.3-39.7 3.5-1.3 0.1-2.6 0.7-4.1 1.2 9.2 7.5 17.9 14.8 26.7 21.8 6.4 5.1 12.8 10.1 19.4 14.8 3.1 2.2 6.8 3.4 6.8 8.3 0 1.4 1.8 2.8 2.8 4.2 2.4 3.3 5.1 6.4 7.1 9.8 2.3 4 5.6 6.1 9.8 6.1 3.6 0 7.4-0.4 10.6-1.7 34.2-13.4 69.8-22 105.8-28.8 2.5-0.5 5.1-0.9 7.6-0.8 1.1 0.1 2.4 1.5 3 2.6 0.3 0.5-0.9 2.2-1.7 2.8-3.1 1.8-6.2 3.7-9.6 5-30.5 12.6-62.1 21.9-93.5 31.9-4.4 1.4-8.7 2.9-13.3 4.5 1.9 3.6 3.4 6.4 5 9.2 1.3 2.4 3.1 3.6 6.1 3.9 6.9 0.7 13.4-0.3 20.1-2.4 10.1-3.2 20.7-5 31.1-7.3 2.1-0.5 4.2-0.6 6.3-0.9 11.4-1.6 22.9-3.1 34.3-4.8 8.1-1.2 16.1-2.6 24.3-2.1-7.7 2.6-15.4 5-23.4 6.5-20.8 4.1-41.7 7.7-62.5 11.7-7.9 1.5-15.8 3.3-23.7 5-0.1 0.5-0.2 1-0.2 1.5 2.8 1.4 5.6 2.8 8.4 4.3 4.6 2.4 9 5 11.9 9.5 0.9 1.4 1.9 2.8 3.2 3.9 2.4 2.1 3.6 4.5 3.8 7.8 0.1 2.6-0.3 5.6 2.8 7.6 1.8-1.6 3.5-3.2 5.3-4.6 3.1-2.3 6.3-1.1 9 0.8 1.2 0.8 2.2 2.7 2.2 4.1-0.1 4.2-7.6 12.8-11.8 14.1-4.7 1.4-9.8 2-14 4.3-5.8 3.2-11.7 4.1-18 3.3-16.2-2.1-31.9-6.2-47.4-11.2-6.9-2.2-10.8-7.1-10.8-14.3 0-4.4 1.3-8.8 2.3-13.1 0.3-1.3 1.3-2.8 2.4-3.7 6.9-5 13.8-10.2 23-10.2 4.1 0 8.2-1 12.8-1.6-2.1-7.1-3.5-13.6-8.9-18.6-7.4 3.3-14.8 6.6-22.2 10-2.6 1.2-3.7 3.2-2.9 6.3 1.6 6.3 1.5 6.6-4.3 8.1-13.2 3.5-26.5 6.8-39.8 10.1-8.9 2.2-18.1 2.6-26.8 6-7.4 2.9-15.3 0.9-22.5-2-4.9-2-7.3-6.4-6.1-10.7 1.4-5 4.4-9.1 9.3-10.8 12.7-4.3 25.6-8.3 38.5-12.2 15.4-4.6 30.8-8.9 46.3-13.2 3.3-0.9 6.7-1.4 9.9-2.5 5.5-1.9 6.2-4.8 2.2-8.9-5.5-5.7-11.4-11-17-16.6-4.4-4.3-9.1-5-14.7-2.4-12.1 5.5-24.3 10.8-36.4 16.1-8 3.5-14.9 8.4-21.2 14.3-2.8 2.6-5.7 5.3-8.8 7.5-4.4 3.1-7.1 2.7-10.6-1.2-3.8-4.1-4.2-7.4-0.4-11.3 2.6-2.7 5.9-5 9.1-7 9.3-5.9 19.5-9.8 30.1-12.7 11.5-3.2 23.2-6 34.8-8.9 2.5-0.6 4.8-1.8 4.8-4.4 0-1.5-1.5-3.4-2.8-4.5-8.8-6.8-17.6-13.5-26.6-20-5.3-3.9-11-7.2-16.2-11.3-5.6-4.4-11.7-5.8-18.6-5.1-14.7 1.4-29.4 2.6-44.1 3.7-16.7 1.2-33.4 2-50 3.6-16.4 1.6-32.8 2.5-49.4 1.4-10-0.7-20.1-0.4-30.1 0.7-23 2.4-45.9 5.5-68.8 8.5-18.3 2.4-36.5 4.7-54.7 7.5-15 2.3-29.9 5.6-44.9 7.9-26.5 4.1-52.8 8.8-78.3 17.1-14.7 4.8-29.3 9.6-44 14.1-10.9 3.3-22 3.7-33 0.7-2.9-0.8-5.6-2.9-8.1-4.8-2.2-1.7-2.3-4.1-0.4-6.2 1.4-1.6 3.2-2.9 4.5-4.5 0.7-0.8 0.9-2.1 1.8-4-2.8 0.4-4.6 0.7-7.1 1.1 4.7-6.8 10.6-9.8 18.3-9.5 29.9 1.5 58.7-4.7 87.3-12.8 40.9-11.7 81.2-25.7 123.2-33.8 4-0.8 8.1-2.9 11.5-5.4 3.1-2.3 6.3-3.4 9.9-4.1 16.6-3 33.3-6 49.9-9 15.2-2.7 30.3-5.6 45.5-8.2 1.7-0.3 4.5-0.3 5.3 0.7 3.4 4.4 7.8 3.8 12.3 3.4 27.5-2.9 55-4.9 82.7-4.5 3.6 0.1 7.2-0.6 10.6-0.9 0.9-3.3 2.9-6.4-0.4-8.7-4.9-3.4-9.7-7-16.2-7-14.6 0.1-29.1 0.2-43.2 4.7-2.4 0.8-5.9 0.8-8-0.4-3.1-1.7-6-1.6-9.2-1.3-8.9 1.1-17.9 2-26.8 3.1-2.9 0.3-5.2 0-7.5-2.4-1.7-1.8-4.7-3.4-7.2-3.6-12.8-0.8-25.7-1.5-38.5-1.5-34.1 0-68.1 1.6-102 4.2-13.4 1-26.9 1.7-40.3 3.1-27.9 3-55.7 6.3-83.6 9.6-15.5 1.9-31 3.7-46.5 6.1-16.5 2.6-32.8 6.1-49.3 8.6-15.2 2.2-30.5 3.6-45.6 7-38.6 8.7-77.3 16.9-116 25.4-6.7 1.5-13.1 1.3-19.3-2-4.7-2.5-9.7-3.2-15-2.5-12.6 1.7-25.2 0.9-37.7-1.3-2.9-0.5-5.8-1.6-8.2-3.1-4.6-2.8-9.4-4-14.7-3.2-19.5 2.9-39 5.8-58.4 8.8-7.6 1.2-15 3-22.2 6.2-8.5 3.9-17.3 7.6-26.2 10.3-20.1 5.9-40.4 11.3-60.7 16.7-24.9 6.6-47.2 18-65.9 35.8-6.3 6.1-12.2 12.7-18.2 19-1.5 1.6-3.2 3.1-5 4.8-2.8-4.3-1.5-7.5 0.7-10.2 4.3-5.4 8.4-11 13.5-15.4 8.5-7.4 17.7-14.3 26.8-20.9 9.2-6.7 19.4-11.7 30.4-15.1 1.2-0.4 2.7-0.6 3.5-1.5 1-1.1 2.4-3.2 2-4.2-0.6-1.4-2.6-2.5-4.2-3.2-1-0.4-2.5 0.4-3.7 0.7-5.6 1.4-11.1 3.2-16.8 4.1-21.9 3.4-43.1 9.3-62.8 19.8-6.6 3.5-14.1 4.6-21.3 2.8-5.5-1.3-10.9-3.9-15.8-6.7-6.6-3.8-13.3-5.6-20.9-4.1-9.6 2-19.2 3.9-28.8 5.8-19.3 3.8-38.6 7.6-58 11.1-3.7 0.7-7.6 0.1-11.5 0-5.5 0-11.2-0.9-16.5 0.1-8.6 1.6-17 4.3-25.4 6.8-28.6 8.4-57.2 16.5-84 29.8-7.9 3.9-15.5 9-22.4 14.6-9.9 7.9-21.1 4.7-24-7.8-1.3-5.5-2.6-6.8-8.3-6.6-13 0.6-26.2 0.1-39 3.4-16 4.2-32.2 6.8-48.6 8.4-12.1 1.2-24.1 3.8-36.3 4.9-6.7 0.6-13.7 0-20.4-1-5.8-0.9-10.6-4.5-11.7-10.5-1.1-6.1-0.8-12.4 4.6-17.1 3.1-2.7 5.9-5.6 8.6-8.6 7.2-8.2 15.7-14.5 25.4-19.3 6.5-3.2 13.2-6.2 19.7-9.4 10.4-5.1 21-9.8 31-15.5 17.5-9.9 35.5-17.9 55.8-20 1.5-0.1 3.3-0.2 4.2-1.1 4.3-4.3 9.8-4.8 15.2-6.1 29.3-7.2 58.6-14.4 87.8-22 3.9-1 7.5-4 10.9-6.4 1.5-1 2.3-3 3.7-4.8 3.2 6 2.8 7.4-1.6 10.4-2.4 1.7-5.8 2.5-6.8 6.1 6.6 1.2 8.9 0.3 12.9-4.1 6-6.4 8.6-14.2 9.4-22.7 0.6-6.5 3-12.1 7.4-16.7 8-8.4 16.5-16.2 27.2-21.2 1.1-0.5 2.1-1.2 3.1-1.8-3.4-9.5-7.3-11.8-16.5-9.7-11.5 2.6-23 5.2-34.3 8.2-23.6 6.3-47.1 12.7-70.5 19.4-14.8 4.2-29.4 9.1-44.1 13.8-4.7 1.5-9.5 2.7-14.1 4.5-18.8 7.5-38 13.7-55.5 24.6-18.7 11.5-40.5 13.3-61.9 14.2-6.1 0.2-12.3-1.4-18.3-2.9-5.6-1.4-8.4-5.8-8.5-11.5-0.1-6.2 1.6-12.1 6.5-16.2 8.1-6.6 16.3-13.2 25-19.1 7.8-5.3 15.5-10.6 22.1-17.5 3.6-3.7 7.8-6.9 13-7.9 8.4-1.5 14.9-6.3 21.4-11.2 1.5-1.1 2.6-2.8 3.8-4.3 2.3-3 4.4-6.3 6.9-9.2 4.4-5.3 2.5-13.5-4.1-15.4-5.1-1.5-10.5-2.1-15.8-2.5-12.7-0.8-23.9 3.1-33.9 10.9-1.5 1.2-3.2 2.2-4.9 3.1-12 6-24.8 8.4-38 7.4-20.1-1.6-30.9-11.5-35.2-31.3-0.2-1-0.4-2.1-0.7-3.1-1.2-4-3-5.2-7.1-4.6-5.2 0.7-9.7 3.1-14 6-4.6 3.1-9.3 6.2-14.4 8.3-6.5 2.7-13.5 4.1-20.1 6.5-12.1 4.2-22.8 1-32.8-5.8-1.6-1.1-2.8-3.1-3.6-5-1.1-2.3-1.8-4.7-2.4-7.2-0.3-1.4-0.4-3-0.1-4.3 2.6-9.8 7.2-18.3 15.1-24.8 3.4-2.8 7-4 11.3-3.3 1.7 0.3 3.3 0.7 5 1 13 1.8 25.6-12.3 21.9-26.1-1.9 1.7-3.9 2.9-5.1 4.7-1 1.5-1.2 3.6-1.8 5.4-1.5 4.7-2.9 5.5-9.1 4.7 6-6.1 5.2-12.2 0.6-18.6-1.4-1.9-2.1-4.8-2.1-7.3 0-11.8 1.1-15.8 14.3-12.6 0.2 0 0.4 0.1 0.6 0.1 12.1 3.7 21.4-0.9 29-10 3.8-4.5 4.9-9.8 3.8-15.7-0.7-4.1-5-4.1-6.7-1.7-1.2 1.6-1.8 3.8-2.1 5.8-0.3 1.6 0.2 3.4 0.2 5.1-0.1 4.1-3.3 5.3-6.3 6.3-2.9 1-5.9 1.4-7.4-2.6 0.7-0.9 1.4-1.7 2-2.6 6.2-8.5 3.4-16.9-6.6-20.1-1.4-0.4-2.9-0.8-4.4-1-5.5-0.5-11.1-1.3-16.6-1.3-7.5 0-13.1-3.3-17.8-8.7-4.2-4.7-4.2-7.1 0-11.7 4.2-4.7 9.4-8 15.1-10.7 6-2.8 11.9-5.8 17.8-9 14.9-8.1 30.1-15.4 46-21.4 10-3.7 20-7.7 29.8-11.8 3.1-1.3 6.1-3.3 8.6-5.5 5.7-5 6-5.1 11.6-0.2 3.8 3.4 4.2 5.9 0.2 8.8-3.4 2.4-7.4 4.4-11.4 5.4-11.4 3.1-21.7 7.9-30.5 15.8-2.5 2.3-4.8 4.9-6.8 7.6-0.8 1.1-1.2 3.6-0.6 4.6 0.7 1.1 2.9 1.3 4.5 1.5 1 0.2 2.1-0.2 3.1-0.5 14.6-4.3 29.2-8.4 43.6-13 7.3-2.3 13.8-6.1 15.6-14.7 0.2-0.9 2.1-1.4 3.3-2 0.3 1.3 1.3 2.8 0.9 3.8-2.9 6.9-5.3 14.1-14.6 15.2-3 0.3-5.6 2.5-5.7 6.4 14.1 1.2 28.4-9.2 29.8-22.1 0.9-8.2 0.2-16.6 0.2-24.4-3.2-1.5-5.9-2.7-8.5-4.1-10.7-5.7-22-7.7-34.1-6.6-8.7 0.8-17.5 0.7-26.3 0.7-5.1 0-9.6-2-13.6-5-5.9-4.5-6.9-10.8-3-17 0.9-1.4 2.3-2.6 3.2-4 1.7-2.7 3.4-5.4 4.8-8.2 0.9-1.9 1.3-4.1 2.1-6.1 2.7-6.2 5.6-8 12.1-6.5 4.9 1.1 9.2 0 13.8-1.3 7.4-2.1 14.8-4.1 22.4-5.5 8.9-1.6 17.5-3.8 25.6-8.1 10.8-5.7 22.3-10 34.4-12.1 6.8-1.2 13-1.1 17.7 5.4 2.8 3.8 7.3 5 12.1 4.5 2.7-0.3 4.8-1.8 4.9-4.3 0.4-6.6 0.6-13.2 0.4-19.8-0.1-3.6-2.5-6.2-6.3-7.3-4.5-1.3-8.9-2.9-13.5-4.2-20.6-5.8-41.2-6.8-62.1-1.2-10.9 2.9-22.1 5.1-33.2 7.4-12.2 2.5-24.6 3.7-37 0.9-5.4-1.3-10.6-1-15.8 0.3-30.8 7.2-61.8 14.1-92.5 21.6-11.2 2.7-22 6.8-32.9 10.6-3.6 1.2-6.7 3.6-10.2 5.2-5.8 2.7-12 4.6-17.6 7.7-9.6 5.2-18.8 11.1-28.2 16.6-2.8 1.6-5.6 3.3-8.6 4.2-3.4 1.1-8.7-1.4-9.4-4-1-3.8 2-5.2 4.4-7 0.3-0.3 0.7-0.5 1.1-0.7 10.4-6.4 20.6-13.1 31.1-19.2 10.7-6.2 19-16.1 31.5-19.4 1.4-0.4 2.5-1.6 3.9-2.3 10.1-5.5 19.5-12.5 30.9-15.4 7.9-2 15.5-5 23.3-7.2 11.7-3.3 23.5-6.5 35.4-9.2 10.5-2.4 20.8-5 30.5-9.9 2.1-1 4.4-1.9 6.7-2.1 4.3-0.4 7.7-2.3 11-4.9 4.2-3.3 8.4-6.6 12.6-10 1.4-1.2 2.6-2.6 3.9-4-0.7-1-1.1-1.9-1.4-1.9-4.3 0.3-7.6-2.4-11.3-3.8-5.9-2.2-12-3.6-18.2-2.3-5.2 1.1-10.2 2.8-15.3 4.5-12.8 4.2-25.6 8.4-38.3 12.9-15.5 5.5-30.8 11.8-46.4 16.8-12.7 4.1-25 3.2-35.1-7-5.1-5.1-5.4-7.7-1.6-14.1 5.1-8.6 12.4-14.5 21.3-18.8 10.4-5.1 20.5-10.6 30.6-16.2 9.5-5.3 19-10.8 28.3-16.4 4-2.4 8.2-4.8 11.6-8 2.8-2.7 4.7-6.5 6.4-10.1 0.6-1.3-0.2-3.8-1.2-5.1-1.4-1.9-3.3-0.8-5.1 0.4-6 4-12.2 3.6-18.1-0.2-7.1-4.6-8.2-13.1-2.4-19.3 2-2.1 4.8-3.5 7.4-4.8 5.2-2.5 10.6-4.7 15.8-7.1 2.5-1.2 5.3-2.6 4.3-6.2-1-3.4-4-2.7-6.5-2.4-3.4 0.5-6.7 1.2-10.1 1.8-6.9 1.3-10.6-1.5-11.3-8.6-0.7-6.8 2.3-12.2 7.4-16.2 3.1-2.5 6.6-4.9 10.3-6.5 8-3.4 11.9-9 11.1-17.8 0-0.4-0.2-0.8-0.4-1.5-3.5-2-7-1.5-10.7 0.4-5 2.4-10.1 4.5-15.3 6.3-7.1 2.5-14.3 4.4-21.3 6.9-9.1 3.3-18.5 5.3-28.1 6.3-5.1 0.5-10.3 0.1-15.4-0.3-4.3-0.3-7.2-2.9-7.9-6.4-0.8-4.2 1.9-6.4 5-8.1 3.4-1.8 7-3.2 10.5-4.8 1.8-0.8 3.5-1.8 5.3-2.7-2.5-1.1-4.8-0.8-6.6-1.6-3.1-1.4-5.6-1-8.5 0.5-4.4 2.2-8.7 1.8-12.5-1.6-2.6-2.4-5.4-2.6-8.9-1.8-5 1.1-10.2 1.2-15.3 1.5-3.2 0.1-6.3-1-7-4.4-1.1-5-4.6-5.8-8.7-5.6-3.4 0.2-6.8 0.9-10.1 1.4-2.3 0.4-4.6 1-6.9 1.1-5.8 0.1-8.7-2.2-10.2-7.7-0.6-2.1-0.7-4.3-1.4-6.3-1.2-3.4-2.7-4.3-6.4-3.3s-7.4 2.1-10.9 3.5c-15.3 6.2-30.4 12.8-45.8 18.6-6.1 2.3-12.9 3-19.4 4.4-1.2 0.3-2.5 0.5-3.8 0.8-3.5 0.6-7.1 1.9-10.6 1.7-16.1-0.7-27.8 7.3-37.8 18.6-2.9 3.3-2.8 6.3-0.5 10 1.6 2.7 3.9 4.3 7 5.1 11.2 3 22.5 2.7 33.7 0.6 6.3-1.2 12.6-2.6 18.9-3.9 2.5-0.5 4.2 0.4 5 2.8 0.7 2.2-0.2 3.9-2.2 4.7-3.1 1.4-6.2 3-9.5 3.8-9.5 2.4-19.1 4.9-28.8 6.6-10.1 1.8-20.3 3.6-30.5 4-12.5 0.5-20.7-6.4-24.2-18-1.7-5.5-0.4-10 3.2-14.2 3.3-3.7 6.6-7.4 9.6-11.2 4.3-5.5 9.3-9.9 15.3-13.5 8.4-5.1 16.3-11.2 22.6-18.9 2.6-3.2 5.3-4.9 9.7-5 5.7-0.1 10.2-3 12.4-8.7 1.9-4.8 0.5-8.1-4.1-10.5-1.4-0.7-3-1.8-3.7-3.1-3.8-6.5-5-7.2-12.1-5.1-7.6 2.3-15.1 4.8-22.6 7.2-4.5 1.4-5.6 1-7.8-3-0.8-1.4-1.4-3-2.1-4.7 0.8-0.8 1.3-1.5 2.1-1.9 12.1-5.4 23.9-11.9 36.5-15.8 14.6-4.6 28-11.6 42.4-16.6 3.5-1.2 6.5-2.1 10.4-0.8 6.9 2.2 12.4-2.2 12.9-9.9-2.8-2.1-6.2-1.6-9.2-1.1-17.1 2.9-34.2 5.5-50.5 11.6-2.7 1-5.1 1.1-6.9-1.4s-1.1-5.1 1.1-6.9c3.3-2.6 6.9-5 10.5-7.2 5-3.2 10.9-5.5 15.1-9.5 8.8-8.3 18.7-14.3 30.1-17.9 27.1-8.6 53.8-18.6 81.5-25.4 6.6-1.6 8.6-7.7 4-12.7-1.5-1.6-3.8-3-6-3.3-5-0.9-8.6-3.4-11.8-7.1-8-9.4-18.5-12.7-30.5-11.3-8.5 1-16.9 2.9-25.4 3.7-4.8 0.4-10.2 0.5-14.4-1.3-6.5-2.8-12.5-3.1-19.3-1.5-11.2 2.6-22.6 5.2-34 6.7-7.5 1-15.4 0.6-22.9-0.4-7.4-1-9.3-5-7-12 2.3-6.9 5-13.6 7.9-20.3 0.9-2.1 2.5-4.6 4.4-5.3 6.7-2.7 11.7-7.6 17.4-11.6 1.5-1.1 3.5-1.5 5.3-2.2 10.2-3.7 20.6-7.2 30.7-11.2 13.9-5.5 27.6-11.7 42.3-14.7 4.4-0.9 8.8-1.9 13.2-2.5 5.2-0.7 9.7 1.2 13.4 4.9 4.6 4.6 4.7 9.2-0.4 13.1-3.9 2.9-8.2 5.5-12.8 7.1-11.5 4-23.2 7.6-34.9 10.8-17.1 4.8-33.2 12.5-50.6 16.6-3.7 0.9-6.9 4.6-10 7.4-0.8 0.7-0.4 2.7-0.5 4.7 13.6 0 26.6 1.3 39.4-2.2 6.8-1.9 14.6-2.6 18.5-10.4 0.9-1.8 3.6-2.9 5.7-4 2.6-1.4 5.5-2.4 8.1-3.8 6.6-3.5 13.5-6.6 19.7-10.7 6.6-4.4 13.5-7.3 21.3-8.5 1.4-0.2 2.8-0.5 4.4-0.8 0-6.4 0.3-12.4-0.1-18.3-0.4-6.7-3.3-13.2-1-20.1-5.4-2.5-10.6-3.5-16-3.6-2.1 0-4.4-0.1-6.2-0.9-3.6-1.6-4.4-5.4-1.5-7.7 4.6-3.5 6.8-8.1 8.2-13.4 0.9-3.4 2.9-6.2 6.3-6.7 8-1.3 14.1-5.7 20.2-10.5 4.4-3.4 9.3-5 15-3.8s7.4 0.1 8.6-5.4c0.5-2.1 0.4-4.2 0.5-6.4 0.2-4 0.3-8 0.5-13-1.4-0.7-3.5-2.5-5.9-2.9-3.5-0.6-7.2-0.9-10.7-0.4-8.7 1.3-17.2 3.2-25.9 4.8-5.1 0.9-6.9-0.7-5.9-5.9 0.7-3.8 1.9-7.5 3.3-11 2.6-6.4 7.3-10.8 14-13.2 8.1-2.9 15.8-6.6 23.9-9.4 8.7-3.1 17.4-5.9 26.3-8.2 5.6-1.4 11.1-2.3 15.8-6.3 2.5-2.1 6.1-3.2 9.3-4.1 4.3-1.2 8.8-1.7 13.2-2.8 5.1-1.3 10.3-2.6 15.3-4.6 6.7-2.7 13-6.6 19.9-8.9 16.8-5.7 33.9-10.5 50.8-16.1 22.9-7.7 46.9-12 69.3-21.2 3.5-1.5 7.4-1.9 11.1-3 7.4-2.1 14.8-4.2 22.1-6.5 12.7-3.9 25-9.1 38.3-10.6 9.2-1.1 17.7-4 23.9-11 4-4.4 8.8-6.5 14.4-7.8 10-2.2 20.1-4.4 30.1-6.7 15.2-3.6 30.7-6.1 45.1-12.4 1.2-0.5 2.3-1.3 3.5-2-2.6-1.2-4.9-1.3-7.2-1.1-9.8 1-19.6 2.1-29.4 3-5.5 0.5-11.1 0.6-16.6 0.8-1 0-2.1-0.6-4-1.2 13.6-8.6 28.3-11.5 43-15.3-2-3.9-4.7-3.7-7.6-3.3-13.8 1.8-27.6 3.6-41.4 5.3-3.4 0.4-6.8 0.4-10.3 0.3-1 0-2.6-1-2.8-1.9s0.6-2.4 1.5-3.2c1.1-1 2.5-1.6 3.9-2.1 5.9-1.9 11.8-3.8 17.8-5.3 12.7-3.1 25.4-5.9 38.1-8.9 5.2-1.2 10.1-2.9 15.6-3.1 3.6-0.2 8.1-1.3 10.3-5.7-4.8 0-9.2 0.4-13.6-0.1-6.5-0.7-12.7 0.4-19 1.7-8 1.6-16 3.4-24.1 3.7-11.2 0.4-22.2 1.8-33.1 3.9-2.6 0.5-5.3 0.1-8.5 0.1 0.5-1.9 0.5-3.4 1.1-3.8 1.7-1.1 3.7-2.2 5.7-2.6 5.6-1.4 11.4-2.2 16.9-3.7 7.2-2 14.2-4.7 21.4-6.6 13.6-3.6 27.2-7.6 41.4-8.9 6.1-0.6 12.2-2.3 18.2-3.9 10.4-2.7 20.5-6.1 31-8.4 29.7-6.5 59.4-13 87.3-25.5 3.3-1.5 6.6-2.7 10.5-1.2 1.3 0.5 4.2-0.6 4.8-1.7 1-1.9 1.1-4.5 0.8-6.6-0.5-2.4-2.8-3-5.1-2.7-8.3 1.2-13.9-2.9-18.4-9.3-1.1-1.6-2.3-3.1-3.5-4.6-4.1-5.3-5.9-11.5-5-18.1 0.8-5.7 2.1-11.3 3.7-16.9 1.4-5.2 3.4-10.2 5-15.2 2.3-7.2 1.2-9.3-6.1-9.5-5.3-0.1-10.7 0.4-15.9 1.4-8.2 1.5-16.3 3.7-24.4 5.5-50.2 10.9-100.4 21.5-150.5 32.8-24.8 5.6-49.3 12.7-74 18.8-3.8 0.9-8 0.6-12 0.4-2.1-0.1-4.1-0.9-4.6-3.7-0.4-2.7 0.5-4.6 2.5-6.1 6.1-4.5 12.5-8.1 20-9.8 6.9-1.5 13.8-3.3 20.3-5.9 10.8-4.3 21.8-6.1 33.3-5.2 10.1 0.7 20.1 0 30-2.3 32.1-7.6 64.1-15.1 96.1-23.1 15.7-3.9 32.1-5.5 47.3-11.5 1.4-0.5 3-0.4 4.4-0.7 10.7-2 21.4-4 32.1-6 5.9-1.1 11.7-2 17.6-2.9 2.4-0.3 4.6-0.4 5.4-4.2-13.1 2.1-25.7 4.1-38.3 6.2-12.5 2-24.9 3.9-37.4 6-12.4 2.1-24.8 4.4-37.1 6.6-0.2-0.5-0.3-1.1-0.5-1.6 2-0.9 3.9-2.2 6-2.7 6.4-1.7 12.9-3.3 19.3-4.7 18.4-4 36.8-7.9 55.2-11.8 14.4-3.1 28.9-5.8 43.3-9.2 5.5-1.3 10.6-4.4 15.9-6.6 5.1-2.1 10.2-4.6 15.5-6.1 12.9-3.6 26.2-3.9 39.5-4.2 11.8-0.2 23.6-0.2 35.3-1.1 9.5-0.8 19.2-1.1 28-6.1 1.8-1 4.1-1.3 6.2-1.6 17.4-2.2 34.8-4.4 52.3-6.3 20.4-2.3 40.9-4 60.9-9.2 2-0.5 4.4-0.9 5.9-2.1 3.1-2.5 5.9-5.5 8.7-8.3 6.6-6.8 12.4-7.9 20.7-3.7 3.8 1.9 7.5 4.2 10.9 6.7 4.9 3.5 10.2 5.2 16.2 5.1 7.1 0 14.1 0.2 21.2-0.1 4.5-0.1 9.1-0.2 13.3-1.5 7.1-2.2 14.3-2.4 21.6-2.6 3.2 0 6.4-0.5 9.6-0.7 6.8-0.5 13.7-1.7 20.5-1.2 18.3 1.5 36.3 0.5 54.4-2 9.7-1.4 19.5-2.8 29.2-4.2 2.1-0.3 4.3-0.4 6.3-1.1 4-1.4 8-1.2 12-0.1 8.9 2.3 17.8 2 26.8 1 6.6-0.7 13.2-0.7 19.9-0.6 4.7 0.1 9.4 1 14.1 1.2 18.2 0.5 36.4 0.5 54.6 1.4 10.8 0.5 20.8-0.5 29.8-7.1 2-1.5 4.6-2.2 6.9-3.3h11.6c2.2 2.6 5.1 1.5 7.7 1.5 6.2 0 12.5-0.6 18.6 0.2 8.2 1.2 16.3 3.7 24.5 5.2 7.1 1.3 14.4 2.8 21.5 2.7 5.1-0.1 8.6 0.9 11.1 5.9 4.7-3.9 9.5-4 14.7-2 6.8 2.6 13.8 4.6 20.7 6.8 2.6 0.8 5.3 1.6 8 2.3 3.2 0.9 6.5 2.2 9.8 2.4 21.2 1.2 42.3 2.2 63.5 3.2 6 0.3 9.6-2 12.1-7.3 2.2-4.7 9.3-5.7 11.9-1.1 2.5 4.3 5.8 5 10.1 5.1 10.3 0.4 20.5 1.2 30.7 2 8.1 0.6 16.2 1.7 24.3 2.4 8.6 0.7 17.1 0.4 25.5-1.6 7.2-1.7 10.9-0.1 13.9 5.3-4.3 1.9-6.5 2-12.4 1.5-10-0.8-20.1-1.8-30.1-1.7-16.3 0.1-32.5 0.6-48.7-1.9-2.9-0.5-5.5 0-6.4 4.5 2.6 1.2 5.1 2.7 7.9 3.5 5.8 1.6 11.8 2.3 17.5 4.1 13.9 4.2 27.9 8.4 42.5 9.3 9.8 0.6 19 5.4 29 4.9 1.4-0.1 2.8 0.9 4.3 1.3 10.2 3.3 20.3 6.7 31.3 6 13-0.8 26.1-0.9 39.1-1.9 10.6-0.8 21.6-1.3 30.1-9.5-0.4-3.2-3.3-3.6-5.6-4.2-9.4-2.1-18.8-4-28.2-5.7-3.5-0.6-6.6-1.4-8.9-4.4-3.3-4.3-7.8-6.7-13.1-7.5-3.8-0.6-7.7-0.8-11.5-0.8-9.3 0-18.4-1.4-26.9-5.3-5.7-2.6-11.6-4.3-17.8-5-1.9-0.2-3.8-0.7-5.6-1.4-1-0.4-1.7-1.4-2.6-2.1 0.6-0.7 0.9-1.2 1.2-1.2 1-0.2 2.1-0.5 3.1-0.3 8.5 1.7 17.1 0.8 25.6 0.1 3-0.3 6 0 9 0.3 7.6 0.9 15.3 1.9 22.9 3.2 21.1 3.5 42.1 7.6 63.2 10.5 25.7 3.6 50.9 9.1 76 15.6 10 2.6 15.6 8.4 16.9 18.5 0.3 2.5 0.5 5.1 0.5 7.7-0.1 9.2-3.6 13.6-12.9 14.3-11.7 0.9-23.3 4.1-35.1 2.8-2.3-0.3-4.7 0-6 3 1 0.8 1.7 1.9 2.8 2.3 11.4 4.3 22.8 8.7 35 10.3 4.2 0.5 8.1 0.1 11.5-2.6 5.6-4.4 12-5.3 18.8-4.1 4.2 0.8 8.3 1.9 12.5 2.7 13.1 2.4 26.1 4.9 39.4 0.9 2.3-0.7 5.1-0.4 7.6-0.1 26.2 2.9 52.4 5.6 78.5 8.8 22.7 2.8 44.5 8.9 65.1 18.9 12 5.8 21.4 15 30.1 24.8 6.5 7.3 0.8 15.8-5.8 16.9-3.7 0.6-7.6 0.2-11.4-0.4-3.6-0.6-7-2-10.5-2.9-31.4-8.3-63.3-14.8-94.1-25.6-8.8-3.1-18.3-4.5-27.5-6.1-3.2-0.6-7-0.4-10 0.8-6 2.3-6.9 7.8-2.1 12.1 1.8 1.7 4.2 2.9 6.6 3.8 13.4 5.6 26.9 11 40.3 16.7 3.9 1.7 7.7 3.7 11.3 6 1 0.6 2 2.6 1.8 3.6-0.2 1.1-1.9 2-3 2.9-0.5 0.3-1.2 0.2-1.9 0.3-9 1.3-17.9 1.1-26.7-1.3-5.6-1.5-11.3-1.9-17.8-1 1.2 0.6 1.7 1 2.3 1.1 24.3 3.9 48.6 7.8 72.9 11.6 9.9 1.6 19.9 3 30 2.3 2.4-0.2 4.9 1 7.4 1.6 4.9 1.2 9.8 2.8 14.8 3.8 6.5 1.3 13.1 2.1 19.6 3.4 9 1.7 18 4.5 27.1 5.2 12.6 0.9 24.4 4.2 36.1 8.5 6.8 2.5 13.5 5.6 20.5 7.4 17.4 4.6 34.8 8.8 52.3 13 6.2 1.5 12.6 2.8 19.1 1.6 1-0.2 2.2-0.1 3.1 0.2 17.1 5.2 33.7 11.2 48.6 21.3 5.2 3.5 8.9 7.7 9.9 14.2 0.8 4.7 4 8.4 9.1 8.6 9.8 0.3 19.9 1.3 29.5-0.3 10.7-1.9 21.2-2.2 31.9-1.2 21.8 2.2 42.5 7.4 61.8 18 10.9 6 22.5 10.3 34.6 13.6 22.4 6 45.2 9.4 68.2 12.4 9.8 1.3 19.4 3.1 28 8.5 9.2 5.8 11.6 11.2 9 21.6-1 3.9-1.8 7.9-2.4 11.9-1.4 9.9-6.7 16-16.6 17.9-4.6 0.9-9.3 1-14 1.3-2.5 0.2-5.3 0.6-5.4 3.3-0.1 2 1.2 4.7 2.8 5.9 2.5 1.9 5.7 2.8 8.6 4.2 6.9 3.3 14.2 6.1 20.7 10 4.3 2.6 8.6 4.5 13.5 5.5 14.9 2.8 29.8 5.7 44.7 8.9 3.2 0.7 6.5 2.5 8.9 4.6 6.5 5.8 5 15.6-3 19-3.4 1.4-7.5 2-11.2 1.7-11.5-0.8-23-2.1-34.5-3.3-15.4-1.5-30.7-2.9-46.1-0.6-18.3 2.8-36.7 3.3-55.1 1.6-3.8-0.4-7.7-0.1-11.5 0.3-2.3 0.3-5.5-0.3-6.3 3.1-0.5 2.4 2.6 7.2 5.2 8.2 1.6 0.6 3.3 1.1 4.9 1.4 4.6 0.8 9.3 1.8 13.9 2.1 4.4 0.3 9 0.5 13.3-0.2 4.6-0.7 9-2.4 13.5-3.7 4.8-1.4 6.6-0.7 10.2 4.2-1.8 2.4-3.7 4.8-5.6 7.3 2.6 2.9 5.1 4 8.3 4.3 6.6 0.7 13.2 1.4 19.7 2.4 31.3 5.2 62.8 8.6 94.4 10.5 6.6 0.4 13.2 1.2 19.8 2.1 6.5 0.9 9.4 4 10.5 10.3 0.3 1.5 0.3 3 0.3 4.5 0.1 3.9 1.6 7 4.7 9.4 1 0.8 2.1 1.5 3 2.4 8.2 7.9 6.5 18.3-4.1 22.7-4.3 1.8-9 2.5-13.6 3.2-4.9 0.7-9.8 0.6-14.7 0.9-17.5 0.9-35.1 1.9-52.6 2.8-6.2 0.3-12.4 0.3-18.5 1.1-13.2 1.8-26.4 2.8-39.7 1.2-2.2-0.3-4.6 0.5-6.9 0.8v1.4c5.8 1.3 11.6 2.7 17.4 3.9 16.8 3.5 33.5 6.9 50.3 10.4 2.1 0.4 4.2 1.3 6.5 2-3.2 5-7.2 3.9-11 3.5-24.9-2.4-49.9-5-74.8-7.3-16.8-1.6-33.7-2.9-50.6-4.2-28-2.1-56-4.1-83.9-6.1-1.3-0.1-2.6-0.4-3.8-0.1-1.1 0.3-2.5 1.2-2.7 2s0.9 2.3 1.8 2.8c4 2 8.2 3.7 12.2 5.7 6.5 3.2 13.2 4.3 20.4 4.6 13 0.5 26 1.7 39 2.9 18.1 1.7 36.1 4.4 54.3 5.5 19 1.2 38 2.9 56.9 5.6 32 4.5 64 9.1 96 13.5 11 1.5 16-1.6 19.8-12.2 1.2-3.2 3.1-5.6 6.4-6.7 8.2-2.5 19.3 2.8 21.2 11.1 2.1 8.9 8.1 12.6 16.1 14.5 17.7 4.4 35.3 8.6 53 13.2 4.5 1.2 8.9 3 13.2 4.9 3.9 1.7 5.7 5.2 5.3 9.4s-2.6 7.3-6.7 8.6c-3.1 0.9-6.2 1.7-9.4 1.9-23.2 1.5-46.2 0.4-69.2-3-22.7-3.3-45.4-6.4-68-9.6-1.9-0.3-3.8-0.7-5.6-1.3-2.7-0.8-4.5-2.6-4.1-5.7 0.4-2.8 2.6-4 5.1-4.1 3.4-0.1 6.9-0.1 10.3 0.3 9.2 0.9 18.3 2.3 27.5 3 6.1 0.5 12.3 0.1 18.4 0.1-0.9-0.9-1.8-1.3-2.8-1.4-14.5-1.3-29-2.9-43.5-3.8-15.8-1-31.6-2.8-47.1-6.1-12.3-2.7-24.5-6.2-37-8-17.4-2.5-34.9-3.7-52.4-5.4-5.3-0.5-10.7-0.9-16-0.9-2 0-4.3 0.7-5.9 1.9-4.2 3.2-9 4.9-14.1 5.6-1.8 0.3-3.6 0.8-5.6 1.3 0.2 1.3 0 2.3 0.4 2.9 2.3 3.4 2.6 6.1-1.6 8.4-0.9 0.5-1.7 2.8-1.4 3.8 1.1 3.1 2.1 6.9 4.4 8.9 8.2 7.1 16.8 14 25.6 20.3 3.9 2.8 8.8 4.4 13.4 5.9 7.5 2.5 15.1 4.5 22.7 6.5 5.3 1.4 10.7 2.8 16.2 3.5 2.3 0.3 5.2-0.6 7.2-2 7.1-5 14.7-3.7 22.2-1.9 3.1 0.7 5.1 3 4.3 6.1-1.5 6.2 2.1 8.7 6.7 10.7 6.3 2.8 12.7 5.1 18.9 7.9 6.4 2.9 13 5.7 18.8 9.6 10.7 7.3 11.1 18.3 1.2 26.9-2.5 2.2-5.6 4-8.6 5.5s-6.4 2.5-9.6 3.7c-6.4 2.3-7.4 4.5-5.8 11.2 1.1 4.7 2 9.7 2.1 14.5 0.1 2.8-1 6.1-2.8 8.2-6.4 7.5-14.4 12-24.7 11.2-5.5-0.4-11.1-0.8-16.6-1.3-1.9-0.2-3.8-0.5-5.7-1.1-8.6-2.6-16.9-5.8-25-9.9-9.7-4.9-19.9-8.9-31-9.8-4.5-0.4-7.9 1.4-10.8 4.5-5.4 5.7-10.6 11.6-16.2 17.1-8.3 8.2-18.1 10.9-29.5 7.8-2.9-0.8-5.8-1.5-8.7-2.3-8.5-2.5-16.3-1.8-23.6 3.8-4.7 3.6-5.5 7.6-1 11.6 1.5 1.4 3.6 2.6 5.6 3 8.2 1.5 16.4 3.2 24.7 3.8 16.4 1.2 32.9 1.6 49.4 2.5 18.2 0.9 36.4 0.7 54.5-1.6 10.2-1.3 20.4-2.2 30.7-2.9 6.8-0.5 12.8 1.9 16.6 7.8 3.1 4.9 7.5 6.8 13 6.7 6-0.1 12-0.4 18-0.1 20.5 1.1 41.1 2.1 61.6 3.6 18.8 1.4 37.6 3.5 55.7 8.9 6.3 1.9 12.6 4.5 18.2 7.8 9.2 5.5 10.8 14.9 4.8 23.8-1 1.4-2 2.8-3.2 4-7.7 7.5-16.5 13.1-27.2 15-20.5 3.7-40.2 10.1-60 16.3-1.4 0.4-2.8 1.2-3.9 2.2-2.1 1.9-5.9 3.1-4.5 6.9s4.9 2.5 7.8 2.4c9.4-0.3 18.8-1 28.2-0.6 11.7 0.5 23.1 0 34.3-3.5 2.6-0.8 5.5-1.2 8.2-1.1 8.4 0.5 12.3 7.5 8.6 15-2.7 5.4-6.8 7.9-12.9 7.6-17.3-0.8-34.7-1.5-52-2.1-31.7-1.1-63.4-2.6-95-2.8-34.2-0.2-68.5-1.5-102.7 2.3-1.9 0.2-3.8 0.6-5.5 1.4-1.2 0.6-2.9 2.3-2.7 2.9 0.5 1.4 1.8 2.9 3.2 3.4 2.3 1 5 1.2 7.5 1.8 13.9 3.4 27.8 6.9 41.8 10 8.3 1.8 16.8 3.2 25.3 4.2 13.4 1.6 26.9 1.2 40.4-0.4 9.1-1.1 17.4 1.3 24.4 7.4 8.2 7.1 9.8 14 5.7 24.1-0.8 1.9-1.4 3.8-2.5 6.6 3.9 0.7 6.9 1.6 10 1.8 13.5 0.7 27 1 40.4 1.8 4.6 0.3 9.5 0.9 13.8 2.5 7.3 2.8 9.8 9.6 7.1 16.9-3 8.4-10.1 13.1-20 13.2-14.4 0.1-28.7 0.1-43.1 0-26.4-0.3-52 3.4-76.4 14.3-3.2 1.4-7 2.1-10.5 2.4-7.8 0.7-14.4 3.9-20.2 8.9-3.2 2.8-5.4 6.4-4 10.8 3.6 11.8 4 24 4.7 36.2 0.2 3 0.4 6 1 8.9 1 5.1 3.9 8.3 9.4 8.9 14.9 1.6 29.7 3.6 44.6 5.1 12.6 1.3 25.2 1.9 37.8 3.2 17.9 1.8 35.7 4.4 53.8 4.2 8-0.1 15.8 1.2 22.9 5.1 5.7 3.2 11.7 3.8 18 2.3 7.3-1.8 14 0.1 20.3 3.7 5.4 3.1 7.6 7.9 6.6 14.1-0.4 2.3-1.1 4.6-1.5 6.9-0.7 4.4-0.2 5.7 3.8 7.7 3.2 1.6 6.8 2.6 10.1 4 6.9 3 11.6 7.6 12.3 15.7 0.8 8.7 4.4 11.8 13.3 12.7 3.4 0.3 6.8 0.7 10.2 0.8 7 0.3 11.4 4.3 14.8 9.9 3.2 5.2 2.9 8.8-1.2 13.4-5.9 6.6-13.3 10.3-22.1 10.2-20.8-0.3-41.6-0.4-62.3-1.8-26.5-1.8-52.9-4.8-79.3-7.3-10.4-1-20.9-2.1-31.2-3.5-7.1-0.9-14-0.8-21 1.1-4.5 1.3-9.2 2.5-13.8 2.8-14.5 1-29.1 1.7-43.6 2.4-23.5 1.3-47-0.7-70.5 1.6-18.2 1.8-36.8 2.2-55.1-0.6-0.8-0.1-1.6 0.1-3 0.2 1.1 4 2.1 7.6 3.1 11.3 1.5 5.5 5.2 8.1 10.8 8.4 2.4 0.1 4.7 0 7.1 0 8.8 0.2 17.6 0.3 26.3 0.8 21.1 1.4 42.3 3.8 63.4 4.4 41.4 1.3 82.3 6.6 123.3 12.1 21 2.9 42.1 4.9 63.1 7.2 11.7 1.3 23.4 2.4 35.2 3.4 12.3 1 24.3 4.8 36.8 4.6 3.5 0 7.1 1.5 10.6 2.2 8.4 1.6 10.8 8.9 14.1 15.2 0.5 0.9 0.2 2.8-0.5 3.5-5.5 5.7-10.9 11.9-19.8 11.6-7-0.3-14.1-0.5-21.1-1.6-10.3-1.6-20.7-2.5-31.1-2.3-2.3 0.1-4.7-0.2-7-0.6-3.8-0.6-7.5-1.5-11.3-2-6.2-0.9-11.1 2.4-11.9 7.9-1 7.1 2.2 12.1 8.6 13.2 3.4 0.6 6.8 1.1 10.1 1.9 27.6 6.4 55.5 10.5 83.9 10.6 13.5 0.9 24.9 5.8 32 18.9zm-2423.2 16.6c-3 1.6-6 3.3-9.1 4.6s-6.7 1.8-9.6 3.4c-2.6 1.4-7.1-1.2-8.8 4.5 10.7-1.8 19.9-4.8 27.4-12.1 0.1-0.1 0-0.4 0-0.6 3.6-1.2 3.6-1.2 5.2-4.3l-1-1c-1.3 1.9-2.7 3.7-4.1 5.5zm123.3 112.2c3.8 3.3 3.8 3.3 8.5 0.2h-8.7c0.2-3.8 1.5-7 4.4-9.6 1.4-1.3 2.5-3 3.3-4.7 1.2-2.4 0-4.2-2.8-4.3-1.3 0-2.6 0.2-3.8 0.6-5.6 2-11 3.7-17.1 4.5-8.4 1.1-15.8 6.2-22.7 11.3-2.1 1.5-4.2 3.5-3.2 6.4 1 2.8 3.8 2.2 6.1 2.5 0.8 0.1 1.8 0 2.5 0.3 3.6 1.3 6.4 0 9.3-2.3 5.7-4.5 12.6-6.2 19.8-6.5 1.4-0.3 2.9 1 4.4 1.6zm2135.7-199c-0.6-1-0.7-1.5-1-1.6-1.8-0.7-3.6-1.3-5.5-1.8-25.1-7.4-50.8-11.9-76.7-15.2-20.8-2.6-41.6-5.2-62.5-7.3-17.2-1.7-34.5-3.2-51.8-3.6-8.8-0.2-17.5-0.5-26.2-1.5-5.5-0.7-11.1-0.6-16.7-0.5-3.2 0-5.1 2.7-3.4 4.4 2.6 2.9 4.6 6.7 9.1 7.5 14.1 2.4 28.2 5.1 42.2 7.6 5 0.9 10.1 1.7 15.2 1.9 18.8 0.9 37.5 1.5 56.3 2.2 1.9 0.1 3.8 0.4 5.7 0.6 7.8 1 15.7 2.4 23.5 3 13.4 1.1 26.8 1.7 40.2 2.5 0.9 0.1 1.7 0.2 2.6 0.2 6.2 0.5 12.3 0.8 18.5 1.4 5.7 0.5 11.4 1.1 17.1 1.8 4.6 0.5 9 1.4 13.4-1.6zm-179.9-738.3c0.1-0.5 0.3-1 0.4-1.5-11.6-1.4-23.3-2.4-34.9-4.3-10.6-1.7-21.8-2-31.1-8.6-0.6-0.4-1.7-0.2-2.5-0.3-6.8-1-13.5-2.1-20.3-3-1.7-0.2-3.5-0.7-5-0.2-4.9 1.8-9.7 0.9-14.6 0.2-8.3-1.2-16.5-2.2-24.8-3.1-1.2-0.1-2.5 0.3-5.1 0.7 7 3.6 12.6 6.6 18.4 9.3 2.1 1 4.5 1.4 6.8 1.6 25.5 2.8 50.9 5.5 76.4 8.2 0.8 0.1 1.7-0.1 2.4-0.4 4.3-2.1 8.7-1.2 13.2-0.7 7.1 0.9 13.9 1.5 20.7 2.1zm-2378.9 208.5c9.6-1.4 18.7-3.8 26.3-9.6 4.1-3.2 8.2-5 13.5-4.9 5.4 0.1 9-2.8 11.1-7.7-18.7 4-37.4 7.2-50.9 22.2zm732.1-325.2c-1.8-0.1-2.6-0.3-3.4-0.3-4.1 0.3-4.1 4.2-5.9 6.6-4.5 6-4.4 12.7-3.2 19.5 0.8 4.4 2.1 4.9 7.6 4.4 1.3-3.7 2.8-7.2 2-11.6-0.5-3-0.2-6.3 0.2-9.4 0.5-2.8 1.7-5.6 2.7-9.2zm-181.2 968.5c-0.1-0.5-0.1-1.6-0.3-2.6-1-6.1-3.5-7.2-8.7-4.3-5.4 3-7.3 8.1-8.1 13.7-0.5 3.2 1.1 5 4 5.4 7 0.8 13.2-4.7 13.1-12.2zm1434.5-1177.6c0.1-0.6 0.1-1.2 0.2-1.8-17.7-7.5-36.5-8.1-55.8-9.4 0.7 1 0.8 1.5 1.1 1.6 6.5 2 13 4 19.5 5.9 1 0.3 2.2 0.5 3.1 0.3 5.2-1.3 10.1 0.2 15.2 1 5.5 1 11.1 1.6 16.7 2.4zm-733.7 517.4c-3.5 6.5-2.5 9.5 3.8 12.7 3.1-1.7 5.4-3.9 4-7.8-2.5-1.6-5-3.1-7.8-4.9zm-779.3-393.5c1.3-5 1.3-5-4.9-7.5-3.2 5.5-2.1 7.1 4.9 7.5zm299-189c-0.5 3.5 0.5 6 3.9 7.2 2.1 0.7 3.2-0.4 3.8-3.4-4.2 1.8-2.5-6.4-7.7-3.8zm1706 549.2c-2.8-6.3-4.5-6.6-8.9-2 2.5 2.1 4.9 4 8.9 2zm-2381.5-57c-6.1 5.3-6.1 8.3 0 11.1v-11.1zm-251.8 130.6c4.6 2.8 4.6 2.8 7.3-4.5-3.7-0.4-6.2 0.8-7.3 4.5zm966.2-533.7c-3.7 2.1-6.3 3.6-8.8 5 0.2 0.4 0.3 0.9 0.5 1.3 2.6-0.2 5.2-0.5 8-0.7 0.1-1.6 0.1-2.8 0.3-5.6zm-105.1-6.3c2.9-0.6 5.8-1.3 7.9-4.2-4.4-1.1-6.5 0.9-7.9 4.2zm873.7 1146.4c3.3 4 4.7 2.9 6.3-0.3-2 0.1-3.6 0.2-6.3 0.3zm-1013-851.7-1.8-0.3c-0.1 1.2-0.3 2.4-0.4 3.6 0.5 0.1 0.9 0.1 1.4 0.2 0.2-1.2 0.5-2.3 0.8-3.5z"/> <path class="st0" d="m380.9 2347.1c-6.4-6.2-6.7-9.2-1.5-16.5 20.4-28.8 46.9-50.2 78.8-65.1 3.1-1.4 6.2-3 9.4-4.1 2.3-0.8 4.8-1.1 7.6-1.8 0.5 3.9-1.8 5.1-3.9 6.3-6.7 3.8-13.3 7.8-20.1 11.4-18.8 10-33.4 24.4-45.3 41.8-0.8 1.2-1.6 2.5-2.3 3.8-3.2 5.9-2.9 7.1 2.3 11.3 0.8 0.6 1.6 1.3 2.7 2.1-3.4 4.1-7.7 6.4-12.3 8.3-1.7 0.7-3.4 1.6-5 2.4-3.5 0.1-7 0.1-10.4 0.1z"/> <path class="st0" d="m2266.6 2182.4c8.1-1.6 16.2-3.5 24.4-4.6 19.9-2.7 39.9-5.4 59.9-7.2 12.8-1.1 25.7-0.6 38.5-0.8h0.6c2.1 0.2 4.8 0.1 4.8 3s-2.7 2.8-4.8 3c-4.9 0.6-9.8 1.2-14.6 1.7-0.4 0-0.9 0.1-1.3 0.1-3.5 0-3.8 6-7.7 4.6-4.2-1.6-5.5 2.4-8.3 3.5-2.9 1.1-5.5 3.2-8 5.2-0.8 0.7-1.4 2.1-1.5 3.2-0.4 3.6-0.7 7.2-0.8 10.9-0.3 9.3 4.7 16.2 13.8 18.3 8.8 2.1 17.7 3.3 26.7 0.7 7.2-2.1 13.4-5.4 17-12.6 1-2 2.6-4.2 4.6-5.2 2-1.1 4.9-1.5 7.2-1 2.6 0.6 3 3.5 2.7 5.9-0.7 6.5-3.1 12-9.6 14.7-12 5-24.1 10-36.1 15.1-13.5 5.6-27.8 8.3-42.2 10.9-6.7 1.2-13.2 0.2-19.6-2-9.5-3.3-12.9-10.1-10-19.7 1.8-6 5.2-10.9 10.2-14.5 8.8-6.4 13.2-16.2 19.3-24.6 3-4.2 1.7-6.6-3.4-7.7-11.4-2.4-22.9-2.6-34.5-1.5-8.9 0.9-17.9 1.6-26.8 2.4-0.3-0.6-0.4-1.2-0.5-1.8z"/> <path class="st0" d="m1657.2 2094.4c-3.8 1.3-7.4 2.9-11.3 3.8-16.1 3.6-32.1 7.1-48.2 10.5-9.6 2.1-19.4 3.5-28.9 6-9 2.4-18.3 4.3-26 10.3-1 0.8-3.3 0.4-4.8 0-4.7-1.4-8.5-0.1-11.5 3.5-3.6 4.3-8.3 6.8-13.7 7.8-10.3 2-20.6 3.8-30.9 5.5-13.1 2.2-26.1 4.6-39.3 6.3-29.1 3.8-58.2 7.3-87.2 10.8-3.8 0.5-7.7 0.1-11.5 0-2.4-0.1-4.2-1.1-4.2-3.8 0-2.5 1.7-3 3.8-3.4 42.5-7.6 85-15.3 127.6-22.9 10.2-1.8 19.6-5.1 28.5-10.9 5-3.3 11.5-4.4 17.5-5.7 14.2-3.1 28.5-5.7 42.8-8.6 1-0.2 2.2-0.3 3.1-0.7 13.4-6.2 27.9-6 42.1-7.2 14.5-1.2 29-2.1 43.5-3 2.7-0.2 5.5 0 8.3 0 0 0.5 0.2 1.1 0.3 1.7z"/> <path class="st0" d="m2210.3 2288.6c-1.9-3.1-3.4-5.9-5.2-8.4-1.7-2.2-4.2-2.8-6.9-2.3-2.3 0.4-4.6 0.9-6.9 1.4-5.4 1.2-8.2 0.3-10.6-3.4-2.5-3.7-2.7-9.6 0.1-12.6 6.5-7 14.6-11.8 23.9-14.1 1.4-0.3 3.4 0.4 4.7 1.2 8.4 4.9 17.2 8.4 26.8 10.1 7.9 1.4 11.4 6.1 11.1 14s-0.6 15.8-1.4 23.7c-0.8 7.3-3.3 14.2-8.4 19.7-5.4 5.8-12.6 6.9-19 2.2-8.1-6-13.5-14.2-17.1-23.6-1.4-3.6-0.1-5.6 3.6-6.8 1.4-0.5 2.9-0.6 5.3-1.1z"/> <path class="st0" d="m890.7 2189.6c-2.2 1.3-3.6 2.4-5.2 3.2-12.5 6.5-25.1 13-37.5 19.5-15.8 8.3-30.5 18.3-41.9 32.3-2.1 2.5-3.5 5.8-4.4 9-1.3 4.3 0.2 6.2 4.5 7.6 0.2 0.1 0.4 0.1 0.6 0.1 2.4 0.7 5.3 0.5 5.9 4 0.6 3.4-1.1 7.5-4.4 9.3-2.2 1.2-4.7 2.2-7.2 2.7-15.4 2.6-30.8 5.1-46.2 7.6-1.5 0.2-3 0.4-4.5 0.4-4.6-0.1-6.5-3-4.7-7.2 2.1-4.9 6.9-6.5 11.2-5.8 11.3 1.7 16.7-5.7 22.3-13 0.4-0.5 0.7-1.1 1-1.6 7.6-17.1 21.3-28.7 36.3-38.8 15.1-10.3 31.8-17.4 48.9-23.9 5.4-2 10.9-3.9 16.3-5.8 2.8-1.1 5.4-1.8 9 0.4z"/> <path class="st0" d="m385.2 996.4c-0.7 4-4.2 4.5-7 5.5-11.5 4.1-23 7.9-34.5 12.1-8.2 3-16.4 6.1-24.5 9.5-5.4 2.2-10.4 2.6-14.9-1.5-3.5-3.1-3.1-7 0.9-9.5 1.4-0.9 3.1-1.5 4.7-2 16.4-4.7 32.8-9.6 49.3-14.1 7.7-2.1 19.9-1.8 26 0z"/> <path class="st0" d="m861 2256.3c1.7-1.5 2.2-2.3 2.9-2.5 15.7-3.8 31.1-8.8 47.1-11.6 23.4-4 46.5-9.3 69.7-14.1 2.6-0.5 5.2-0.9 8.4-1.4-0.4 3.4-2.1 4.1-3.9 4.6-18.8 4.8-37.7 9.6-56.6 14.2-8.9 2.2-17.8 4.5-26.8 6.2-10.7 2-21.5 3.4-32.2 4.9-2.4 0.4-4.9-0.1-8.6-0.3z"/> <path class="st0" d="m2901.5 2077.1c-2-0.9-3.2-1.3-4.3-1.8 2.4-6.5 6.1-8.8 12.4-7.7 9.7 1.7 13.9 6.7 12.6 15.8-0.4 2.5-1.9 5.3-3.8 7-5.7 5-15.7 4.4-21.2-0.8-3.7-3.5-3.7-5.4 0.1-8.9 1.1-1.1 2.3-2 4.2-3.6z"/> </svg>