<?xml version='1.0' encoding='utf-8'?>
<svg xmlns:xlink="http://www.w3.org/1999/xlink" xmlns="http://www.w3.org/2000/svg" viewBox="0 0 64 64"> <defs> <linearGradient id="e" x1="23.001" x2="33.139" y1="19.18" y2="49.073" gradientUnits="userSpaceOnUse"> <stop stop-color="#fff" offset="0"/> <stop stop-color="#c8c8c8" offset="1"/> </linearGradient> <linearGradient id="a"> <stop stop-color="#236b0d" offset="0"/> <stop stop-color="#0a2205" offset="1"/> </linearGradient> <linearGradient id="f" x1="10.018" x2="63.488" y1="8.6307" y2="63.66" gradientUnits="userSpaceOnUse" xlink:href="#a"/> <linearGradient id="d" x1="10.015" x2="63.485" y1="8.6278" y2="63.657" gradientUnits="userSpaceOnUse" xlink:href="#a"/> <radialGradient id="c" cx="24.764" cy="16.362" r="27.5" gradientTransform="matrix(.025214 1.0261 -.97814 .024047 38.83 -3.5757)" gradientUnits="userSpaceOnUse"> <stop stop-color="#2edc32" offset="0"/> <stop stop-color="#11661d" offset="1"/> </radialGradient> <radialGradient id="b" cx="18.387" cy="14.047" r="27.5" gradientTransform="matrix(.011424 1.0988 -1.844 .018788 52.151 -5.6674)" gradientUnits="userSpaceOnUse"> <stop stop-color="#e6e6e6" offset="0"/> <stop stop-color="#11661d" stop-opacity="0" offset="1"/> </radialGradient> </defs> <path d="m32 8.6307c-12.887 0-23.369 10.482-23.369 23.369s10.482 23.369 23.369 23.369 23.369-10.482 23.369-23.369-10.482-23.369-23.369-23.369z" fill="url(#f)"/> <path d="m54.5 32c0 12.42-10.08 22.5-22.5 22.5s-22.5-10.08-22.5-22.5 10.08-22.5 22.5-22.5 22.5 10.08 22.5 22.5z" fill="url(#c)"/> <path d="m32.017 9.1562c-9.4422 0-17.512 5.7088-20.954 13.812 4.9438 2.8331 10.331 4.8871 16.119 4.625 5.574-0.31383 10.372-4.0628 16.056-3.7812 4.2141-0.09605 9.0074 1.4819 11.252 5.1875-1.3459-11.153-10.831-19.844-22.472-19.844z" fill="url(#b)"/> <path d="m32 8.625c-12.887 0-23.375 10.488-23.375 23.375s10.488 23.375 23.375 23.375 23.375-10.488 23.375-23.375-10.488-23.375-23.375-23.375zm0 0.875c12.42 0 22.5 10.08 22.5 22.5s-10.08 22.5-22.5 22.5-22.5-10.08-22.5-22.5 10.08-22.5 22.5-22.5z" fill="url(#d)"/> <path d="m32.557 39.006c0.13587-3.1704 0.54349-3.9403 3.3515-6.1142 3.4874-2.6722 3.895-2.9892 4.212-3.2609 1.5852-1.3587 2.491-3.4421 2.491-5.6161 0-4.9367-3.9856-8.0618-10.326-8.0618-5.9784 0-10.19 2.8986-10.19 7.0654 0 2.4457 1.8116 4.212 4.3026 4.212 2.3098 0 3.895-1.4946 3.895-3.6233 0-1.2228-0.4982-2.2192-1.4493-2.9439-0.81523-0.63407-0.86052-0.67936-0.86052-0.9964 0-0.63407 0.9964-1.1323 2.4004-1.1323 2.7174 0 4.2573 1.8116 4.2573 4.982 0 1.8569-0.67936 4.1668-1.8116 6.2048-2.491 4.4385-2.8533 5.3443-2.8533 7.3824 0 0.45291 0.04529 1.1776 0.13587 1.9022h2.4457m-1.1323 2.491c-2.3551 0-4.2573 1.9022-4.2573 4.2573 0 2.3098 1.9022 4.2573 4.212 4.2573 2.4004 0 4.3026-1.9022 4.3026-4.2573s-1.9022-4.2573-4.2573-4.2573" fill="url(#e)"/> </svg>