<?xml version='1.0' encoding='utf-8'?>
<svg xmlns="http://www.w3.org/2000/svg" viewBox="0 0 250 250"> <defs> <linearGradient id="d" x1="23.718" x2="60.156" y1="21.657" y2="56.156" gradientUnits="userSpaceOnUse"> <stop offset="0"/> <stop stop-opacity="0" offset="1"/> </linearGradient> <linearGradient id="b" x1="38.999" x2="45.116" y1="35.364" y2="38.929" gradientUnits="userSpaceOnUse"> <stop stop-color="#eefb11" offset="0"/> <stop stop-color="#fbcd11" offset="1"/> </linearGradient> <linearGradient id="c" x1="33.714" x2="33.771" y1="32.828" y2="45.819" gradientTransform="scale(1.3951 .71681)" gradientUnits="userSpaceOnUse"> <stop stop-color="#fff" offset="0"/> <stop stop-color="#fffcfc" stop-opacity="0" offset="1"/> </linearGradient> <radialGradient id="a" cx="41.217" cy="36.044" r="26.079" fx="42.015" fy="36.314" gradientUnits="userSpaceOnUse"> <stop stop-color="#ffcd00" offset="0"/> <stop stop-color="#f00" offset="1"/> </radialGradient> </defs> <path transform="matrix(5.7942 0 0 5.7942 -136.4 -106.63)" d="m60.104 39.286a17.291 17.291 0 1 1-34.582 0 17.291 17.291 0 1 1 34.582 0z" display="block" fill="url(#a)" fill-rule="evenodd" stroke="#000079" stroke-linejoin="round" stroke-width="3.4694e-17"/> <path transform="matrix(5.7942 0 0 5.7942 -128.56 -104.73)" d="m49.89 20.49-15.82 16.117 8.5273 0.29776-13.53 13.446 5.7307 0.10692-9.4956 10.49 22.944-12.796-8.5408 0.09006 17.288-13.805-9.3516-0.023 15.365-14.354-13.118 0.43023z" display="block" fill="url(#d)" fill-rule="evenodd" opacity=".78873"/> <path transform="matrix(5.7942 0 0 5.7942 -161.3 -109.02)" d="m57.231 28.348a9.9989 5.1376 0 1 1-19.998 0 9.9989 5.1376 0 1 1 19.998 0z" display="block" fill="url(#c)" fill-rule="evenodd" opacity=".84507"/> <path transform="matrix(5.7942 0 0 5.7942 -128.56 -104.73)" d="m49.08 19.24-15.82 16.117 8.5273 0.29776-13.53 13.446 5.7307 0.10692-9.4956 10.49 22.944-12.796-8.5408 0.09006 17.288-13.805-9.3516-0.023 15.365-14.354-13.118 0.43023z" display="block" fill="url(#b)" fill-rule="evenodd" stroke="#ff8600" stroke-width=".60517"/> </svg>