<?xml version='1.0' encoding='utf-8'?>
<svg xmlns="http://www.w3.org/2000/svg" version="1.1" viewBox="0 0 237.49 273.35"> <defs> <filter id="a" x="-.24359" y="-.079609" width="1.4872" height="1.1592" color-interpolation-filters="sRGB"> <feGaussianBlur stdDeviation="9.8671875"/> </filter> </defs> <g transform="translate(-55.631 -27.279)"> <path transform="matrix(.6946 .60219 -.58518 .71478 175.79 -107.37)" d="m155.15 88.277v9.9062h56.812v-9.9062h-56.812zm51.219 13.031-47.125 0.5-20.188 98.812h89l-21.688-99.312zm-71.438 102.47v9.9062h97.219v-9.9062h-97.219zm34.188 13.031c-0.1832 28.156 8.5336 112.3 14.219 168.94 0 0 16.067-141.86 14.562-168.94h-28.781z" filter="url(#a)" opacity=".79167"/> <path d="m231.89 49.155-5.7969 7.0808 39.462 34.212 5.7969-7.0808-39.462-34.212zm27.951 40.158-33.025-28.021-71.845 58.473 61.819 53.594 43.051-84.047zm-109.58 30.224-5.7969 7.0808 67.528 58.544 5.7969-7.0808-67.528-58.544zm16.121 29.902c-16.603 20.015-59.79 85.412-88.982 129.32 0 0 94.171-91.721 108.97-111.98l-19.991-17.332z" opacity=".99"/> </g> </svg>